M48
; DRILL file {KiCad 6.0.2+dfsg-1} date Σαβ 25 Φεβ 2023 05:51:27 μμ EET
; FORMAT={-:-/ absolute / metric / decimal}
; #@! TF.CreationDate,2023-02-25T17:51:27+02:00
; #@! TF.GenerationSoftware,Kicad,Pcbnew,6.0.2+dfsg-1
; #@! TF.FileFunction,Plated,1,4,PTH
FMAT,2
METRIC
; #@! TA.AperFunction,Plated,PTH,ComponentDrill
T1C0.300
; #@! TA.AperFunction,Plated,PTH,ViaDrill
T2C0.400
; #@! TA.AperFunction,Plated,PTH,ComponentDrill
T3C1.000
; #@! TA.AperFunction,Plated,PTH,ComponentDrill
T4C1.100
; #@! TA.AperFunction,Plated,PTH,ComponentDrill
T5C6.100
%
G90
G05
T1
X197.619Y-66.872
X197.619Y-68.272
X198.319Y-66.872
X198.319Y-67.572
X198.319Y-68.272
X199.019Y-66.872
X199.019Y-67.572
X199.019Y-68.272
X221.008Y-66.61
X221.008Y-68.01
X221.708Y-66.61
X221.708Y-67.31
X221.708Y-68.01
X222.409Y-66.61
X222.409Y-67.31
X222.409Y-68.01
T2
X92.964Y-53.594
X92.964Y-58.674
X92.964Y-101.854
X92.964Y-112.014
X97.663Y-118.999
X99.06Y-86.36
X100.278Y-118.416
X100.278Y-119.582
X100.584Y-53.594
X101.6Y-75.438
X102.87Y-84.836
X104.462Y-76.639
X105.664Y-58.674
X108.712Y-117.348
X111.506Y-119.38
X118.364Y-58.674
X120.142Y-50.292
X120.65Y-52.578
X121.539Y-87.757
X126.896Y-90.019
X133.604Y-78.994
X143.764Y-71.374
X146.304Y-48.514
X146.304Y-58.674
X146.304Y-101.854
X146.304Y-112.014
X148.844Y-53.594
X151.384Y-48.514
X151.384Y-58.674
X152.654Y-119.634
X153.67Y-117.602
X156.591Y-119.507
X156.718Y-49.784
X156.718Y-52.324
X159.004Y-76.454
X159.258Y-117.856
X161.798Y-52.07
X164.342Y-49.272
X165.862Y-91.694
X167.386Y-91.694
X168.91Y-91.694
X169.164Y-71.374
X172.216Y-49.272
X173.99Y-85.344
X174.244Y-78.994
X176.784Y-71.374
X179.582Y-49.272
X181.61Y-90.17
X186.944Y-81.534
X189.357Y-48.895
X189.476Y-43.176
X192.024Y-56.134
X193.04Y-62.992
X193.548Y-66.04
X194.31Y-62.992
X194.564Y-114.554
X195.58Y-66.802
X196.215Y-61.341
X197.104Y-81.788
X198.374Y-70.612
X200.676Y-48.51
X201.422Y-65.532
X201.422Y-66.802
X202.184Y-56.134
X204.724Y-112.014
X204.724Y-119.634
X205.994Y-65.532
X206.063Y-45.147
X206.248Y-71.12
X206.756Y-67.564
X207.264Y-58.674
X207.264Y-84.074
X209.804Y-96.774
X209.804Y-104.394
X209.804Y-114.554
X209.804Y-117.094
X209.804Y-129.794
X212.279Y-45.147
X212.344Y-58.674
X212.344Y-68.834
X212.344Y-76.454
X214.884Y-112.014
X214.884Y-119.634
X217.424Y-58.674
X217.678Y-62.992
X218.948Y-64.516
X218.948Y-65.786
X219.329Y-67.056
X221.551Y-62.547
X221.742Y-70.358
X222.504Y-58.674
X222.504Y-82.423
X224.409Y-65.786
X225.044Y-64.897
X225.044Y-67.31
X225.044Y-114.554
X227.584Y-43.434
X227.584Y-58.674
X228.346Y-70.358
X229.108Y-65.532
T3
X89.154Y-44.704
X89.154Y-62.484
X90.424Y-71.374
X90.424Y-73.914
X90.424Y-76.454
X90.424Y-78.994
X90.424Y-81.534
X90.424Y-84.074
X90.424Y-86.614
X90.424Y-89.154
X90.424Y-91.694
X91.694Y-44.704
X91.694Y-62.484
X92.964Y-71.374
X92.964Y-73.914
X92.964Y-76.454
X92.964Y-78.994
X92.964Y-81.534
X92.964Y-84.074
X92.964Y-86.614
X92.964Y-89.154
X92.964Y-91.694
X94.234Y-44.704
X94.234Y-62.484
X96.774Y-44.704
X96.774Y-62.484
X99.314Y-44.704
X99.314Y-62.484
X101.854Y-44.704
X101.854Y-62.484
X104.394Y-44.704
X104.394Y-62.484
X106.934Y-44.704
X106.934Y-62.484
X109.474Y-44.704
X109.474Y-62.484
X112.014Y-44.704
X112.014Y-62.484
X114.554Y-44.704
X114.554Y-62.484
X117.094Y-44.704
X117.094Y-62.484
X119.634Y-44.704
X119.634Y-62.484
X122.174Y-44.704
X122.174Y-62.484
X124.714Y-44.704
X124.714Y-62.484
X127.254Y-44.704
X127.254Y-62.442
X129.794Y-44.704
X129.794Y-62.484
X132.334Y-44.704
X132.334Y-62.484
X134.874Y-44.704
X134.874Y-62.484
X137.414Y-44.704
X137.414Y-62.484
T4
X125.984Y-96.774
X133.604Y-96.774
X133.604Y-106.934
X133.604Y-114.554
X176.784Y-96.774
X184.404Y-96.774
X184.404Y-106.934
X184.404Y-114.554
T5
X95.504Y-127.254
X108.204Y-101.854
X120.904Y-127.254
X146.304Y-127.254
X159.004Y-101.854
X171.704Y-127.254
X197.104Y-101.854
X197.104Y-127.254
X222.504Y-101.854
X222.504Y-127.254
T3
X218.702Y-50.572G85X218.702Y-47.972
G05
X220.502Y-44.472G85X222.702Y-44.472
G05
X225.002Y-50.372G85X225.002Y-48.172
G05
T0
M30
