G04 #@! TF.GenerationSoftware,KiCad,Pcbnew,6.0.2+dfsg-1*
G04 #@! TF.CreationDate,2023-02-25T17:51:13+02:00*
G04 #@! TF.ProjectId,pina,70696e61-2e6b-4696-9361-645f70636258,rev?*
G04 #@! TF.SameCoordinates,Original*
G04 #@! TF.FileFunction,Legend,Bot*
G04 #@! TF.FilePolarity,Positive*
%FSLAX46Y46*%
G04 Gerber Fmt 4.6, Leading zero omitted, Abs format (unit mm)*
G04 Created by KiCad (PCBNEW 6.0.2+dfsg-1) date 2023-02-25 17:51:13*
%MOMM*%
%LPD*%
G01*
G04 APERTURE LIST*
G04 Aperture macros list*
%AMRoundRect*
0 Rectangle with rounded corners*
0 $1 Rounding radius*
0 $2 $3 $4 $5 $6 $7 $8 $9 X,Y pos of 4 corners*
0 Add a 4 corners polygon primitive as box body*
4,1,4,$2,$3,$4,$5,$6,$7,$8,$9,$2,$3,0*
0 Add four circle primitives for the rounded corners*
1,1,$1+$1,$2,$3*
1,1,$1+$1,$4,$5*
1,1,$1+$1,$6,$7*
1,1,$1+$1,$8,$9*
0 Add four rect primitives between the rounded corners*
20,1,$1+$1,$2,$3,$4,$5,0*
20,1,$1+$1,$4,$5,$6,$7,0*
20,1,$1+$1,$6,$7,$8,$9,0*
20,1,$1+$1,$8,$9,$2,$3,0*%
G04 Aperture macros list end*
%ADD10C,0.300000*%
%ADD11C,0.150000*%
%ADD12C,0.120000*%
%ADD13C,0.127000*%
%ADD14C,0.200000*%
%ADD15C,0.010000*%
%ADD16C,10.160000*%
%ADD17C,1.600000*%
%ADD18RoundRect,0.200000X0.600000X-0.600000X0.600000X0.600000X-0.600000X0.600000X-0.600000X-0.600000X0*%
%ADD19R,1.700000X1.700000*%
%ADD20O,1.700000X1.700000*%
%ADD21R,2.000000X4.600000*%
%ADD22O,2.000000X4.200000*%
%ADD23O,4.200000X2.000000*%
%ADD24R,5.400000X2.900000*%
%ADD25RoundRect,0.237500X-0.237500X0.300000X-0.237500X-0.300000X0.237500X-0.300000X0.237500X0.300000X0*%
%ADD26R,2.900000X3.000000*%
%ADD27RoundRect,0.150000X-0.150000X0.587500X-0.150000X-0.587500X0.150000X-0.587500X0.150000X0.587500X0*%
%ADD28R,1.100000X1.100000*%
%ADD29R,0.200000X0.300000*%
%ADD30R,0.300000X0.200000*%
%ADD31R,0.470000X1.170000*%
%ADD32R,0.450000X0.790000*%
%ADD33C,2.200000*%
%ADD34RoundRect,0.237500X0.300000X0.237500X-0.300000X0.237500X-0.300000X-0.237500X0.300000X-0.237500X0*%
%ADD35RoundRect,0.237500X0.237500X-0.300000X0.237500X0.300000X-0.237500X0.300000X-0.237500X-0.300000X0*%
%ADD36RoundRect,0.250000X-0.400000X-0.625000X0.400000X-0.625000X0.400000X0.625000X-0.400000X0.625000X0*%
%ADD37RoundRect,0.237500X-0.237500X0.250000X-0.237500X-0.250000X0.237500X-0.250000X0.237500X0.250000X0*%
%ADD38RoundRect,0.237500X-0.250000X-0.237500X0.250000X-0.237500X0.250000X0.237500X-0.250000X0.237500X0*%
%ADD39RoundRect,0.075000X-0.650000X-0.075000X0.650000X-0.075000X0.650000X0.075000X-0.650000X0.075000X0*%
%ADD40RoundRect,0.237500X0.250000X0.237500X-0.250000X0.237500X-0.250000X-0.237500X0.250000X-0.237500X0*%
%ADD41RoundRect,0.250000X-0.700000X1.825000X-0.700000X-1.825000X0.700000X-1.825000X0.700000X1.825000X0*%
%ADD42RoundRect,0.237500X-0.300000X-0.237500X0.300000X-0.237500X0.300000X0.237500X-0.300000X0.237500X0*%
%ADD43RoundRect,0.250000X0.700000X-1.825000X0.700000X1.825000X-0.700000X1.825000X-0.700000X-1.825000X0*%
%ADD44RoundRect,0.250000X0.475000X-0.337500X0.475000X0.337500X-0.475000X0.337500X-0.475000X-0.337500X0*%
%ADD45RoundRect,0.100000X0.637500X0.100000X-0.637500X0.100000X-0.637500X-0.100000X0.637500X-0.100000X0*%
%ADD46RoundRect,0.250000X0.400000X0.625000X-0.400000X0.625000X-0.400000X-0.625000X0.400000X-0.625000X0*%
%ADD47R,4.600000X1.100000*%
%ADD48R,9.400000X10.800000*%
G04 APERTURE END LIST*
D10*
X153562571Y-73385071D02*
X153562571Y-71885071D01*
X152991142Y-71885071D01*
X152848285Y-71956500D01*
X152776857Y-72027928D01*
X152705428Y-72170785D01*
X152705428Y-72385071D01*
X152776857Y-72527928D01*
X152848285Y-72599357D01*
X152991142Y-72670785D01*
X153562571Y-72670785D01*
X152062571Y-73385071D02*
X152062571Y-71885071D01*
X151348285Y-73385071D02*
X151348285Y-71885071D01*
X150491142Y-73385071D01*
X150491142Y-71885071D01*
X149848285Y-72956500D02*
X149134000Y-72956500D01*
X149991142Y-73385071D02*
X149491142Y-71885071D01*
X148991142Y-73385071D01*
X153526857Y-74800071D02*
X153169714Y-75800071D01*
X152812571Y-74800071D01*
X151455428Y-75800071D02*
X152312571Y-75800071D01*
X151884000Y-75800071D02*
X151884000Y-74300071D01*
X152026857Y-74514357D01*
X152169714Y-74657214D01*
X152312571Y-74728642D01*
X150812571Y-75657214D02*
X150741142Y-75728642D01*
X150812571Y-75800071D01*
X150884000Y-75728642D01*
X150812571Y-75657214D01*
X150812571Y-75800071D01*
X149812571Y-74300071D02*
X149669714Y-74300071D01*
X149526857Y-74371500D01*
X149455428Y-74442928D01*
X149384000Y-74585785D01*
X149312571Y-74871500D01*
X149312571Y-75228642D01*
X149384000Y-75514357D01*
X149455428Y-75657214D01*
X149526857Y-75728642D01*
X149669714Y-75800071D01*
X149812571Y-75800071D01*
X149955428Y-75728642D01*
X150026857Y-75657214D01*
X150098285Y-75514357D01*
X150169714Y-75228642D01*
X150169714Y-74871500D01*
X150098285Y-74585785D01*
X150026857Y-74442928D01*
X149955428Y-74371500D01*
X149812571Y-74300071D01*
D11*
X165012666Y-54808380D02*
X165488857Y-54808380D01*
X165488857Y-53808380D01*
X164155523Y-54808380D02*
X164726952Y-54808380D01*
X164441238Y-54808380D02*
X164441238Y-53808380D01*
X164536476Y-53951238D01*
X164631714Y-54046476D01*
X164726952Y-54094095D01*
X230544666Y-69699142D02*
X230592285Y-69746761D01*
X230735142Y-69794380D01*
X230830380Y-69794380D01*
X230973238Y-69746761D01*
X231068476Y-69651523D01*
X231116095Y-69556285D01*
X231163714Y-69365809D01*
X231163714Y-69222952D01*
X231116095Y-69032476D01*
X231068476Y-68937238D01*
X230973238Y-68842000D01*
X230830380Y-68794380D01*
X230735142Y-68794380D01*
X230592285Y-68842000D01*
X230544666Y-68889619D01*
X229687523Y-68794380D02*
X229878000Y-68794380D01*
X229973238Y-68842000D01*
X230020857Y-68889619D01*
X230116095Y-69032476D01*
X230163714Y-69222952D01*
X230163714Y-69603904D01*
X230116095Y-69699142D01*
X230068476Y-69746761D01*
X229973238Y-69794380D01*
X229782761Y-69794380D01*
X229687523Y-69746761D01*
X229639904Y-69699142D01*
X229592285Y-69603904D01*
X229592285Y-69365809D01*
X229639904Y-69270571D01*
X229687523Y-69222952D01*
X229782761Y-69175333D01*
X229973238Y-69175333D01*
X230068476Y-69222952D01*
X230116095Y-69270571D01*
X230163714Y-69365809D01*
X214796666Y-77668380D02*
X215272857Y-77668380D01*
X215272857Y-76668380D01*
X214510952Y-76763619D02*
X214463333Y-76716000D01*
X214368095Y-76668380D01*
X214130000Y-76668380D01*
X214034761Y-76716000D01*
X213987142Y-76763619D01*
X213939523Y-76858857D01*
X213939523Y-76954095D01*
X213987142Y-77096952D01*
X214558571Y-77668380D01*
X213939523Y-77668380D01*
X173577238Y-92749619D02*
X173672476Y-92702000D01*
X173767714Y-92606761D01*
X173910571Y-92463904D01*
X174005809Y-92416285D01*
X174101047Y-92416285D01*
X174053428Y-92654380D02*
X174148666Y-92606761D01*
X174243904Y-92511523D01*
X174291523Y-92321047D01*
X174291523Y-91987714D01*
X174243904Y-91797238D01*
X174148666Y-91702000D01*
X174053428Y-91654380D01*
X173862952Y-91654380D01*
X173767714Y-91702000D01*
X173672476Y-91797238D01*
X173624857Y-91987714D01*
X173624857Y-92321047D01*
X173672476Y-92511523D01*
X173767714Y-92606761D01*
X173862952Y-92654380D01*
X174053428Y-92654380D01*
X172672476Y-92654380D02*
X173243904Y-92654380D01*
X172958190Y-92654380D02*
X172958190Y-91654380D01*
X173053428Y-91797238D01*
X173148666Y-91892476D01*
X173243904Y-91940095D01*
X182602095Y-54808380D02*
X182602095Y-53808380D01*
X182364000Y-53808380D01*
X182221142Y-53856000D01*
X182125904Y-53951238D01*
X182078285Y-54046476D01*
X182030666Y-54236952D01*
X182030666Y-54379809D01*
X182078285Y-54570285D01*
X182125904Y-54665523D01*
X182221142Y-54760761D01*
X182364000Y-54808380D01*
X182602095Y-54808380D01*
X181649714Y-53903619D02*
X181602095Y-53856000D01*
X181506857Y-53808380D01*
X181268761Y-53808380D01*
X181173523Y-53856000D01*
X181125904Y-53903619D01*
X181078285Y-53998857D01*
X181078285Y-54094095D01*
X181125904Y-54236952D01*
X181697333Y-54808380D01*
X181078285Y-54808380D01*
X197357904Y-70064380D02*
X197357904Y-70873904D01*
X197310285Y-70969142D01*
X197262666Y-71016761D01*
X197167428Y-71064380D01*
X196976952Y-71064380D01*
X196881714Y-71016761D01*
X196834095Y-70969142D01*
X196786476Y-70873904D01*
X196786476Y-70064380D01*
X195881714Y-70064380D02*
X196072190Y-70064380D01*
X196167428Y-70112000D01*
X196215047Y-70159619D01*
X196310285Y-70302476D01*
X196357904Y-70492952D01*
X196357904Y-70873904D01*
X196310285Y-70969142D01*
X196262666Y-71016761D01*
X196167428Y-71064380D01*
X195976952Y-71064380D01*
X195881714Y-71016761D01*
X195834095Y-70969142D01*
X195786476Y-70873904D01*
X195786476Y-70635809D01*
X195834095Y-70540571D01*
X195881714Y-70492952D01*
X195976952Y-70445333D01*
X196167428Y-70445333D01*
X196262666Y-70492952D01*
X196310285Y-70540571D01*
X196357904Y-70635809D01*
X174728095Y-98242380D02*
X174728095Y-97242380D01*
X174156666Y-98242380D02*
X174585238Y-97670952D01*
X174156666Y-97242380D02*
X174728095Y-97813809D01*
X173204285Y-98242380D02*
X173775714Y-98242380D01*
X173490000Y-98242380D02*
X173490000Y-97242380D01*
X173585238Y-97385238D01*
X173680476Y-97480476D01*
X173775714Y-97528095D01*
X123031238Y-92749619D02*
X123126476Y-92702000D01*
X123221714Y-92606761D01*
X123364571Y-92463904D01*
X123459809Y-92416285D01*
X123555047Y-92416285D01*
X123507428Y-92654380D02*
X123602666Y-92606761D01*
X123697904Y-92511523D01*
X123745523Y-92321047D01*
X123745523Y-91987714D01*
X123697904Y-91797238D01*
X123602666Y-91702000D01*
X123507428Y-91654380D01*
X123316952Y-91654380D01*
X123221714Y-91702000D01*
X123126476Y-91797238D01*
X123078857Y-91987714D01*
X123078857Y-92321047D01*
X123126476Y-92511523D01*
X123221714Y-92606761D01*
X123316952Y-92654380D01*
X123507428Y-92654380D01*
X122697904Y-91749619D02*
X122650285Y-91702000D01*
X122555047Y-91654380D01*
X122316952Y-91654380D01*
X122221714Y-91702000D01*
X122174095Y-91749619D01*
X122126476Y-91844857D01*
X122126476Y-91940095D01*
X122174095Y-92082952D01*
X122745523Y-92654380D01*
X122126476Y-92654380D01*
X199120357Y-59887142D02*
X199167976Y-59934761D01*
X199310833Y-59982380D01*
X199406071Y-59982380D01*
X199548928Y-59934761D01*
X199644166Y-59839523D01*
X199691785Y-59744285D01*
X199739404Y-59553809D01*
X199739404Y-59410952D01*
X199691785Y-59220476D01*
X199644166Y-59125238D01*
X199548928Y-59030000D01*
X199406071Y-58982380D01*
X199310833Y-58982380D01*
X199167976Y-59030000D01*
X199120357Y-59077619D01*
X198167976Y-59982380D02*
X198739404Y-59982380D01*
X198453690Y-59982380D02*
X198453690Y-58982380D01*
X198548928Y-59125238D01*
X198644166Y-59220476D01*
X198739404Y-59268095D01*
X197691785Y-59982380D02*
X197501309Y-59982380D01*
X197406071Y-59934761D01*
X197358452Y-59887142D01*
X197263214Y-59744285D01*
X197215595Y-59553809D01*
X197215595Y-59172857D01*
X197263214Y-59077619D01*
X197310833Y-59030000D01*
X197406071Y-58982380D01*
X197596547Y-58982380D01*
X197691785Y-59030000D01*
X197739404Y-59077619D01*
X197787023Y-59172857D01*
X197787023Y-59410952D01*
X197739404Y-59506190D01*
X197691785Y-59553809D01*
X197596547Y-59601428D01*
X197406071Y-59601428D01*
X197310833Y-59553809D01*
X197263214Y-59506190D01*
X197215595Y-59410952D01*
X111640857Y-116943142D02*
X111688476Y-116990761D01*
X111831333Y-117038380D01*
X111926571Y-117038380D01*
X112069428Y-116990761D01*
X112164666Y-116895523D01*
X112212285Y-116800285D01*
X112259904Y-116609809D01*
X112259904Y-116466952D01*
X112212285Y-116276476D01*
X112164666Y-116181238D01*
X112069428Y-116086000D01*
X111926571Y-116038380D01*
X111831333Y-116038380D01*
X111688476Y-116086000D01*
X111640857Y-116133619D01*
X111259904Y-116133619D02*
X111212285Y-116086000D01*
X111117047Y-116038380D01*
X110878952Y-116038380D01*
X110783714Y-116086000D01*
X110736095Y-116133619D01*
X110688476Y-116228857D01*
X110688476Y-116324095D01*
X110736095Y-116466952D01*
X111307523Y-117038380D01*
X110688476Y-117038380D01*
X109831333Y-116371714D02*
X109831333Y-117038380D01*
X110069428Y-115990761D02*
X110307523Y-116705047D01*
X109688476Y-116705047D01*
X208160857Y-69699142D02*
X208208476Y-69746761D01*
X208351333Y-69794380D01*
X208446571Y-69794380D01*
X208589428Y-69746761D01*
X208684666Y-69651523D01*
X208732285Y-69556285D01*
X208779904Y-69365809D01*
X208779904Y-69222952D01*
X208732285Y-69032476D01*
X208684666Y-68937238D01*
X208589428Y-68842000D01*
X208446571Y-68794380D01*
X208351333Y-68794380D01*
X208208476Y-68842000D01*
X208160857Y-68889619D01*
X207779904Y-68889619D02*
X207732285Y-68842000D01*
X207637047Y-68794380D01*
X207398952Y-68794380D01*
X207303714Y-68842000D01*
X207256095Y-68889619D01*
X207208476Y-68984857D01*
X207208476Y-69080095D01*
X207256095Y-69222952D01*
X207827523Y-69794380D01*
X207208476Y-69794380D01*
X206303714Y-68794380D02*
X206779904Y-68794380D01*
X206827523Y-69270571D01*
X206779904Y-69222952D01*
X206684666Y-69175333D01*
X206446571Y-69175333D01*
X206351333Y-69222952D01*
X206303714Y-69270571D01*
X206256095Y-69365809D01*
X206256095Y-69603904D01*
X206303714Y-69699142D01*
X206351333Y-69746761D01*
X206446571Y-69794380D01*
X206684666Y-69794380D01*
X206779904Y-69746761D01*
X206827523Y-69699142D01*
X107576857Y-75795142D02*
X107624476Y-75842761D01*
X107767333Y-75890380D01*
X107862571Y-75890380D01*
X108005428Y-75842761D01*
X108100666Y-75747523D01*
X108148285Y-75652285D01*
X108195904Y-75461809D01*
X108195904Y-75318952D01*
X108148285Y-75128476D01*
X108100666Y-75033238D01*
X108005428Y-74938000D01*
X107862571Y-74890380D01*
X107767333Y-74890380D01*
X107624476Y-74938000D01*
X107576857Y-74985619D01*
X106624476Y-75890380D02*
X107195904Y-75890380D01*
X106910190Y-75890380D02*
X106910190Y-74890380D01*
X107005428Y-75033238D01*
X107100666Y-75128476D01*
X107195904Y-75176095D01*
X106005428Y-74890380D02*
X105910190Y-74890380D01*
X105814952Y-74938000D01*
X105767333Y-74985619D01*
X105719714Y-75080857D01*
X105672095Y-75271333D01*
X105672095Y-75509428D01*
X105719714Y-75699904D01*
X105767333Y-75795142D01*
X105814952Y-75842761D01*
X105910190Y-75890380D01*
X106005428Y-75890380D01*
X106100666Y-75842761D01*
X106148285Y-75795142D01*
X106195904Y-75699904D01*
X106243523Y-75509428D01*
X106243523Y-75271333D01*
X106195904Y-75080857D01*
X106148285Y-74985619D01*
X106100666Y-74938000D01*
X106005428Y-74890380D01*
X155328857Y-124912380D02*
X155662190Y-124436190D01*
X155900285Y-124912380D02*
X155900285Y-123912380D01*
X155519333Y-123912380D01*
X155424095Y-123960000D01*
X155376476Y-124007619D01*
X155328857Y-124102857D01*
X155328857Y-124245714D01*
X155376476Y-124340952D01*
X155424095Y-124388571D01*
X155519333Y-124436190D01*
X155900285Y-124436190D01*
X154376476Y-124912380D02*
X154947904Y-124912380D01*
X154662190Y-124912380D02*
X154662190Y-123912380D01*
X154757428Y-124055238D01*
X154852666Y-124150476D01*
X154947904Y-124198095D01*
X153424095Y-124912380D02*
X153995523Y-124912380D01*
X153709809Y-124912380D02*
X153709809Y-123912380D01*
X153805047Y-124055238D01*
X153900285Y-124150476D01*
X153995523Y-124198095D01*
X173902666Y-86812380D02*
X174236000Y-86336190D01*
X174474095Y-86812380D02*
X174474095Y-85812380D01*
X174093142Y-85812380D01*
X173997904Y-85860000D01*
X173950285Y-85907619D01*
X173902666Y-86002857D01*
X173902666Y-86145714D01*
X173950285Y-86240952D01*
X173997904Y-86288571D01*
X174093142Y-86336190D01*
X174474095Y-86336190D01*
X173426476Y-86812380D02*
X173236000Y-86812380D01*
X173140761Y-86764761D01*
X173093142Y-86717142D01*
X172997904Y-86574285D01*
X172950285Y-86383809D01*
X172950285Y-86002857D01*
X172997904Y-85907619D01*
X173045523Y-85860000D01*
X173140761Y-85812380D01*
X173331238Y-85812380D01*
X173426476Y-85860000D01*
X173474095Y-85907619D01*
X173521714Y-86002857D01*
X173521714Y-86240952D01*
X173474095Y-86336190D01*
X173426476Y-86383809D01*
X173331238Y-86431428D01*
X173140761Y-86431428D01*
X173045523Y-86383809D01*
X172997904Y-86336190D01*
X172950285Y-86240952D01*
X115228666Y-49728380D02*
X115562000Y-49252190D01*
X115800095Y-49728380D02*
X115800095Y-48728380D01*
X115419142Y-48728380D01*
X115323904Y-48776000D01*
X115276285Y-48823619D01*
X115228666Y-48918857D01*
X115228666Y-49061714D01*
X115276285Y-49156952D01*
X115323904Y-49204571D01*
X115419142Y-49252190D01*
X115800095Y-49252190D01*
X114323904Y-48728380D02*
X114800095Y-48728380D01*
X114847714Y-49204571D01*
X114800095Y-49156952D01*
X114704857Y-49109333D01*
X114466761Y-49109333D01*
X114371523Y-49156952D01*
X114323904Y-49204571D01*
X114276285Y-49299809D01*
X114276285Y-49537904D01*
X114323904Y-49633142D01*
X114371523Y-49680761D01*
X114466761Y-49728380D01*
X114704857Y-49728380D01*
X114800095Y-49680761D01*
X114847714Y-49633142D01*
X202858666Y-63190380D02*
X203192000Y-62714190D01*
X203430095Y-63190380D02*
X203430095Y-62190380D01*
X203049142Y-62190380D01*
X202953904Y-62238000D01*
X202906285Y-62285619D01*
X202858666Y-62380857D01*
X202858666Y-62523714D01*
X202906285Y-62618952D01*
X202953904Y-62666571D01*
X203049142Y-62714190D01*
X203430095Y-62714190D01*
X202287238Y-62618952D02*
X202382476Y-62571333D01*
X202430095Y-62523714D01*
X202477714Y-62428476D01*
X202477714Y-62380857D01*
X202430095Y-62285619D01*
X202382476Y-62238000D01*
X202287238Y-62190380D01*
X202096761Y-62190380D01*
X202001523Y-62238000D01*
X201953904Y-62285619D01*
X201906285Y-62380857D01*
X201906285Y-62428476D01*
X201953904Y-62523714D01*
X202001523Y-62571333D01*
X202096761Y-62618952D01*
X202287238Y-62618952D01*
X202382476Y-62666571D01*
X202430095Y-62714190D01*
X202477714Y-62809428D01*
X202477714Y-62999904D01*
X202430095Y-63095142D01*
X202382476Y-63142761D01*
X202287238Y-63190380D01*
X202096761Y-63190380D01*
X202001523Y-63142761D01*
X201953904Y-63095142D01*
X201906285Y-62999904D01*
X201906285Y-62809428D01*
X201953904Y-62714190D01*
X202001523Y-62666571D01*
X202096761Y-62618952D01*
X229020666Y-64206380D02*
X229354000Y-63730190D01*
X229592095Y-64206380D02*
X229592095Y-63206380D01*
X229211142Y-63206380D01*
X229115904Y-63254000D01*
X229068285Y-63301619D01*
X229020666Y-63396857D01*
X229020666Y-63539714D01*
X229068285Y-63634952D01*
X229115904Y-63682571D01*
X229211142Y-63730190D01*
X229592095Y-63730190D01*
X228687333Y-63206380D02*
X228020666Y-63206380D01*
X228449238Y-64206380D01*
X157225904Y-116546380D02*
X157225904Y-117355904D01*
X157178285Y-117451142D01*
X157130666Y-117498761D01*
X157035428Y-117546380D01*
X156844952Y-117546380D01*
X156749714Y-117498761D01*
X156702095Y-117451142D01*
X156654476Y-117355904D01*
X156654476Y-116546380D01*
X156273523Y-116546380D02*
X155654476Y-116546380D01*
X155987809Y-116927333D01*
X155844952Y-116927333D01*
X155749714Y-116974952D01*
X155702095Y-117022571D01*
X155654476Y-117117809D01*
X155654476Y-117355904D01*
X155702095Y-117451142D01*
X155749714Y-117498761D01*
X155844952Y-117546380D01*
X156130666Y-117546380D01*
X156225904Y-117498761D01*
X156273523Y-117451142D01*
X203080857Y-47093142D02*
X203128476Y-47140761D01*
X203271333Y-47188380D01*
X203366571Y-47188380D01*
X203509428Y-47140761D01*
X203604666Y-47045523D01*
X203652285Y-46950285D01*
X203699904Y-46759809D01*
X203699904Y-46616952D01*
X203652285Y-46426476D01*
X203604666Y-46331238D01*
X203509428Y-46236000D01*
X203366571Y-46188380D01*
X203271333Y-46188380D01*
X203128476Y-46236000D01*
X203080857Y-46283619D01*
X202699904Y-46283619D02*
X202652285Y-46236000D01*
X202557047Y-46188380D01*
X202318952Y-46188380D01*
X202223714Y-46236000D01*
X202176095Y-46283619D01*
X202128476Y-46378857D01*
X202128476Y-46474095D01*
X202176095Y-46616952D01*
X202747523Y-47188380D01*
X202128476Y-47188380D01*
X201747523Y-46283619D02*
X201699904Y-46236000D01*
X201604666Y-46188380D01*
X201366571Y-46188380D01*
X201271333Y-46236000D01*
X201223714Y-46283619D01*
X201176095Y-46378857D01*
X201176095Y-46474095D01*
X201223714Y-46616952D01*
X201795142Y-47188380D01*
X201176095Y-47188380D01*
X95924666Y-118054380D02*
X96258000Y-117578190D01*
X96496095Y-118054380D02*
X96496095Y-117054380D01*
X96115142Y-117054380D01*
X96019904Y-117102000D01*
X95972285Y-117149619D01*
X95924666Y-117244857D01*
X95924666Y-117387714D01*
X95972285Y-117482952D01*
X96019904Y-117530571D01*
X96115142Y-117578190D01*
X96496095Y-117578190D01*
X95543714Y-117149619D02*
X95496095Y-117102000D01*
X95400857Y-117054380D01*
X95162761Y-117054380D01*
X95067523Y-117102000D01*
X95019904Y-117149619D01*
X94972285Y-117244857D01*
X94972285Y-117340095D01*
X95019904Y-117482952D01*
X95591333Y-118054380D01*
X94972285Y-118054380D01*
X174124857Y-89606380D02*
X174458190Y-89130190D01*
X174696285Y-89606380D02*
X174696285Y-88606380D01*
X174315333Y-88606380D01*
X174220095Y-88654000D01*
X174172476Y-88701619D01*
X174124857Y-88796857D01*
X174124857Y-88939714D01*
X174172476Y-89034952D01*
X174220095Y-89082571D01*
X174315333Y-89130190D01*
X174696285Y-89130190D01*
X173172476Y-89606380D02*
X173743904Y-89606380D01*
X173458190Y-89606380D02*
X173458190Y-88606380D01*
X173553428Y-88749238D01*
X173648666Y-88844476D01*
X173743904Y-88892095D01*
X172553428Y-88606380D02*
X172458190Y-88606380D01*
X172362952Y-88654000D01*
X172315333Y-88701619D01*
X172267714Y-88796857D01*
X172220095Y-88987333D01*
X172220095Y-89225428D01*
X172267714Y-89415904D01*
X172315333Y-89511142D01*
X172362952Y-89558761D01*
X172458190Y-89606380D01*
X172553428Y-89606380D01*
X172648666Y-89558761D01*
X172696285Y-89511142D01*
X172743904Y-89415904D01*
X172791523Y-89225428D01*
X172791523Y-88987333D01*
X172743904Y-88796857D01*
X172696285Y-88701619D01*
X172648666Y-88654000D01*
X172553428Y-88606380D01*
X102496857Y-48363142D02*
X102544476Y-48410761D01*
X102687333Y-48458380D01*
X102782571Y-48458380D01*
X102925428Y-48410761D01*
X103020666Y-48315523D01*
X103068285Y-48220285D01*
X103115904Y-48029809D01*
X103115904Y-47886952D01*
X103068285Y-47696476D01*
X103020666Y-47601238D01*
X102925428Y-47506000D01*
X102782571Y-47458380D01*
X102687333Y-47458380D01*
X102544476Y-47506000D01*
X102496857Y-47553619D01*
X101544476Y-48458380D02*
X102115904Y-48458380D01*
X101830190Y-48458380D02*
X101830190Y-47458380D01*
X101925428Y-47601238D01*
X102020666Y-47696476D01*
X102115904Y-47744095D01*
X100592095Y-48458380D02*
X101163523Y-48458380D01*
X100877809Y-48458380D02*
X100877809Y-47458380D01*
X100973047Y-47601238D01*
X101068285Y-47696476D01*
X101163523Y-47744095D01*
X189904666Y-77414380D02*
X190380857Y-77414380D01*
X190380857Y-76414380D01*
X189666571Y-76414380D02*
X189047523Y-76414380D01*
X189380857Y-76795333D01*
X189238000Y-76795333D01*
X189142761Y-76842952D01*
X189095142Y-76890571D01*
X189047523Y-76985809D01*
X189047523Y-77223904D01*
X189095142Y-77319142D01*
X189142761Y-77366761D01*
X189238000Y-77414380D01*
X189523714Y-77414380D01*
X189618952Y-77366761D01*
X189666571Y-77319142D01*
X144248095Y-44394380D02*
X144248095Y-43394380D01*
X144010000Y-43394380D01*
X143867142Y-43442000D01*
X143771904Y-43537238D01*
X143724285Y-43632476D01*
X143676666Y-43822952D01*
X143676666Y-43965809D01*
X143724285Y-44156285D01*
X143771904Y-44251523D01*
X143867142Y-44346761D01*
X144010000Y-44394380D01*
X144248095Y-44394380D01*
X142724285Y-44394380D02*
X143295714Y-44394380D01*
X143010000Y-44394380D02*
X143010000Y-43394380D01*
X143105238Y-43537238D01*
X143200476Y-43632476D01*
X143295714Y-43680095D01*
X153582666Y-45823142D02*
X153630285Y-45870761D01*
X153773142Y-45918380D01*
X153868380Y-45918380D01*
X154011238Y-45870761D01*
X154106476Y-45775523D01*
X154154095Y-45680285D01*
X154201714Y-45489809D01*
X154201714Y-45346952D01*
X154154095Y-45156476D01*
X154106476Y-45061238D01*
X154011238Y-44966000D01*
X153868380Y-44918380D01*
X153773142Y-44918380D01*
X153630285Y-44966000D01*
X153582666Y-45013619D01*
X153011238Y-45346952D02*
X153106476Y-45299333D01*
X153154095Y-45251714D01*
X153201714Y-45156476D01*
X153201714Y-45108857D01*
X153154095Y-45013619D01*
X153106476Y-44966000D01*
X153011238Y-44918380D01*
X152820761Y-44918380D01*
X152725523Y-44966000D01*
X152677904Y-45013619D01*
X152630285Y-45108857D01*
X152630285Y-45156476D01*
X152677904Y-45251714D01*
X152725523Y-45299333D01*
X152820761Y-45346952D01*
X153011238Y-45346952D01*
X153106476Y-45394571D01*
X153154095Y-45442190D01*
X153201714Y-45537428D01*
X153201714Y-45727904D01*
X153154095Y-45823142D01*
X153106476Y-45870761D01*
X153011238Y-45918380D01*
X152820761Y-45918380D01*
X152725523Y-45870761D01*
X152677904Y-45823142D01*
X152630285Y-45727904D01*
X152630285Y-45537428D01*
X152677904Y-45442190D01*
X152725523Y-45394571D01*
X152820761Y-45346952D01*
X160948666Y-116943142D02*
X160996285Y-116990761D01*
X161139142Y-117038380D01*
X161234380Y-117038380D01*
X161377238Y-116990761D01*
X161472476Y-116895523D01*
X161520095Y-116800285D01*
X161567714Y-116609809D01*
X161567714Y-116466952D01*
X161520095Y-116276476D01*
X161472476Y-116181238D01*
X161377238Y-116086000D01*
X161234380Y-116038380D01*
X161139142Y-116038380D01*
X160996285Y-116086000D01*
X160948666Y-116133619D01*
X160043904Y-116038380D02*
X160520095Y-116038380D01*
X160567714Y-116514571D01*
X160520095Y-116466952D01*
X160424857Y-116419333D01*
X160186761Y-116419333D01*
X160091523Y-116466952D01*
X160043904Y-116514571D01*
X159996285Y-116609809D01*
X159996285Y-116847904D01*
X160043904Y-116943142D01*
X160091523Y-116990761D01*
X160186761Y-117038380D01*
X160424857Y-117038380D01*
X160520095Y-116990761D01*
X160567714Y-116943142D01*
X203874666Y-72907142D02*
X203922285Y-72954761D01*
X204065142Y-73002380D01*
X204160380Y-73002380D01*
X204303238Y-72954761D01*
X204398476Y-72859523D01*
X204446095Y-72764285D01*
X204493714Y-72573809D01*
X204493714Y-72430952D01*
X204446095Y-72240476D01*
X204398476Y-72145238D01*
X204303238Y-72050000D01*
X204160380Y-72002380D01*
X204065142Y-72002380D01*
X203922285Y-72050000D01*
X203874666Y-72097619D01*
X202922285Y-73002380D02*
X203493714Y-73002380D01*
X203208000Y-73002380D02*
X203208000Y-72002380D01*
X203303238Y-72145238D01*
X203398476Y-72240476D01*
X203493714Y-72288095D01*
X183999095Y-90241380D02*
X183999095Y-89241380D01*
X183761000Y-89241380D01*
X183618142Y-89289000D01*
X183522904Y-89384238D01*
X183475285Y-89479476D01*
X183427666Y-89669952D01*
X183427666Y-89812809D01*
X183475285Y-90003285D01*
X183522904Y-90098523D01*
X183618142Y-90193761D01*
X183761000Y-90241380D01*
X183999095Y-90241380D01*
X183094333Y-89241380D02*
X182475285Y-89241380D01*
X182808619Y-89622333D01*
X182665761Y-89622333D01*
X182570523Y-89669952D01*
X182522904Y-89717571D01*
X182475285Y-89812809D01*
X182475285Y-90050904D01*
X182522904Y-90146142D01*
X182570523Y-90193761D01*
X182665761Y-90241380D01*
X182951476Y-90241380D01*
X183046714Y-90193761D01*
X183094333Y-90146142D01*
X106679904Y-116546380D02*
X106679904Y-117355904D01*
X106632285Y-117451142D01*
X106584666Y-117498761D01*
X106489428Y-117546380D01*
X106298952Y-117546380D01*
X106203714Y-117498761D01*
X106156095Y-117451142D01*
X106108476Y-117355904D01*
X106108476Y-116546380D01*
X105203714Y-116879714D02*
X105203714Y-117546380D01*
X105441809Y-116498761D02*
X105679904Y-117213047D01*
X105060857Y-117213047D01*
X207398857Y-64459142D02*
X207446476Y-64506761D01*
X207589333Y-64554380D01*
X207684571Y-64554380D01*
X207827428Y-64506761D01*
X207922666Y-64411523D01*
X207970285Y-64316285D01*
X208017904Y-64125809D01*
X208017904Y-63982952D01*
X207970285Y-63792476D01*
X207922666Y-63697238D01*
X207827428Y-63602000D01*
X207684571Y-63554380D01*
X207589333Y-63554380D01*
X207446476Y-63602000D01*
X207398857Y-63649619D01*
X207017904Y-63649619D02*
X206970285Y-63602000D01*
X206875047Y-63554380D01*
X206636952Y-63554380D01*
X206541714Y-63602000D01*
X206494095Y-63649619D01*
X206446476Y-63744857D01*
X206446476Y-63840095D01*
X206494095Y-63982952D01*
X207065523Y-64554380D01*
X206446476Y-64554380D01*
X205494095Y-64554380D02*
X206065523Y-64554380D01*
X205779809Y-64554380D02*
X205779809Y-63554380D01*
X205875047Y-63697238D01*
X205970285Y-63792476D01*
X206065523Y-63840095D01*
X90336666Y-48363142D02*
X90384285Y-48410761D01*
X90527142Y-48458380D01*
X90622380Y-48458380D01*
X90765238Y-48410761D01*
X90860476Y-48315523D01*
X90908095Y-48220285D01*
X90955714Y-48029809D01*
X90955714Y-47886952D01*
X90908095Y-47696476D01*
X90860476Y-47601238D01*
X90765238Y-47506000D01*
X90622380Y-47458380D01*
X90527142Y-47458380D01*
X90384285Y-47506000D01*
X90336666Y-47553619D01*
X90003333Y-47458380D02*
X89336666Y-47458380D01*
X89765238Y-48458380D01*
X206668666Y-54713142D02*
X206716285Y-54760761D01*
X206859142Y-54808380D01*
X206954380Y-54808380D01*
X207097238Y-54760761D01*
X207192476Y-54665523D01*
X207240095Y-54570285D01*
X207287714Y-54379809D01*
X207287714Y-54236952D01*
X207240095Y-54046476D01*
X207192476Y-53951238D01*
X207097238Y-53856000D01*
X206954380Y-53808380D01*
X206859142Y-53808380D01*
X206716285Y-53856000D01*
X206668666Y-53903619D01*
X206287714Y-53903619D02*
X206240095Y-53856000D01*
X206144857Y-53808380D01*
X205906761Y-53808380D01*
X205811523Y-53856000D01*
X205763904Y-53903619D01*
X205716285Y-53998857D01*
X205716285Y-54094095D01*
X205763904Y-54236952D01*
X206335333Y-54808380D01*
X205716285Y-54808380D01*
X219590857Y-64111142D02*
X219638476Y-64158761D01*
X219781333Y-64206380D01*
X219876571Y-64206380D01*
X220019428Y-64158761D01*
X220114666Y-64063523D01*
X220162285Y-63968285D01*
X220209904Y-63777809D01*
X220209904Y-63634952D01*
X220162285Y-63444476D01*
X220114666Y-63349238D01*
X220019428Y-63254000D01*
X219876571Y-63206380D01*
X219781333Y-63206380D01*
X219638476Y-63254000D01*
X219590857Y-63301619D01*
X218638476Y-64206380D02*
X219209904Y-64206380D01*
X218924190Y-64206380D02*
X218924190Y-63206380D01*
X219019428Y-63349238D01*
X219114666Y-63444476D01*
X219209904Y-63492095D01*
X217781333Y-63206380D02*
X217971809Y-63206380D01*
X218067047Y-63254000D01*
X218114666Y-63301619D01*
X218209904Y-63444476D01*
X218257523Y-63634952D01*
X218257523Y-64015904D01*
X218209904Y-64111142D01*
X218162285Y-64158761D01*
X218067047Y-64206380D01*
X217876571Y-64206380D01*
X217781333Y-64158761D01*
X217733714Y-64111142D01*
X217686095Y-64015904D01*
X217686095Y-63777809D01*
X217733714Y-63682571D01*
X217781333Y-63634952D01*
X217876571Y-63587333D01*
X218067047Y-63587333D01*
X218162285Y-63634952D01*
X218209904Y-63682571D01*
X218257523Y-63777809D01*
X107608666Y-49728380D02*
X107942000Y-49252190D01*
X108180095Y-49728380D02*
X108180095Y-48728380D01*
X107799142Y-48728380D01*
X107703904Y-48776000D01*
X107656285Y-48823619D01*
X107608666Y-48918857D01*
X107608666Y-49061714D01*
X107656285Y-49156952D01*
X107703904Y-49204571D01*
X107799142Y-49252190D01*
X108180095Y-49252190D01*
X106751523Y-48728380D02*
X106942000Y-48728380D01*
X107037238Y-48776000D01*
X107084857Y-48823619D01*
X107180095Y-48966476D01*
X107227714Y-49156952D01*
X107227714Y-49537904D01*
X107180095Y-49633142D01*
X107132476Y-49680761D01*
X107037238Y-49728380D01*
X106846761Y-49728380D01*
X106751523Y-49680761D01*
X106703904Y-49633142D01*
X106656285Y-49537904D01*
X106656285Y-49299809D01*
X106703904Y-49204571D01*
X106751523Y-49156952D01*
X106846761Y-49109333D01*
X107037238Y-49109333D01*
X107132476Y-49156952D01*
X107180095Y-49204571D01*
X107227714Y-49299809D01*
X201779142Y-68191142D02*
X201826761Y-68143523D01*
X201874380Y-68000666D01*
X201874380Y-67905428D01*
X201826761Y-67762571D01*
X201731523Y-67667333D01*
X201636285Y-67619714D01*
X201445809Y-67572095D01*
X201302952Y-67572095D01*
X201112476Y-67619714D01*
X201017238Y-67667333D01*
X200922000Y-67762571D01*
X200874380Y-67905428D01*
X200874380Y-68000666D01*
X200922000Y-68143523D01*
X200969619Y-68191142D01*
X201874380Y-69143523D02*
X201874380Y-68572095D01*
X201874380Y-68857809D02*
X200874380Y-68857809D01*
X201017238Y-68762571D01*
X201112476Y-68667333D01*
X201160095Y-68572095D01*
X200874380Y-70048285D02*
X200874380Y-69572095D01*
X201350571Y-69524476D01*
X201302952Y-69572095D01*
X201255333Y-69667333D01*
X201255333Y-69905428D01*
X201302952Y-70000666D01*
X201350571Y-70048285D01*
X201445809Y-70095904D01*
X201683904Y-70095904D01*
X201779142Y-70048285D01*
X201826761Y-70000666D01*
X201874380Y-69905428D01*
X201874380Y-69667333D01*
X201826761Y-69572095D01*
X201779142Y-69524476D01*
X231528857Y-65889142D02*
X231576476Y-65936761D01*
X231719333Y-65984380D01*
X231814571Y-65984380D01*
X231957428Y-65936761D01*
X232052666Y-65841523D01*
X232100285Y-65746285D01*
X232147904Y-65555809D01*
X232147904Y-65412952D01*
X232100285Y-65222476D01*
X232052666Y-65127238D01*
X231957428Y-65032000D01*
X231814571Y-64984380D01*
X231719333Y-64984380D01*
X231576476Y-65032000D01*
X231528857Y-65079619D01*
X231147904Y-65079619D02*
X231100285Y-65032000D01*
X231005047Y-64984380D01*
X230766952Y-64984380D01*
X230671714Y-65032000D01*
X230624095Y-65079619D01*
X230576476Y-65174857D01*
X230576476Y-65270095D01*
X230624095Y-65412952D01*
X231195523Y-65984380D01*
X230576476Y-65984380D01*
X229957428Y-64984380D02*
X229862190Y-64984380D01*
X229766952Y-65032000D01*
X229719333Y-65079619D01*
X229671714Y-65174857D01*
X229624095Y-65365333D01*
X229624095Y-65603428D01*
X229671714Y-65793904D01*
X229719333Y-65889142D01*
X229766952Y-65936761D01*
X229862190Y-65984380D01*
X229957428Y-65984380D01*
X230052666Y-65936761D01*
X230100285Y-65889142D01*
X230147904Y-65793904D01*
X230195523Y-65603428D01*
X230195523Y-65365333D01*
X230147904Y-65174857D01*
X230100285Y-65079619D01*
X230052666Y-65032000D01*
X229957428Y-64984380D01*
X102361904Y-86320380D02*
X102361904Y-87129904D01*
X102314285Y-87225142D01*
X102266666Y-87272761D01*
X102171428Y-87320380D01*
X101980952Y-87320380D01*
X101885714Y-87272761D01*
X101838095Y-87225142D01*
X101790476Y-87129904D01*
X101790476Y-86320380D01*
X100790476Y-87320380D02*
X101361904Y-87320380D01*
X101076190Y-87320380D02*
X101076190Y-86320380D01*
X101171428Y-86463238D01*
X101266666Y-86558476D01*
X101361904Y-86606095D01*
X181776666Y-43791142D02*
X181824285Y-43838761D01*
X181967142Y-43886380D01*
X182062380Y-43886380D01*
X182205238Y-43838761D01*
X182300476Y-43743523D01*
X182348095Y-43648285D01*
X182395714Y-43457809D01*
X182395714Y-43314952D01*
X182348095Y-43124476D01*
X182300476Y-43029238D01*
X182205238Y-42934000D01*
X182062380Y-42886380D01*
X181967142Y-42886380D01*
X181824285Y-42934000D01*
X181776666Y-42981619D01*
X181300476Y-43886380D02*
X181110000Y-43886380D01*
X181014761Y-43838761D01*
X180967142Y-43791142D01*
X180871904Y-43648285D01*
X180824285Y-43457809D01*
X180824285Y-43076857D01*
X180871904Y-42981619D01*
X180919523Y-42934000D01*
X181014761Y-42886380D01*
X181205238Y-42886380D01*
X181300476Y-42934000D01*
X181348095Y-42981619D01*
X181395714Y-43076857D01*
X181395714Y-43314952D01*
X181348095Y-43410190D01*
X181300476Y-43457809D01*
X181205238Y-43505428D01*
X181014761Y-43505428D01*
X180919523Y-43457809D01*
X180871904Y-43410190D01*
X180824285Y-43314952D01*
X155360666Y-128976380D02*
X155694000Y-128500190D01*
X155932095Y-128976380D02*
X155932095Y-127976380D01*
X155551142Y-127976380D01*
X155455904Y-128024000D01*
X155408285Y-128071619D01*
X155360666Y-128166857D01*
X155360666Y-128309714D01*
X155408285Y-128404952D01*
X155455904Y-128452571D01*
X155551142Y-128500190D01*
X155932095Y-128500190D01*
X155027333Y-127976380D02*
X154408285Y-127976380D01*
X154741619Y-128357333D01*
X154598761Y-128357333D01*
X154503523Y-128404952D01*
X154455904Y-128452571D01*
X154408285Y-128547809D01*
X154408285Y-128785904D01*
X154455904Y-128881142D01*
X154503523Y-128928761D01*
X154598761Y-128976380D01*
X154884476Y-128976380D01*
X154979714Y-128928761D01*
X155027333Y-128881142D01*
X95924666Y-120848380D02*
X96258000Y-120372190D01*
X96496095Y-120848380D02*
X96496095Y-119848380D01*
X96115142Y-119848380D01*
X96019904Y-119896000D01*
X95972285Y-119943619D01*
X95924666Y-120038857D01*
X95924666Y-120181714D01*
X95972285Y-120276952D01*
X96019904Y-120324571D01*
X96115142Y-120372190D01*
X96496095Y-120372190D01*
X94972285Y-120848380D02*
X95543714Y-120848380D01*
X95258000Y-120848380D02*
X95258000Y-119848380D01*
X95353238Y-119991238D01*
X95448476Y-120086476D01*
X95543714Y-120134095D01*
X193745142Y-68799642D02*
X193792761Y-68752023D01*
X193840380Y-68609166D01*
X193840380Y-68513928D01*
X193792761Y-68371071D01*
X193697523Y-68275833D01*
X193602285Y-68228214D01*
X193411809Y-68180595D01*
X193268952Y-68180595D01*
X193078476Y-68228214D01*
X192983238Y-68275833D01*
X192888000Y-68371071D01*
X192840380Y-68513928D01*
X192840380Y-68609166D01*
X192888000Y-68752023D01*
X192935619Y-68799642D01*
X193840380Y-69752023D02*
X193840380Y-69180595D01*
X193840380Y-69466309D02*
X192840380Y-69466309D01*
X192983238Y-69371071D01*
X193078476Y-69275833D01*
X193126095Y-69180595D01*
X192840380Y-70085357D02*
X192840380Y-70704404D01*
X193221333Y-70371071D01*
X193221333Y-70513928D01*
X193268952Y-70609166D01*
X193316571Y-70656785D01*
X193411809Y-70704404D01*
X193649904Y-70704404D01*
X193745142Y-70656785D01*
X193792761Y-70609166D01*
X193840380Y-70513928D01*
X193840380Y-70228214D01*
X193792761Y-70132976D01*
X193745142Y-70085357D01*
X126626857Y-88176380D02*
X126960190Y-87700190D01*
X127198285Y-88176380D02*
X127198285Y-87176380D01*
X126817333Y-87176380D01*
X126722095Y-87224000D01*
X126674476Y-87271619D01*
X126626857Y-87366857D01*
X126626857Y-87509714D01*
X126674476Y-87604952D01*
X126722095Y-87652571D01*
X126817333Y-87700190D01*
X127198285Y-87700190D01*
X125674476Y-88176380D02*
X126245904Y-88176380D01*
X125960190Y-88176380D02*
X125960190Y-87176380D01*
X126055428Y-87319238D01*
X126150666Y-87414476D01*
X126245904Y-87462095D01*
X125341142Y-87176380D02*
X124722095Y-87176380D01*
X125055428Y-87557333D01*
X124912571Y-87557333D01*
X124817333Y-87604952D01*
X124769714Y-87652571D01*
X124722095Y-87747809D01*
X124722095Y-87985904D01*
X124769714Y-88081142D01*
X124817333Y-88128761D01*
X124912571Y-88176380D01*
X125198285Y-88176380D01*
X125293523Y-88128761D01*
X125341142Y-88081142D01*
X104560666Y-130246380D02*
X104894000Y-129770190D01*
X105132095Y-130246380D02*
X105132095Y-129246380D01*
X104751142Y-129246380D01*
X104655904Y-129294000D01*
X104608285Y-129341619D01*
X104560666Y-129436857D01*
X104560666Y-129579714D01*
X104608285Y-129674952D01*
X104655904Y-129722571D01*
X104751142Y-129770190D01*
X105132095Y-129770190D01*
X103703523Y-129579714D02*
X103703523Y-130246380D01*
X103941619Y-129198761D02*
X104179714Y-129913047D01*
X103560666Y-129913047D01*
X119514857Y-89606380D02*
X119848190Y-89130190D01*
X120086285Y-89606380D02*
X120086285Y-88606380D01*
X119705333Y-88606380D01*
X119610095Y-88654000D01*
X119562476Y-88701619D01*
X119514857Y-88796857D01*
X119514857Y-88939714D01*
X119562476Y-89034952D01*
X119610095Y-89082571D01*
X119705333Y-89130190D01*
X120086285Y-89130190D01*
X118562476Y-89606380D02*
X119133904Y-89606380D01*
X118848190Y-89606380D02*
X118848190Y-88606380D01*
X118943428Y-88749238D01*
X119038666Y-88844476D01*
X119133904Y-88892095D01*
X118181523Y-88701619D02*
X118133904Y-88654000D01*
X118038666Y-88606380D01*
X117800571Y-88606380D01*
X117705333Y-88654000D01*
X117657714Y-88701619D01*
X117610095Y-88796857D01*
X117610095Y-88892095D01*
X117657714Y-89034952D01*
X118229142Y-89606380D01*
X117610095Y-89606380D01*
X96686666Y-74017142D02*
X96734285Y-74064761D01*
X96877142Y-74112380D01*
X96972380Y-74112380D01*
X97115238Y-74064761D01*
X97210476Y-73969523D01*
X97258095Y-73874285D01*
X97305714Y-73683809D01*
X97305714Y-73540952D01*
X97258095Y-73350476D01*
X97210476Y-73255238D01*
X97115238Y-73160000D01*
X96972380Y-73112380D01*
X96877142Y-73112380D01*
X96734285Y-73160000D01*
X96686666Y-73207619D01*
X95829523Y-73445714D02*
X95829523Y-74112380D01*
X96067619Y-73064761D02*
X96305714Y-73779047D01*
X95686666Y-73779047D01*
X104782857Y-126436380D02*
X105116190Y-125960190D01*
X105354285Y-126436380D02*
X105354285Y-125436380D01*
X104973333Y-125436380D01*
X104878095Y-125484000D01*
X104830476Y-125531619D01*
X104782857Y-125626857D01*
X104782857Y-125769714D01*
X104830476Y-125864952D01*
X104878095Y-125912571D01*
X104973333Y-125960190D01*
X105354285Y-125960190D01*
X103830476Y-126436380D02*
X104401904Y-126436380D01*
X104116190Y-126436380D02*
X104116190Y-125436380D01*
X104211428Y-125579238D01*
X104306666Y-125674476D01*
X104401904Y-125722095D01*
X102973333Y-125769714D02*
X102973333Y-126436380D01*
X103211428Y-125388761D02*
X103449523Y-126103047D01*
X102830476Y-126103047D01*
X230258857Y-73763142D02*
X230306476Y-73810761D01*
X230449333Y-73858380D01*
X230544571Y-73858380D01*
X230687428Y-73810761D01*
X230782666Y-73715523D01*
X230830285Y-73620285D01*
X230877904Y-73429809D01*
X230877904Y-73286952D01*
X230830285Y-73096476D01*
X230782666Y-73001238D01*
X230687428Y-72906000D01*
X230544571Y-72858380D01*
X230449333Y-72858380D01*
X230306476Y-72906000D01*
X230258857Y-72953619D01*
X229877904Y-72953619D02*
X229830285Y-72906000D01*
X229735047Y-72858380D01*
X229496952Y-72858380D01*
X229401714Y-72906000D01*
X229354095Y-72953619D01*
X229306476Y-73048857D01*
X229306476Y-73144095D01*
X229354095Y-73286952D01*
X229925523Y-73858380D01*
X229306476Y-73858380D01*
X228973142Y-72858380D02*
X228354095Y-72858380D01*
X228687428Y-73239333D01*
X228544571Y-73239333D01*
X228449333Y-73286952D01*
X228401714Y-73334571D01*
X228354095Y-73429809D01*
X228354095Y-73667904D01*
X228401714Y-73763142D01*
X228449333Y-73810761D01*
X228544571Y-73858380D01*
X228830285Y-73858380D01*
X228925523Y-73810761D01*
X228973142Y-73763142D01*
X123928095Y-97226380D02*
X123928095Y-96226380D01*
X123356666Y-97226380D02*
X123785238Y-96654952D01*
X123356666Y-96226380D02*
X123928095Y-96797809D01*
X122975714Y-96321619D02*
X122928095Y-96274000D01*
X122832857Y-96226380D01*
X122594761Y-96226380D01*
X122499523Y-96274000D01*
X122451904Y-96321619D01*
X122404285Y-96416857D01*
X122404285Y-96512095D01*
X122451904Y-96654952D01*
X123023333Y-97226380D01*
X122404285Y-97226380D01*
X220725904Y-70064380D02*
X220725904Y-70873904D01*
X220678285Y-70969142D01*
X220630666Y-71016761D01*
X220535428Y-71064380D01*
X220344952Y-71064380D01*
X220249714Y-71016761D01*
X220202095Y-70969142D01*
X220154476Y-70873904D01*
X220154476Y-70064380D01*
X219202095Y-70064380D02*
X219678285Y-70064380D01*
X219725904Y-70540571D01*
X219678285Y-70492952D01*
X219583047Y-70445333D01*
X219344952Y-70445333D01*
X219249714Y-70492952D01*
X219202095Y-70540571D01*
X219154476Y-70635809D01*
X219154476Y-70873904D01*
X219202095Y-70969142D01*
X219249714Y-71016761D01*
X219344952Y-71064380D01*
X219583047Y-71064380D01*
X219678285Y-71016761D01*
X219725904Y-70969142D01*
X224438357Y-61157142D02*
X224485976Y-61204761D01*
X224628833Y-61252380D01*
X224724071Y-61252380D01*
X224866928Y-61204761D01*
X224962166Y-61109523D01*
X225009785Y-61014285D01*
X225057404Y-60823809D01*
X225057404Y-60680952D01*
X225009785Y-60490476D01*
X224962166Y-60395238D01*
X224866928Y-60300000D01*
X224724071Y-60252380D01*
X224628833Y-60252380D01*
X224485976Y-60300000D01*
X224438357Y-60347619D01*
X223485976Y-61252380D02*
X224057404Y-61252380D01*
X223771690Y-61252380D02*
X223771690Y-60252380D01*
X223866928Y-60395238D01*
X223962166Y-60490476D01*
X224057404Y-60538095D01*
X222914547Y-60680952D02*
X223009785Y-60633333D01*
X223057404Y-60585714D01*
X223105023Y-60490476D01*
X223105023Y-60442857D01*
X223057404Y-60347619D01*
X223009785Y-60300000D01*
X222914547Y-60252380D01*
X222724071Y-60252380D01*
X222628833Y-60300000D01*
X222581214Y-60347619D01*
X222533595Y-60442857D01*
X222533595Y-60490476D01*
X222581214Y-60585714D01*
X222628833Y-60633333D01*
X222724071Y-60680952D01*
X222914547Y-60680952D01*
X223009785Y-60728571D01*
X223057404Y-60776190D01*
X223105023Y-60871428D01*
X223105023Y-61061904D01*
X223057404Y-61157142D01*
X223009785Y-61204761D01*
X222914547Y-61252380D01*
X222724071Y-61252380D01*
X222628833Y-61204761D01*
X222581214Y-61157142D01*
X222533595Y-61061904D01*
X222533595Y-60871428D01*
X222581214Y-60776190D01*
X222628833Y-60728571D01*
X222724071Y-60680952D01*
X136882095Y-91892380D02*
X136882095Y-90892380D01*
X136644000Y-90892380D01*
X136501142Y-90940000D01*
X136405904Y-91035238D01*
X136358285Y-91130476D01*
X136310666Y-91320952D01*
X136310666Y-91463809D01*
X136358285Y-91654285D01*
X136405904Y-91749523D01*
X136501142Y-91844761D01*
X136644000Y-91892380D01*
X136882095Y-91892380D01*
X135453523Y-91225714D02*
X135453523Y-91892380D01*
X135691619Y-90844761D02*
X135929714Y-91559047D01*
X135310666Y-91559047D01*
X196595904Y-41362380D02*
X196595904Y-42171904D01*
X196548285Y-42267142D01*
X196500666Y-42314761D01*
X196405428Y-42362380D01*
X196214952Y-42362380D01*
X196119714Y-42314761D01*
X196072095Y-42267142D01*
X196024476Y-42171904D01*
X196024476Y-41362380D01*
X195595904Y-41457619D02*
X195548285Y-41410000D01*
X195453047Y-41362380D01*
X195214952Y-41362380D01*
X195119714Y-41410000D01*
X195072095Y-41457619D01*
X195024476Y-41552857D01*
X195024476Y-41648095D01*
X195072095Y-41790952D01*
X195643523Y-42362380D01*
X195024476Y-42362380D01*
X216880642Y-67937142D02*
X216928261Y-67889523D01*
X216975880Y-67746666D01*
X216975880Y-67651428D01*
X216928261Y-67508571D01*
X216833023Y-67413333D01*
X216737785Y-67365714D01*
X216547309Y-67318095D01*
X216404452Y-67318095D01*
X216213976Y-67365714D01*
X216118738Y-67413333D01*
X216023500Y-67508571D01*
X215975880Y-67651428D01*
X215975880Y-67746666D01*
X216023500Y-67889523D01*
X216071119Y-67937142D01*
X216975880Y-68889523D02*
X216975880Y-68318095D01*
X216975880Y-68603809D02*
X215975880Y-68603809D01*
X216118738Y-68508571D01*
X216213976Y-68413333D01*
X216261595Y-68318095D01*
X216071119Y-69270476D02*
X216023500Y-69318095D01*
X215975880Y-69413333D01*
X215975880Y-69651428D01*
X216023500Y-69746666D01*
X216071119Y-69794285D01*
X216166357Y-69841904D01*
X216261595Y-69841904D01*
X216404452Y-69794285D01*
X216975880Y-69222857D01*
X216975880Y-69841904D01*
X96686666Y-75795142D02*
X96734285Y-75842761D01*
X96877142Y-75890380D01*
X96972380Y-75890380D01*
X97115238Y-75842761D01*
X97210476Y-75747523D01*
X97258095Y-75652285D01*
X97305714Y-75461809D01*
X97305714Y-75318952D01*
X97258095Y-75128476D01*
X97210476Y-75033238D01*
X97115238Y-74938000D01*
X96972380Y-74890380D01*
X96877142Y-74890380D01*
X96734285Y-74938000D01*
X96686666Y-74985619D01*
X96353333Y-74890380D02*
X95734285Y-74890380D01*
X96067619Y-75271333D01*
X95924761Y-75271333D01*
X95829523Y-75318952D01*
X95781904Y-75366571D01*
X95734285Y-75461809D01*
X95734285Y-75699904D01*
X95781904Y-75795142D01*
X95829523Y-75842761D01*
X95924761Y-75890380D01*
X96210476Y-75890380D01*
X96305714Y-75842761D01*
X96353333Y-75795142D01*
X224893142Y-68445142D02*
X224940761Y-68397523D01*
X224988380Y-68254666D01*
X224988380Y-68159428D01*
X224940761Y-68016571D01*
X224845523Y-67921333D01*
X224750285Y-67873714D01*
X224559809Y-67826095D01*
X224416952Y-67826095D01*
X224226476Y-67873714D01*
X224131238Y-67921333D01*
X224036000Y-68016571D01*
X223988380Y-68159428D01*
X223988380Y-68254666D01*
X224036000Y-68397523D01*
X224083619Y-68445142D01*
X224988380Y-69397523D02*
X224988380Y-68826095D01*
X224988380Y-69111809D02*
X223988380Y-69111809D01*
X224131238Y-69016571D01*
X224226476Y-68921333D01*
X224274095Y-68826095D01*
X224321714Y-70254666D02*
X224988380Y-70254666D01*
X223940761Y-70016571D02*
X224655047Y-69778476D01*
X224655047Y-70397523D01*
X193936857Y-62333142D02*
X193984476Y-62380761D01*
X194127333Y-62428380D01*
X194222571Y-62428380D01*
X194365428Y-62380761D01*
X194460666Y-62285523D01*
X194508285Y-62190285D01*
X194555904Y-61999809D01*
X194555904Y-61856952D01*
X194508285Y-61666476D01*
X194460666Y-61571238D01*
X194365428Y-61476000D01*
X194222571Y-61428380D01*
X194127333Y-61428380D01*
X193984476Y-61476000D01*
X193936857Y-61523619D01*
X192984476Y-62428380D02*
X193555904Y-62428380D01*
X193270190Y-62428380D02*
X193270190Y-61428380D01*
X193365428Y-61571238D01*
X193460666Y-61666476D01*
X193555904Y-61714095D01*
X192651142Y-61428380D02*
X191984476Y-61428380D01*
X192413047Y-62428380D01*
D12*
X176282000Y-55176000D02*
X179282000Y-55176000D01*
X166682000Y-42576000D02*
X166682000Y-55176000D01*
X179282000Y-55176000D02*
X179282000Y-42576000D01*
X179282000Y-42576000D02*
X176282000Y-42576000D01*
X169682000Y-42576000D02*
X166682000Y-42576000D01*
X166682000Y-55176000D02*
X169682000Y-55176000D01*
X228856000Y-67925733D02*
X228856000Y-68218267D01*
X227836000Y-67925733D02*
X227836000Y-68218267D01*
X216504000Y-85534000D02*
X219704000Y-90684000D01*
D11*
X219704000Y-72384000D02*
X216504000Y-77534000D01*
D12*
X228504000Y-77534000D02*
X225304000Y-72384000D01*
X225304000Y-90684000D02*
X228504000Y-85534000D01*
X216498411Y-77542396D02*
G75*
G03*
X216504000Y-85534000I6005588J-3991604D01*
G01*
X228509589Y-85525604D02*
G75*
G03*
X228504000Y-77534000I-6005588J3991604D01*
G01*
X178344000Y-92202000D02*
X178344000Y-92852000D01*
X178344000Y-92202000D02*
X178344000Y-91552000D01*
X175224000Y-92202000D02*
X175224000Y-92852000D01*
X175224000Y-92202000D02*
X175224000Y-90527000D01*
X180618000Y-52872000D02*
X180618000Y-49022000D01*
X182618000Y-52872000D02*
X180618000Y-52872000D01*
X182618000Y-52872000D02*
X182618000Y-49022000D01*
D13*
X199874000Y-66152000D02*
X199874000Y-66072000D01*
X199874000Y-66072000D02*
X199794000Y-66072000D01*
X196874000Y-68992000D02*
X196874000Y-69072000D01*
X196874000Y-66072000D02*
X196874000Y-66152000D01*
X199794000Y-69072000D02*
X199874000Y-69072000D01*
X196874000Y-69072000D02*
X196954000Y-69072000D01*
X199874000Y-69072000D02*
X199874000Y-68992000D01*
X196874000Y-66072000D02*
X196954000Y-66072000D01*
D14*
X199429000Y-70322000D02*
G75*
G03*
X199429000Y-70322000I-100000J0D01*
G01*
D11*
X175514000Y-96774000D02*
X175514000Y-95504000D01*
X185674000Y-95504000D02*
X185674000Y-115824000D01*
X185674000Y-115824000D02*
X175514000Y-115824000D01*
X175514000Y-95504000D02*
X185674000Y-95504000D01*
X175514000Y-115824000D02*
X175514000Y-96774000D01*
D12*
X124424000Y-92202000D02*
X124424000Y-90527000D01*
X127544000Y-92202000D02*
X127544000Y-92852000D01*
X124424000Y-92202000D02*
X124424000Y-92852000D01*
X127544000Y-92202000D02*
X127544000Y-91552000D01*
X198623767Y-60450000D02*
X198331233Y-60450000D01*
X198623767Y-61470000D02*
X198331233Y-61470000D01*
X110746000Y-119171767D02*
X110746000Y-118879233D01*
X109726000Y-119171767D02*
X109726000Y-118879233D01*
X205742000Y-68472267D02*
X205742000Y-68179733D01*
X204722000Y-68472267D02*
X204722000Y-68179733D01*
X103778267Y-74928000D02*
X103485733Y-74928000D01*
X103778267Y-75948000D02*
X103485733Y-75948000D01*
X158022936Y-125370000D02*
X159477064Y-125370000D01*
X158022936Y-123550000D02*
X159477064Y-123550000D01*
X175245500Y-86105276D02*
X175245500Y-86614724D01*
X176290500Y-86105276D02*
X176290500Y-86614724D01*
X116571500Y-49021276D02*
X116571500Y-49530724D01*
X117616500Y-49021276D02*
X117616500Y-49530724D01*
X199897276Y-62215500D02*
X200406724Y-62215500D01*
X199897276Y-63260500D02*
X200406724Y-63260500D01*
X225318776Y-63231500D02*
X225828224Y-63231500D01*
X225318776Y-64276500D02*
X225828224Y-64276500D01*
X156464000Y-118278000D02*
X154964000Y-118278000D01*
X156464000Y-118278000D02*
X157964000Y-118278000D01*
X156464000Y-121498000D02*
X157964000Y-121498000D01*
X156464000Y-121498000D02*
X153539000Y-121498000D01*
X203210000Y-49226233D02*
X203210000Y-49518767D01*
X202190000Y-49226233D02*
X202190000Y-49518767D01*
X98297276Y-118124500D02*
X98806724Y-118124500D01*
X98297276Y-117079500D02*
X98806724Y-117079500D01*
X177038724Y-88631500D02*
X176529276Y-88631500D01*
X177038724Y-89676500D02*
X176529276Y-89676500D01*
X98698267Y-48516000D02*
X98405733Y-48516000D01*
X98698267Y-47496000D02*
X98405733Y-47496000D01*
X191104000Y-85534000D02*
X194304000Y-90684000D01*
X199904000Y-90684000D02*
X203104000Y-85534000D01*
D11*
X194304000Y-72384000D02*
X191104000Y-77534000D01*
D12*
X203104000Y-77534000D02*
X199904000Y-72384000D01*
X203109589Y-85525604D02*
G75*
G03*
X203104000Y-77534000I-6005588J3991604D01*
G01*
X191098411Y-77542396D02*
G75*
G03*
X191104000Y-85534000I6005588J-3991604D01*
G01*
X144866000Y-44942000D02*
X148716000Y-44942000D01*
X144866000Y-42942000D02*
X148716000Y-42942000D01*
X144866000Y-44942000D02*
X144866000Y-42942000D01*
X162461563Y-43346000D02*
X163526000Y-44410437D01*
X155006000Y-44410437D02*
X155006000Y-51866000D01*
X156070437Y-43346000D02*
X155006000Y-44410437D01*
X156556000Y-42606000D02*
X157556000Y-42606000D01*
X162461563Y-43346000D02*
X160476000Y-43346000D01*
X157056000Y-42106000D02*
X157056000Y-43106000D01*
X163526000Y-44410437D02*
X163526000Y-51866000D01*
X163526000Y-51866000D02*
X160476000Y-51866000D01*
X155006000Y-51866000D02*
X158056000Y-51866000D01*
X156070437Y-43346000D02*
X158056000Y-43346000D01*
X160272000Y-118979733D02*
X160272000Y-119272267D01*
X161292000Y-118979733D02*
X161292000Y-119272267D01*
X203561733Y-71630000D02*
X203854267Y-71630000D01*
X203561733Y-70610000D02*
X203854267Y-70610000D01*
X185334000Y-90694000D02*
X185334000Y-92694000D01*
X185334000Y-92694000D02*
X181484000Y-92694000D01*
X185334000Y-90694000D02*
X181484000Y-90694000D01*
X105918000Y-118278000D02*
X107418000Y-118278000D01*
X105918000Y-121498000D02*
X102993000Y-121498000D01*
X105918000Y-121498000D02*
X107418000Y-121498000D01*
X105918000Y-118278000D02*
X104418000Y-118278000D01*
X203854267Y-66042000D02*
X203561733Y-66042000D01*
X203854267Y-65022000D02*
X203561733Y-65022000D01*
X93071733Y-48516000D02*
X93364267Y-48516000D01*
X93071733Y-47496000D02*
X93364267Y-47496000D01*
X213818000Y-51817563D02*
X213818000Y-44362000D01*
X212753563Y-52882000D02*
X210768000Y-52882000D01*
X205298000Y-44362000D02*
X208348000Y-44362000D01*
X212268000Y-53622000D02*
X211268000Y-53622000D01*
X212753563Y-52882000D02*
X213818000Y-51817563D01*
X211768000Y-54122000D02*
X211768000Y-53122000D01*
X213818000Y-44362000D02*
X210768000Y-44362000D01*
X205298000Y-51817563D02*
X205298000Y-44362000D01*
X206362437Y-52882000D02*
X205298000Y-51817563D01*
X206362437Y-52882000D02*
X208348000Y-52882000D01*
X222163767Y-63244000D02*
X221871233Y-63244000D01*
X222163767Y-64264000D02*
X221871233Y-64264000D01*
X108951500Y-49021276D02*
X108951500Y-49530724D01*
X109996500Y-49021276D02*
X109996500Y-49530724D01*
X202465000Y-68587252D02*
X202465000Y-68064748D01*
X203935000Y-68587252D02*
X203935000Y-68064748D01*
X226989767Y-66042000D02*
X226697233Y-66042000D01*
X226989767Y-65022000D02*
X226697233Y-65022000D01*
X101600000Y-77499000D02*
X99400000Y-77499000D01*
X101600000Y-77499000D02*
X105200000Y-77499000D01*
X101600000Y-85569000D02*
X103800000Y-85569000D01*
X101600000Y-85569000D02*
X99400000Y-85569000D01*
X182128000Y-46228267D02*
X182128000Y-45935733D01*
X181108000Y-46228267D02*
X181108000Y-45935733D01*
X159451064Y-129434000D02*
X157996936Y-129434000D01*
X159451064Y-127614000D02*
X157996936Y-127614000D01*
X98297276Y-119873500D02*
X98806724Y-119873500D01*
X98297276Y-120918500D02*
X98806724Y-120918500D01*
X194308000Y-69296233D02*
X194308000Y-69588767D01*
X195328000Y-69296233D02*
X195328000Y-69588767D01*
X126238724Y-89676500D02*
X125729276Y-89676500D01*
X126238724Y-88631500D02*
X125729276Y-88631500D01*
X108931064Y-130704000D02*
X107476936Y-130704000D01*
X108931064Y-128884000D02*
X107476936Y-128884000D01*
X122173276Y-88631500D02*
X122682724Y-88631500D01*
X122173276Y-89676500D02*
X122682724Y-89676500D01*
X99421733Y-74170000D02*
X99714267Y-74170000D01*
X99421733Y-73150000D02*
X99714267Y-73150000D01*
X107476936Y-126894000D02*
X108931064Y-126894000D01*
X107476936Y-125074000D02*
X108931064Y-125074000D01*
X227730267Y-72138000D02*
X227437733Y-72138000D01*
X227730267Y-71118000D02*
X227437733Y-71118000D01*
D11*
X124714000Y-96774000D02*
X124714000Y-95504000D01*
X134874000Y-115824000D02*
X124714000Y-115824000D01*
X124714000Y-115824000D02*
X124714000Y-96774000D01*
X124714000Y-95504000D02*
X134874000Y-95504000D01*
X134874000Y-95504000D02*
X134874000Y-115824000D01*
D13*
X223183500Y-68810000D02*
X223263500Y-68810000D01*
X220263500Y-65810000D02*
X220343500Y-65810000D01*
X220263500Y-68810000D02*
X220343500Y-68810000D01*
X223263500Y-65890000D02*
X223263500Y-65810000D01*
X223263500Y-68810000D02*
X223263500Y-68730000D01*
X220263500Y-65810000D02*
X220263500Y-65890000D01*
X220263500Y-68730000D02*
X220263500Y-68810000D01*
X223263500Y-65810000D02*
X223183500Y-65810000D01*
D14*
X222818500Y-70060000D02*
G75*
G03*
X222818500Y-70060000I-100000J0D01*
G01*
D12*
X223941767Y-62740000D02*
X223649233Y-62740000D01*
X223941767Y-61720000D02*
X223649233Y-61720000D01*
X134534000Y-92440000D02*
X130684000Y-92440000D01*
X134534000Y-90440000D02*
X134534000Y-92440000D01*
X134534000Y-90440000D02*
X130684000Y-90440000D01*
X188870000Y-43695000D02*
X188870000Y-44645000D01*
X188870000Y-54095000D02*
X188870000Y-53145000D01*
X188870000Y-53145000D02*
X183745000Y-53145000D01*
X190370000Y-43695000D02*
X188870000Y-43695000D01*
X190370000Y-54095000D02*
X188870000Y-54095000D01*
X188870000Y-44645000D02*
X187770000Y-44645000D01*
X218463500Y-68433733D02*
X218463500Y-68726267D01*
X217443500Y-68433733D02*
X217443500Y-68726267D01*
X99300233Y-75948000D02*
X99592767Y-75948000D01*
X99300233Y-74928000D02*
X99592767Y-74928000D01*
X225579000Y-68587252D02*
X225579000Y-68064748D01*
X227049000Y-68587252D02*
X227049000Y-68064748D01*
X196845767Y-63248000D02*
X196553233Y-63248000D01*
X196845767Y-62228000D02*
X196553233Y-62228000D01*
%LPC*%
D15*
X199304000Y-66497000D02*
X197354000Y-66497000D01*
X197354000Y-66497000D02*
X197354000Y-67557000D01*
X197354000Y-67557000D02*
X198064000Y-67557000D01*
X198064000Y-67557000D02*
X198064000Y-68647000D01*
X198064000Y-68647000D02*
X198574000Y-68647000D01*
X198574000Y-68647000D02*
X198574000Y-67147000D01*
X198574000Y-67147000D02*
X199304000Y-67147000D01*
X199304000Y-67147000D02*
X199304000Y-66497000D01*
G36*
X199304000Y-67147000D02*
G01*
X198574000Y-67147000D01*
X198574000Y-68647000D01*
X198064000Y-68647000D01*
X198064000Y-67557000D01*
X197354000Y-67557000D01*
X197354000Y-66497000D01*
X199304000Y-66497000D01*
X199304000Y-67147000D01*
G37*
X199304000Y-67147000D02*
X198574000Y-67147000D01*
X198574000Y-68647000D01*
X198064000Y-68647000D01*
X198064000Y-67557000D01*
X197354000Y-67557000D01*
X197354000Y-66497000D01*
X199304000Y-66497000D01*
X199304000Y-67147000D01*
X222693500Y-66235000D02*
X220743500Y-66235000D01*
X220743500Y-66235000D02*
X220743500Y-67295000D01*
X220743500Y-67295000D02*
X221453500Y-67295000D01*
X221453500Y-67295000D02*
X221453500Y-68385000D01*
X221453500Y-68385000D02*
X221963500Y-68385000D01*
X221963500Y-68385000D02*
X221963500Y-66885000D01*
X221963500Y-66885000D02*
X222693500Y-66885000D01*
X222693500Y-66885000D02*
X222693500Y-66235000D01*
G36*
X222693500Y-66885000D02*
G01*
X221963500Y-66885000D01*
X221963500Y-68385000D01*
X221453500Y-68385000D01*
X221453500Y-67295000D01*
X220743500Y-67295000D01*
X220743500Y-66235000D01*
X222693500Y-66235000D01*
X222693500Y-66885000D01*
G37*
X222693500Y-66885000D02*
X221963500Y-66885000D01*
X221963500Y-68385000D01*
X221453500Y-68385000D01*
X221453500Y-67295000D01*
X220743500Y-67295000D01*
X220743500Y-66235000D01*
X222693500Y-66235000D01*
X222693500Y-66885000D01*
D16*
X222504000Y-127254000D03*
X171704000Y-127254000D03*
X146304000Y-127254000D03*
X95504000Y-127254000D03*
X197104000Y-101854000D03*
D17*
X89154000Y-62484000D03*
X91694000Y-62484000D03*
D18*
X94234000Y-62484000D03*
D17*
X96774000Y-62484000D03*
X99314000Y-62484000D03*
X101854000Y-62484000D03*
X104394000Y-62484000D03*
D18*
X106934000Y-62484000D03*
D17*
X109474000Y-62484000D03*
X112014000Y-62484000D03*
X114554000Y-62484000D03*
X117094000Y-62484000D03*
D18*
X119634000Y-62484000D03*
D17*
X122174000Y-62484000D03*
X124714000Y-62484000D03*
X127254000Y-62442119D03*
X129794000Y-62484000D03*
D18*
X132334000Y-62484000D03*
D17*
X134874000Y-62484000D03*
X137414000Y-62484000D03*
X137414000Y-44704000D03*
X134874000Y-44704000D03*
D18*
X132334000Y-44704000D03*
D17*
X129794000Y-44704000D03*
X127254000Y-44704000D03*
X124714000Y-44704000D03*
X122174000Y-44704000D03*
D18*
X119634000Y-44704000D03*
D17*
X117094000Y-44704000D03*
X114554000Y-44704000D03*
X112014000Y-44704000D03*
X109474000Y-44704000D03*
D18*
X106934000Y-44704000D03*
D17*
X104394000Y-44704000D03*
X101854000Y-44704000D03*
X99314000Y-44704000D03*
X96774000Y-44704000D03*
D18*
X94234000Y-44704000D03*
D17*
X91694000Y-44704000D03*
X89154000Y-44704000D03*
D16*
X197104000Y-127254000D03*
X108204000Y-101854000D03*
D19*
X90424000Y-71374000D03*
D20*
X92964000Y-71374000D03*
X90424000Y-73914000D03*
X92964000Y-73914000D03*
X90424000Y-76454000D03*
X92964000Y-76454000D03*
X90424000Y-78994000D03*
X92964000Y-78994000D03*
X90424000Y-81534000D03*
X92964000Y-81534000D03*
X90424000Y-84074000D03*
X92964000Y-84074000D03*
X90424000Y-86614000D03*
X92964000Y-86614000D03*
X90424000Y-89154000D03*
X92964000Y-89154000D03*
X90424000Y-91694000D03*
X92964000Y-91694000D03*
D16*
X120904000Y-127254000D03*
D21*
X218702000Y-49272000D03*
D22*
X225002000Y-49272000D03*
D23*
X221602000Y-44472000D03*
D16*
X159004000Y-101854000D03*
X222504000Y-101854000D03*
D24*
X172982000Y-53826000D03*
X172982000Y-43926000D03*
D25*
X228346000Y-67209500D03*
X228346000Y-68934500D03*
D26*
X222504000Y-73684000D03*
X222504000Y-89384000D03*
D27*
X175834000Y-91264500D03*
X177734000Y-91264500D03*
X176784000Y-93139500D03*
D28*
X181618000Y-52072000D03*
X181618000Y-49272000D03*
D29*
X199329000Y-69172000D03*
X198874000Y-69172000D03*
X198374000Y-69172000D03*
X197874000Y-69172000D03*
X197374000Y-69172000D03*
D30*
X196774000Y-68572000D03*
X196774000Y-68072000D03*
X196774000Y-67572000D03*
X196774000Y-67072000D03*
X196774000Y-66572000D03*
D29*
X197374000Y-65972000D03*
X197874000Y-65972000D03*
X198374000Y-65972000D03*
X198874000Y-65972000D03*
X199374000Y-65972000D03*
D30*
X199974000Y-66572000D03*
X199974000Y-67072000D03*
X199974000Y-67572000D03*
X199974000Y-68072000D03*
X199974000Y-68572000D03*
D31*
X198969000Y-67962000D03*
D32*
X197679000Y-68152000D03*
D33*
X184404000Y-96774000D03*
X184404000Y-106934000D03*
X184404000Y-114554000D03*
X176784000Y-96774000D03*
D27*
X125034000Y-91264500D03*
X126934000Y-91264500D03*
X125984000Y-93139500D03*
D34*
X199340000Y-60960000D03*
X197615000Y-60960000D03*
D35*
X110236000Y-119888000D03*
X110236000Y-118163000D03*
X205232000Y-69188500D03*
X205232000Y-67463500D03*
D34*
X104494500Y-75438000D03*
X102769500Y-75438000D03*
D36*
X157200000Y-124460000D03*
X160300000Y-124460000D03*
D37*
X175768000Y-85447500D03*
X175768000Y-87272500D03*
X117094000Y-48363500D03*
X117094000Y-50188500D03*
D38*
X199239500Y-62738000D03*
X201064500Y-62738000D03*
X224661000Y-63754000D03*
X226486000Y-63754000D03*
D39*
X154264000Y-120888000D03*
X154264000Y-120388000D03*
X154264000Y-119888000D03*
X154264000Y-119388000D03*
X154264000Y-118888000D03*
X158664000Y-118888000D03*
X158664000Y-119388000D03*
X158664000Y-119888000D03*
X158664000Y-120388000D03*
X158664000Y-120888000D03*
D25*
X202700000Y-48510000D03*
X202700000Y-50235000D03*
D38*
X97639500Y-117602000D03*
X99464500Y-117602000D03*
D40*
X177696500Y-89154000D03*
X175871500Y-89154000D03*
D34*
X99414500Y-48006000D03*
X97689500Y-48006000D03*
D26*
X197104000Y-73684000D03*
X197104000Y-89384000D03*
D28*
X145666000Y-43942000D03*
X148466000Y-43942000D03*
D41*
X159266000Y-44131000D03*
X159266000Y-51081000D03*
D25*
X160782000Y-118263500D03*
X160782000Y-119988500D03*
D42*
X202845500Y-71120000D03*
X204570500Y-71120000D03*
D28*
X184534000Y-91694000D03*
X181734000Y-91694000D03*
D39*
X103718000Y-120888000D03*
X103718000Y-120388000D03*
X103718000Y-119888000D03*
X103718000Y-119388000D03*
X103718000Y-118888000D03*
X108118000Y-118888000D03*
X108118000Y-119388000D03*
X108118000Y-119888000D03*
X108118000Y-120388000D03*
X108118000Y-120888000D03*
D34*
X204570500Y-65532000D03*
X202845500Y-65532000D03*
D42*
X92355500Y-48006000D03*
X94080500Y-48006000D03*
D43*
X209558000Y-52097000D03*
X209558000Y-45147000D03*
D34*
X222880000Y-63754000D03*
X221155000Y-63754000D03*
D37*
X109474000Y-48363500D03*
X109474000Y-50188500D03*
D44*
X203200000Y-69363500D03*
X203200000Y-67288500D03*
D34*
X227706000Y-65532000D03*
X225981000Y-65532000D03*
D45*
X104462500Y-77959000D03*
X104462500Y-78609000D03*
X104462500Y-79259000D03*
X104462500Y-79909000D03*
X104462500Y-80559000D03*
X104462500Y-81209000D03*
X104462500Y-81859000D03*
X104462500Y-82509000D03*
X104462500Y-83159000D03*
X104462500Y-83809000D03*
X104462500Y-84459000D03*
X104462500Y-85109000D03*
X98737500Y-85109000D03*
X98737500Y-84459000D03*
X98737500Y-83809000D03*
X98737500Y-83159000D03*
X98737500Y-82509000D03*
X98737500Y-81859000D03*
X98737500Y-81209000D03*
X98737500Y-80559000D03*
X98737500Y-79909000D03*
X98737500Y-79259000D03*
X98737500Y-78609000D03*
X98737500Y-77959000D03*
D35*
X181618000Y-46944500D03*
X181618000Y-45219500D03*
D46*
X160274000Y-128524000D03*
X157174000Y-128524000D03*
D38*
X97639500Y-120396000D03*
X99464500Y-120396000D03*
D25*
X194818000Y-68580000D03*
X194818000Y-70305000D03*
D40*
X126896500Y-89154000D03*
X125071500Y-89154000D03*
D46*
X109754000Y-129794000D03*
X106654000Y-129794000D03*
D38*
X121515500Y-89154000D03*
X123340500Y-89154000D03*
D42*
X98705500Y-73660000D03*
X100430500Y-73660000D03*
D36*
X106654000Y-125984000D03*
X109754000Y-125984000D03*
D34*
X228446500Y-71628000D03*
X226721500Y-71628000D03*
D33*
X133604000Y-96774000D03*
X133604000Y-106934000D03*
X133604000Y-114554000D03*
X125984000Y-96774000D03*
D29*
X222718500Y-68910000D03*
X222263500Y-68910000D03*
X221763500Y-68910000D03*
X221263500Y-68910000D03*
X220763500Y-68910000D03*
D30*
X220163500Y-68310000D03*
X220163500Y-67810000D03*
X220163500Y-67310000D03*
X220163500Y-66810000D03*
X220163500Y-66310000D03*
D29*
X220763500Y-65710000D03*
X221263500Y-65710000D03*
X221763500Y-65710000D03*
X222263500Y-65710000D03*
X222763500Y-65710000D03*
D30*
X223363500Y-66310000D03*
X223363500Y-66810000D03*
X223363500Y-67310000D03*
X223363500Y-67810000D03*
X223363500Y-68310000D03*
D31*
X222358500Y-67700000D03*
D32*
X221068500Y-67890000D03*
D34*
X224658000Y-62230000D03*
X222933000Y-62230000D03*
D28*
X133734000Y-91440000D03*
X130934000Y-91440000D03*
D47*
X186045000Y-52295000D03*
X186045000Y-50595000D03*
D48*
X195195000Y-48895000D03*
D47*
X186045000Y-48895000D03*
X186045000Y-47195000D03*
X186045000Y-45495000D03*
D25*
X217953500Y-67717500D03*
X217953500Y-69442500D03*
D42*
X98584000Y-75438000D03*
X100309000Y-75438000D03*
D44*
X226314000Y-69363500D03*
X226314000Y-67288500D03*
D34*
X197562000Y-62738000D03*
X195837000Y-62738000D03*
M02*
