%FSLAX45Y45*%
G04 Gerber Fmt 4.5, Leading zero omitted, Abs format (unit mm)*
G04 Created by KiCad (PCBNEW 6.0.2+dfsg-1) date 2023-02-25 17:51:28*
%MOMM*%
%LPD*%
G01*
G04 APERTURE LIST*
%TA.AperFunction,Profile*%
%ADD10C,0.100000*%
%TD*%
%ADD11C,0.200000*%
%ADD12C,0.030000*%
%ADD13C,0.040000*%
%ADD14C,0.100000*%
%ADD15C,0.110000*%
%ADD16C,0.610000*%
G04 APERTURE END LIST*
D10*
X8788400Y-4089400D02*
X8534400Y-4089400D01*
X23266400Y-4089400D02*
X9296400Y-4089400D01*
X8534400Y-4089400D02*
X8534400Y-13741400D01*
X23266400Y-13741400D02*
X23266400Y-4089400D01*
X9296400Y-4089400D02*
X8788400Y-4089400D01*
X8534400Y-13741400D02*
X23266400Y-13741400D01*
D11*
D12*
X19746900Y-6672200D02*
X19776900Y-6702200D01*
X19776900Y-6672200D02*
X19746900Y-6702200D01*
X19746900Y-6812200D02*
X19776900Y-6842200D01*
X19776900Y-6812200D02*
X19746900Y-6842200D01*
X19816900Y-6672200D02*
X19846900Y-6702200D01*
X19846900Y-6672200D02*
X19816900Y-6702200D01*
X19816900Y-6742200D02*
X19846900Y-6772200D01*
X19846900Y-6742200D02*
X19816900Y-6772200D01*
X19816900Y-6812200D02*
X19846900Y-6842200D01*
X19846900Y-6812200D02*
X19816900Y-6842200D01*
X19886900Y-6672200D02*
X19916900Y-6702200D01*
X19916900Y-6672200D02*
X19886900Y-6702200D01*
X19886900Y-6742200D02*
X19916900Y-6772200D01*
X19916900Y-6742200D02*
X19886900Y-6772200D01*
X19886900Y-6812200D02*
X19916900Y-6842200D01*
X19916900Y-6812200D02*
X19886900Y-6842200D01*
X22085850Y-6646000D02*
X22115850Y-6676000D01*
X22115850Y-6646000D02*
X22085850Y-6676000D01*
X22085850Y-6786000D02*
X22115850Y-6816000D01*
X22115850Y-6786000D02*
X22085850Y-6816000D01*
X22155850Y-6646000D02*
X22185850Y-6676000D01*
X22185850Y-6646000D02*
X22155850Y-6676000D01*
X22155850Y-6716000D02*
X22185850Y-6746000D01*
X22185850Y-6716000D02*
X22155850Y-6746000D01*
X22155850Y-6786000D02*
X22185850Y-6816000D01*
X22185850Y-6786000D02*
X22155850Y-6816000D01*
X22225850Y-6646000D02*
X22255850Y-6676000D01*
X22255850Y-6646000D02*
X22225850Y-6676000D01*
X22225850Y-6716000D02*
X22255850Y-6746000D01*
X22255850Y-6716000D02*
X22225850Y-6746000D01*
X22225850Y-6786000D02*
X22255850Y-6816000D01*
X22255850Y-6786000D02*
X22225850Y-6816000D01*
D13*
X9316400Y-5359400D02*
G75*
G03*
X9316400Y-5359400I-20000J0D01*
G01*
X9316400Y-5867400D02*
G75*
G03*
X9316400Y-5867400I-20000J0D01*
G01*
X9316400Y-10185400D02*
G75*
G03*
X9316400Y-10185400I-20000J0D01*
G01*
X9316400Y-11201400D02*
G75*
G03*
X9316400Y-11201400I-20000J0D01*
G01*
X9786300Y-11899900D02*
G75*
G03*
X9786300Y-11899900I-20000J0D01*
G01*
X9926000Y-8636000D02*
G75*
G03*
X9926000Y-8636000I-20000J0D01*
G01*
X10047825Y-11841575D02*
G75*
G03*
X10047825Y-11841575I-20000J0D01*
G01*
X10047825Y-11958225D02*
G75*
G03*
X10047825Y-11958225I-20000J0D01*
G01*
X10078400Y-5359400D02*
G75*
G03*
X10078400Y-5359400I-20000J0D01*
G01*
X10180000Y-7543800D02*
G75*
G03*
X10180000Y-7543800I-20000J0D01*
G01*
X10307000Y-8483600D02*
G75*
G03*
X10307000Y-8483600I-20000J0D01*
G01*
X10466250Y-7663950D02*
G75*
G03*
X10466250Y-7663950I-20000J0D01*
G01*
X10586400Y-5867400D02*
G75*
G03*
X10586400Y-5867400I-20000J0D01*
G01*
X10891200Y-11734800D02*
G75*
G03*
X10891200Y-11734800I-20000J0D01*
G01*
X11170600Y-11938000D02*
G75*
G03*
X11170600Y-11938000I-20000J0D01*
G01*
X11856400Y-5867400D02*
G75*
G03*
X11856400Y-5867400I-20000J0D01*
G01*
X12034200Y-5029200D02*
G75*
G03*
X12034200Y-5029200I-20000J0D01*
G01*
X12085000Y-5257800D02*
G75*
G03*
X12085000Y-5257800I-20000J0D01*
G01*
X12173900Y-8775700D02*
G75*
G03*
X12173900Y-8775700I-20000J0D01*
G01*
X12709650Y-9001950D02*
G75*
G03*
X12709650Y-9001950I-20000J0D01*
G01*
X13380400Y-7899400D02*
G75*
G03*
X13380400Y-7899400I-20000J0D01*
G01*
X14396400Y-7137400D02*
G75*
G03*
X14396400Y-7137400I-20000J0D01*
G01*
X14650400Y-4851400D02*
G75*
G03*
X14650400Y-4851400I-20000J0D01*
G01*
X14650400Y-5867400D02*
G75*
G03*
X14650400Y-5867400I-20000J0D01*
G01*
X14650400Y-10185400D02*
G75*
G03*
X14650400Y-10185400I-20000J0D01*
G01*
X14650400Y-11201400D02*
G75*
G03*
X14650400Y-11201400I-20000J0D01*
G01*
X14904400Y-5359400D02*
G75*
G03*
X14904400Y-5359400I-20000J0D01*
G01*
X15158400Y-4851400D02*
G75*
G03*
X15158400Y-4851400I-20000J0D01*
G01*
X15158400Y-5867400D02*
G75*
G03*
X15158400Y-5867400I-20000J0D01*
G01*
X15285400Y-11963400D02*
G75*
G03*
X15285400Y-11963400I-20000J0D01*
G01*
X15387000Y-11760200D02*
G75*
G03*
X15387000Y-11760200I-20000J0D01*
G01*
X15679100Y-11950700D02*
G75*
G03*
X15679100Y-11950700I-20000J0D01*
G01*
X15691800Y-4978400D02*
G75*
G03*
X15691800Y-4978400I-20000J0D01*
G01*
X15691800Y-5232400D02*
G75*
G03*
X15691800Y-5232400I-20000J0D01*
G01*
X15920400Y-7645400D02*
G75*
G03*
X15920400Y-7645400I-20000J0D01*
G01*
X15945800Y-11785600D02*
G75*
G03*
X15945800Y-11785600I-20000J0D01*
G01*
X16199800Y-5207000D02*
G75*
G03*
X16199800Y-5207000I-20000J0D01*
G01*
X16454200Y-4927200D02*
G75*
G03*
X16454200Y-4927200I-20000J0D01*
G01*
X16606200Y-9169400D02*
G75*
G03*
X16606200Y-9169400I-20000J0D01*
G01*
X16758600Y-9169400D02*
G75*
G03*
X16758600Y-9169400I-20000J0D01*
G01*
X16911000Y-9169400D02*
G75*
G03*
X16911000Y-9169400I-20000J0D01*
G01*
X16936400Y-7137400D02*
G75*
G03*
X16936400Y-7137400I-20000J0D01*
G01*
X17241600Y-4927200D02*
G75*
G03*
X17241600Y-4927200I-20000J0D01*
G01*
X17419000Y-8534400D02*
G75*
G03*
X17419000Y-8534400I-20000J0D01*
G01*
X17444400Y-7899400D02*
G75*
G03*
X17444400Y-7899400I-20000J0D01*
G01*
X17698400Y-7137400D02*
G75*
G03*
X17698400Y-7137400I-20000J0D01*
G01*
X17978200Y-4927200D02*
G75*
G03*
X17978200Y-4927200I-20000J0D01*
G01*
X18181000Y-9017000D02*
G75*
G03*
X18181000Y-9017000I-20000J0D01*
G01*
X18714400Y-8153400D02*
G75*
G03*
X18714400Y-8153400I-20000J0D01*
G01*
X18955700Y-4889500D02*
G75*
G03*
X18955700Y-4889500I-20000J0D01*
G01*
X18967600Y-4317600D02*
G75*
G03*
X18967600Y-4317600I-20000J0D01*
G01*
X19222400Y-5613400D02*
G75*
G03*
X19222400Y-5613400I-20000J0D01*
G01*
X19324000Y-6299200D02*
G75*
G03*
X19324000Y-6299200I-20000J0D01*
G01*
X19374800Y-6604000D02*
G75*
G03*
X19374800Y-6604000I-20000J0D01*
G01*
X19451000Y-6299200D02*
G75*
G03*
X19451000Y-6299200I-20000J0D01*
G01*
X19476400Y-11455400D02*
G75*
G03*
X19476400Y-11455400I-20000J0D01*
G01*
X19578000Y-6680200D02*
G75*
G03*
X19578000Y-6680200I-20000J0D01*
G01*
X19641500Y-6134100D02*
G75*
G03*
X19641500Y-6134100I-20000J0D01*
G01*
X19730400Y-8178800D02*
G75*
G03*
X19730400Y-8178800I-20000J0D01*
G01*
X19857400Y-7061200D02*
G75*
G03*
X19857400Y-7061200I-20000J0D01*
G01*
X20087600Y-4851000D02*
G75*
G03*
X20087600Y-4851000I-20000J0D01*
G01*
X20162200Y-6553200D02*
G75*
G03*
X20162200Y-6553200I-20000J0D01*
G01*
X20162200Y-6680200D02*
G75*
G03*
X20162200Y-6680200I-20000J0D01*
G01*
X20238400Y-5613400D02*
G75*
G03*
X20238400Y-5613400I-20000J0D01*
G01*
X20492400Y-11201400D02*
G75*
G03*
X20492400Y-11201400I-20000J0D01*
G01*
X20492400Y-11963400D02*
G75*
G03*
X20492400Y-11963400I-20000J0D01*
G01*
X20619400Y-6553200D02*
G75*
G03*
X20619400Y-6553200I-20000J0D01*
G01*
X20626300Y-4514700D02*
G75*
G03*
X20626300Y-4514700I-20000J0D01*
G01*
X20644800Y-7112000D02*
G75*
G03*
X20644800Y-7112000I-20000J0D01*
G01*
X20695600Y-6756400D02*
G75*
G03*
X20695600Y-6756400I-20000J0D01*
G01*
X20746400Y-5867400D02*
G75*
G03*
X20746400Y-5867400I-20000J0D01*
G01*
X20746400Y-8407400D02*
G75*
G03*
X20746400Y-8407400I-20000J0D01*
G01*
X21000400Y-9677400D02*
G75*
G03*
X21000400Y-9677400I-20000J0D01*
G01*
X21000400Y-10439400D02*
G75*
G03*
X21000400Y-10439400I-20000J0D01*
G01*
X21000400Y-11455400D02*
G75*
G03*
X21000400Y-11455400I-20000J0D01*
G01*
X21000400Y-11709400D02*
G75*
G03*
X21000400Y-11709400I-20000J0D01*
G01*
X21000400Y-12979400D02*
G75*
G03*
X21000400Y-12979400I-20000J0D01*
G01*
X21247900Y-4514700D02*
G75*
G03*
X21247900Y-4514700I-20000J0D01*
G01*
X21254400Y-5867400D02*
G75*
G03*
X21254400Y-5867400I-20000J0D01*
G01*
X21254400Y-6883400D02*
G75*
G03*
X21254400Y-6883400I-20000J0D01*
G01*
X21254400Y-7645400D02*
G75*
G03*
X21254400Y-7645400I-20000J0D01*
G01*
X21508400Y-11201400D02*
G75*
G03*
X21508400Y-11201400I-20000J0D01*
G01*
X21508400Y-11963400D02*
G75*
G03*
X21508400Y-11963400I-20000J0D01*
G01*
X21762400Y-5867400D02*
G75*
G03*
X21762400Y-5867400I-20000J0D01*
G01*
X21787800Y-6299200D02*
G75*
G03*
X21787800Y-6299200I-20000J0D01*
G01*
X21914800Y-6451600D02*
G75*
G03*
X21914800Y-6451600I-20000J0D01*
G01*
X21914800Y-6578600D02*
G75*
G03*
X21914800Y-6578600I-20000J0D01*
G01*
X21952900Y-6705600D02*
G75*
G03*
X21952900Y-6705600I-20000J0D01*
G01*
X22175150Y-6254750D02*
G75*
G03*
X22175150Y-6254750I-20000J0D01*
G01*
X22194200Y-7035800D02*
G75*
G03*
X22194200Y-7035800I-20000J0D01*
G01*
X22270400Y-5867400D02*
G75*
G03*
X22270400Y-5867400I-20000J0D01*
G01*
X22270400Y-8242300D02*
G75*
G03*
X22270400Y-8242300I-20000J0D01*
G01*
X22460900Y-6578600D02*
G75*
G03*
X22460900Y-6578600I-20000J0D01*
G01*
X22524400Y-6489700D02*
G75*
G03*
X22524400Y-6489700I-20000J0D01*
G01*
X22524400Y-6731000D02*
G75*
G03*
X22524400Y-6731000I-20000J0D01*
G01*
X22524400Y-11455400D02*
G75*
G03*
X22524400Y-11455400I-20000J0D01*
G01*
X22778400Y-4343400D02*
G75*
G03*
X22778400Y-4343400I-20000J0D01*
G01*
X22778400Y-5867400D02*
G75*
G03*
X22778400Y-5867400I-20000J0D01*
G01*
X22854600Y-7035800D02*
G75*
G03*
X22854600Y-7035800I-20000J0D01*
G01*
X22930800Y-6553200D02*
G75*
G03*
X22930800Y-6553200I-20000J0D01*
G01*
D14*
X8915400Y-4420400D02*
X8915400Y-4520400D01*
X8865400Y-4470400D02*
X8965400Y-4470400D01*
X8915400Y-6198400D02*
X8915400Y-6298400D01*
X8865400Y-6248400D02*
X8965400Y-6248400D01*
X9042400Y-7087400D02*
X9042400Y-7187400D01*
X8992400Y-7137400D02*
X9092400Y-7137400D01*
X9042400Y-7341400D02*
X9042400Y-7441400D01*
X8992400Y-7391400D02*
X9092400Y-7391400D01*
X9042400Y-7595400D02*
X9042400Y-7695400D01*
X8992400Y-7645400D02*
X9092400Y-7645400D01*
X9042400Y-7849400D02*
X9042400Y-7949400D01*
X8992400Y-7899400D02*
X9092400Y-7899400D01*
X9042400Y-8103400D02*
X9042400Y-8203400D01*
X8992400Y-8153400D02*
X9092400Y-8153400D01*
X9042400Y-8357400D02*
X9042400Y-8457400D01*
X8992400Y-8407400D02*
X9092400Y-8407400D01*
X9042400Y-8611400D02*
X9042400Y-8711400D01*
X8992400Y-8661400D02*
X9092400Y-8661400D01*
X9042400Y-8865400D02*
X9042400Y-8965400D01*
X8992400Y-8915400D02*
X9092400Y-8915400D01*
X9042400Y-9119400D02*
X9042400Y-9219400D01*
X8992400Y-9169400D02*
X9092400Y-9169400D01*
X9169400Y-4420400D02*
X9169400Y-4520400D01*
X9119400Y-4470400D02*
X9219400Y-4470400D01*
X9169400Y-6198400D02*
X9169400Y-6298400D01*
X9119400Y-6248400D02*
X9219400Y-6248400D01*
X9296400Y-7087400D02*
X9296400Y-7187400D01*
X9246400Y-7137400D02*
X9346400Y-7137400D01*
X9296400Y-7341400D02*
X9296400Y-7441400D01*
X9246400Y-7391400D02*
X9346400Y-7391400D01*
X9296400Y-7595400D02*
X9296400Y-7695400D01*
X9246400Y-7645400D02*
X9346400Y-7645400D01*
X9296400Y-7849400D02*
X9296400Y-7949400D01*
X9246400Y-7899400D02*
X9346400Y-7899400D01*
X9296400Y-8103400D02*
X9296400Y-8203400D01*
X9246400Y-8153400D02*
X9346400Y-8153400D01*
X9296400Y-8357400D02*
X9296400Y-8457400D01*
X9246400Y-8407400D02*
X9346400Y-8407400D01*
X9296400Y-8611400D02*
X9296400Y-8711400D01*
X9246400Y-8661400D02*
X9346400Y-8661400D01*
X9296400Y-8865400D02*
X9296400Y-8965400D01*
X9246400Y-8915400D02*
X9346400Y-8915400D01*
X9296400Y-9119400D02*
X9296400Y-9219400D01*
X9246400Y-9169400D02*
X9346400Y-9169400D01*
X9423400Y-4420400D02*
X9423400Y-4520400D01*
X9373400Y-4470400D02*
X9473400Y-4470400D01*
X9423400Y-6198400D02*
X9423400Y-6298400D01*
X9373400Y-6248400D02*
X9473400Y-6248400D01*
X9677400Y-4420400D02*
X9677400Y-4520400D01*
X9627400Y-4470400D02*
X9727400Y-4470400D01*
X9677400Y-6198400D02*
X9677400Y-6298400D01*
X9627400Y-6248400D02*
X9727400Y-6248400D01*
X9931400Y-4420400D02*
X9931400Y-4520400D01*
X9881400Y-4470400D02*
X9981400Y-4470400D01*
X9931400Y-6198400D02*
X9931400Y-6298400D01*
X9881400Y-6248400D02*
X9981400Y-6248400D01*
X10185400Y-4420400D02*
X10185400Y-4520400D01*
X10135400Y-4470400D02*
X10235400Y-4470400D01*
X10185400Y-6198400D02*
X10185400Y-6298400D01*
X10135400Y-6248400D02*
X10235400Y-6248400D01*
X10439400Y-4420400D02*
X10439400Y-4520400D01*
X10389400Y-4470400D02*
X10489400Y-4470400D01*
X10439400Y-6198400D02*
X10439400Y-6298400D01*
X10389400Y-6248400D02*
X10489400Y-6248400D01*
X10693400Y-4420400D02*
X10693400Y-4520400D01*
X10643400Y-4470400D02*
X10743400Y-4470400D01*
X10693400Y-6198400D02*
X10693400Y-6298400D01*
X10643400Y-6248400D02*
X10743400Y-6248400D01*
X10947400Y-4420400D02*
X10947400Y-4520400D01*
X10897400Y-4470400D02*
X10997400Y-4470400D01*
X10947400Y-6198400D02*
X10947400Y-6298400D01*
X10897400Y-6248400D02*
X10997400Y-6248400D01*
X11201400Y-4420400D02*
X11201400Y-4520400D01*
X11151400Y-4470400D02*
X11251400Y-4470400D01*
X11201400Y-6198400D02*
X11201400Y-6298400D01*
X11151400Y-6248400D02*
X11251400Y-6248400D01*
X11455400Y-4420400D02*
X11455400Y-4520400D01*
X11405400Y-4470400D02*
X11505400Y-4470400D01*
X11455400Y-6198400D02*
X11455400Y-6298400D01*
X11405400Y-6248400D02*
X11505400Y-6248400D01*
X11709400Y-4420400D02*
X11709400Y-4520400D01*
X11659400Y-4470400D02*
X11759400Y-4470400D01*
X11709400Y-6198400D02*
X11709400Y-6298400D01*
X11659400Y-6248400D02*
X11759400Y-6248400D01*
X11963400Y-4420400D02*
X11963400Y-4520400D01*
X11913400Y-4470400D02*
X12013400Y-4470400D01*
X11963400Y-6198400D02*
X11963400Y-6298400D01*
X11913400Y-6248400D02*
X12013400Y-6248400D01*
X12217400Y-4420400D02*
X12217400Y-4520400D01*
X12167400Y-4470400D02*
X12267400Y-4470400D01*
X12217400Y-6198400D02*
X12217400Y-6298400D01*
X12167400Y-6248400D02*
X12267400Y-6248400D01*
X12471400Y-4420400D02*
X12471400Y-4520400D01*
X12421400Y-4470400D02*
X12521400Y-4470400D01*
X12471400Y-6198400D02*
X12471400Y-6298400D01*
X12421400Y-6248400D02*
X12521400Y-6248400D01*
X12725400Y-4420400D02*
X12725400Y-4520400D01*
X12675400Y-4470400D02*
X12775400Y-4470400D01*
X12725400Y-6194212D02*
X12725400Y-6294212D01*
X12675400Y-6244212D02*
X12775400Y-6244212D01*
X12979400Y-4420400D02*
X12979400Y-4520400D01*
X12929400Y-4470400D02*
X13029400Y-4470400D01*
X12979400Y-6198400D02*
X12979400Y-6298400D01*
X12929400Y-6248400D02*
X13029400Y-6248400D01*
X13233400Y-4420400D02*
X13233400Y-4520400D01*
X13183400Y-4470400D02*
X13283400Y-4470400D01*
X13233400Y-6198400D02*
X13233400Y-6298400D01*
X13183400Y-6248400D02*
X13283400Y-6248400D01*
X13487400Y-4420400D02*
X13487400Y-4520400D01*
X13437400Y-4470400D02*
X13537400Y-4470400D01*
X13487400Y-6198400D02*
X13487400Y-6298400D01*
X13437400Y-6248400D02*
X13537400Y-6248400D01*
X13741400Y-4420400D02*
X13741400Y-4520400D01*
X13691400Y-4470400D02*
X13791400Y-4470400D01*
X13741400Y-6198400D02*
X13741400Y-6298400D01*
X13691400Y-6248400D02*
X13791400Y-6248400D01*
X21870200Y-4877200D02*
X21870200Y-4977200D01*
X21820200Y-4927200D02*
X21920200Y-4927200D01*
D11*
X21910200Y-5057200D02*
X21910200Y-4797200D01*
X21830200Y-5057200D02*
X21830200Y-4797200D01*
X21910200Y-4797200D02*
G75*
G03*
X21830200Y-4797200I-40000J0D01*
G01*
X21830200Y-5057200D02*
G75*
G03*
X21910200Y-5057200I40000J0D01*
G01*
D14*
X22160200Y-4397200D02*
X22160200Y-4497200D01*
X22110200Y-4447200D02*
X22210200Y-4447200D01*
D11*
X22050200Y-4487200D02*
X22270200Y-4487200D01*
X22050200Y-4407200D02*
X22270200Y-4407200D01*
X22270200Y-4487200D02*
G75*
G03*
X22270200Y-4407200I0J40000D01*
G01*
X22050200Y-4407200D02*
G75*
G03*
X22050200Y-4487200I0J-40000D01*
G01*
D14*
X22500200Y-4877200D02*
X22500200Y-4977200D01*
X22450200Y-4927200D02*
X22550200Y-4927200D01*
D11*
X22540200Y-5037200D02*
X22540200Y-4817200D01*
X22460200Y-5037200D02*
X22460200Y-4817200D01*
X22540200Y-4817200D02*
G75*
G03*
X22460200Y-4817200I-40000J0D01*
G01*
X22460200Y-5037200D02*
G75*
G03*
X22540200Y-5037200I40000J0D01*
G01*
D15*
X12637291Y-9716291D02*
X12637291Y-9638509D01*
X12559509Y-9638509D01*
X12559509Y-9716291D01*
X12637291Y-9716291D01*
X13399291Y-9716291D02*
X13399291Y-9638509D01*
X13321509Y-9638509D01*
X13321509Y-9716291D01*
X13399291Y-9716291D01*
X13399291Y-10732291D02*
X13399291Y-10654509D01*
X13321509Y-10654509D01*
X13321509Y-10732291D01*
X13399291Y-10732291D01*
X13399291Y-11494291D02*
X13399291Y-11416509D01*
X13321509Y-11416509D01*
X13321509Y-11494291D01*
X13399291Y-11494291D01*
X17717291Y-9716291D02*
X17717291Y-9638509D01*
X17639509Y-9638509D01*
X17639509Y-9716291D01*
X17717291Y-9716291D01*
X18479291Y-9716291D02*
X18479291Y-9638509D01*
X18401509Y-9638509D01*
X18401509Y-9716291D01*
X18479291Y-9716291D01*
X18479291Y-10732291D02*
X18479291Y-10654509D01*
X18401509Y-10654509D01*
X18401509Y-10732291D01*
X18479291Y-10732291D01*
X18479291Y-11494291D02*
X18479291Y-11416509D01*
X18401509Y-11416509D01*
X18401509Y-11494291D01*
X18479291Y-11494291D01*
D16*
X9550400Y-13030400D02*
X9855400Y-12725400D01*
X9550400Y-12420400D01*
X9245400Y-12725400D01*
X9550400Y-13030400D01*
X10820400Y-10490400D02*
X11125400Y-10185400D01*
X10820400Y-9880400D01*
X10515400Y-10185400D01*
X10820400Y-10490400D01*
X12090400Y-13030400D02*
X12395400Y-12725400D01*
X12090400Y-12420400D01*
X11785400Y-12725400D01*
X12090400Y-13030400D01*
X14630400Y-13030400D02*
X14935400Y-12725400D01*
X14630400Y-12420400D01*
X14325400Y-12725400D01*
X14630400Y-13030400D01*
X15900400Y-10490400D02*
X16205400Y-10185400D01*
X15900400Y-9880400D01*
X15595400Y-10185400D01*
X15900400Y-10490400D01*
X17170400Y-13030400D02*
X17475400Y-12725400D01*
X17170400Y-12420400D01*
X16865400Y-12725400D01*
X17170400Y-13030400D01*
X19710400Y-10490400D02*
X20015400Y-10185400D01*
X19710400Y-9880400D01*
X19405400Y-10185400D01*
X19710400Y-10490400D01*
X19710400Y-13030400D02*
X20015400Y-12725400D01*
X19710400Y-12420400D01*
X19405400Y-12725400D01*
X19710400Y-13030400D01*
X22250400Y-10490400D02*
X22555400Y-10185400D01*
X22250400Y-9880400D01*
X21945400Y-10185400D01*
X22250400Y-10490400D01*
X22250400Y-13030400D02*
X22555400Y-12725400D01*
X22250400Y-12420400D01*
X21945400Y-12725400D01*
X22250400Y-13030400D01*
D11*
X8787019Y-14056876D02*
X8787019Y-13856876D01*
X8834638Y-13856876D01*
X8863210Y-13866400D01*
X8882257Y-13885448D01*
X8891781Y-13904495D01*
X8901305Y-13942590D01*
X8901305Y-13971162D01*
X8891781Y-14009257D01*
X8882257Y-14028305D01*
X8863210Y-14047352D01*
X8834638Y-14056876D01*
X8787019Y-14056876D01*
X8987019Y-14056876D02*
X8987019Y-13923543D01*
X8987019Y-13961638D02*
X8996543Y-13942590D01*
X9006067Y-13933067D01*
X9025114Y-13923543D01*
X9044162Y-13923543D01*
X9110829Y-14056876D02*
X9110829Y-13923543D01*
X9110829Y-13856876D02*
X9101305Y-13866400D01*
X9110829Y-13875924D01*
X9120352Y-13866400D01*
X9110829Y-13856876D01*
X9110829Y-13875924D01*
X9234638Y-14056876D02*
X9215590Y-14047352D01*
X9206067Y-14028305D01*
X9206067Y-13856876D01*
X9339400Y-14056876D02*
X9320352Y-14047352D01*
X9310829Y-14028305D01*
X9310829Y-13856876D01*
X9567971Y-14056876D02*
X9567971Y-13856876D01*
X9634638Y-13999733D01*
X9701305Y-13856876D01*
X9701305Y-14056876D01*
X9882257Y-14056876D02*
X9882257Y-13952114D01*
X9872733Y-13933067D01*
X9853686Y-13923543D01*
X9815590Y-13923543D01*
X9796543Y-13933067D01*
X9882257Y-14047352D02*
X9863210Y-14056876D01*
X9815590Y-14056876D01*
X9796543Y-14047352D01*
X9787019Y-14028305D01*
X9787019Y-14009257D01*
X9796543Y-13990209D01*
X9815590Y-13980686D01*
X9863210Y-13980686D01*
X9882257Y-13971162D01*
X9977495Y-13923543D02*
X9977495Y-14123543D01*
X9977495Y-13933067D02*
X9996543Y-13923543D01*
X10034638Y-13923543D01*
X10053686Y-13933067D01*
X10063210Y-13942590D01*
X10072733Y-13961638D01*
X10072733Y-14018781D01*
X10063210Y-14037828D01*
X10053686Y-14047352D01*
X10034638Y-14056876D01*
X9996543Y-14056876D01*
X9977495Y-14047352D01*
X10158448Y-14037828D02*
X10167971Y-14047352D01*
X10158448Y-14056876D01*
X10148924Y-14047352D01*
X10158448Y-14037828D01*
X10158448Y-14056876D01*
X10158448Y-13933067D02*
X10167971Y-13942590D01*
X10158448Y-13952114D01*
X10148924Y-13942590D01*
X10158448Y-13933067D01*
X10158448Y-13952114D01*
D12*
X8499400Y-14371400D02*
X8529400Y-14401400D01*
X8529400Y-14371400D02*
X8499400Y-14401400D01*
D11*
X8825114Y-14276876D02*
X8844162Y-14276876D01*
X8863210Y-14286400D01*
X8872733Y-14295924D01*
X8882257Y-14314971D01*
X8891781Y-14353067D01*
X8891781Y-14400686D01*
X8882257Y-14438781D01*
X8872733Y-14457828D01*
X8863210Y-14467352D01*
X8844162Y-14476876D01*
X8825114Y-14476876D01*
X8806067Y-14467352D01*
X8796543Y-14457828D01*
X8787019Y-14438781D01*
X8777495Y-14400686D01*
X8777495Y-14353067D01*
X8787019Y-14314971D01*
X8796543Y-14295924D01*
X8806067Y-14286400D01*
X8825114Y-14276876D01*
X8977495Y-14457828D02*
X8987019Y-14467352D01*
X8977495Y-14476876D01*
X8967971Y-14467352D01*
X8977495Y-14457828D01*
X8977495Y-14476876D01*
X9053686Y-14276876D02*
X9177495Y-14276876D01*
X9110829Y-14353067D01*
X9139400Y-14353067D01*
X9158448Y-14362590D01*
X9167971Y-14372114D01*
X9177495Y-14391162D01*
X9177495Y-14438781D01*
X9167971Y-14457828D01*
X9158448Y-14467352D01*
X9139400Y-14476876D01*
X9082257Y-14476876D01*
X9063210Y-14467352D01*
X9053686Y-14457828D01*
X9301305Y-14276876D02*
X9320352Y-14276876D01*
X9339400Y-14286400D01*
X9348924Y-14295924D01*
X9358448Y-14314971D01*
X9367971Y-14353067D01*
X9367971Y-14400686D01*
X9358448Y-14438781D01*
X9348924Y-14457828D01*
X9339400Y-14467352D01*
X9320352Y-14476876D01*
X9301305Y-14476876D01*
X9282257Y-14467352D01*
X9272733Y-14457828D01*
X9263210Y-14438781D01*
X9253686Y-14400686D01*
X9253686Y-14353067D01*
X9263210Y-14314971D01*
X9272733Y-14295924D01*
X9282257Y-14286400D01*
X9301305Y-14276876D01*
X9491781Y-14276876D02*
X9510829Y-14276876D01*
X9529876Y-14286400D01*
X9539400Y-14295924D01*
X9548924Y-14314971D01*
X9558448Y-14353067D01*
X9558448Y-14400686D01*
X9548924Y-14438781D01*
X9539400Y-14457828D01*
X9529876Y-14467352D01*
X9510829Y-14476876D01*
X9491781Y-14476876D01*
X9472733Y-14467352D01*
X9463210Y-14457828D01*
X9453686Y-14438781D01*
X9444162Y-14400686D01*
X9444162Y-14353067D01*
X9453686Y-14314971D01*
X9463210Y-14295924D01*
X9472733Y-14286400D01*
X9491781Y-14276876D01*
X9644162Y-14476876D02*
X9644162Y-14343543D01*
X9644162Y-14362590D02*
X9653686Y-14353067D01*
X9672733Y-14343543D01*
X9701305Y-14343543D01*
X9720352Y-14353067D01*
X9729876Y-14372114D01*
X9729876Y-14476876D01*
X9729876Y-14372114D02*
X9739400Y-14353067D01*
X9758448Y-14343543D01*
X9787019Y-14343543D01*
X9806067Y-14353067D01*
X9815590Y-14372114D01*
X9815590Y-14476876D01*
X9910829Y-14476876D02*
X9910829Y-14343543D01*
X9910829Y-14362590D02*
X9920352Y-14353067D01*
X9939400Y-14343543D01*
X9967971Y-14343543D01*
X9987019Y-14353067D01*
X9996543Y-14372114D01*
X9996543Y-14476876D01*
X9996543Y-14372114D02*
X10006067Y-14353067D01*
X10025114Y-14343543D01*
X10053686Y-14343543D01*
X10072733Y-14353067D01*
X10082257Y-14372114D01*
X10082257Y-14476876D01*
X10472733Y-14267352D02*
X10301305Y-14524495D01*
X10729876Y-14276876D02*
X10748924Y-14276876D01*
X10767971Y-14286400D01*
X10777495Y-14295924D01*
X10787019Y-14314971D01*
X10796543Y-14353067D01*
X10796543Y-14400686D01*
X10787019Y-14438781D01*
X10777495Y-14457828D01*
X10767971Y-14467352D01*
X10748924Y-14476876D01*
X10729876Y-14476876D01*
X10710829Y-14467352D01*
X10701305Y-14457828D01*
X10691781Y-14438781D01*
X10682257Y-14400686D01*
X10682257Y-14353067D01*
X10691781Y-14314971D01*
X10701305Y-14295924D01*
X10710829Y-14286400D01*
X10729876Y-14276876D01*
X10882257Y-14457828D02*
X10891781Y-14467352D01*
X10882257Y-14476876D01*
X10872733Y-14467352D01*
X10882257Y-14457828D01*
X10882257Y-14476876D01*
X11015590Y-14276876D02*
X11034638Y-14276876D01*
X11053686Y-14286400D01*
X11063210Y-14295924D01*
X11072733Y-14314971D01*
X11082257Y-14353067D01*
X11082257Y-14400686D01*
X11072733Y-14438781D01*
X11063210Y-14457828D01*
X11053686Y-14467352D01*
X11034638Y-14476876D01*
X11015590Y-14476876D01*
X10996543Y-14467352D01*
X10987019Y-14457828D01*
X10977495Y-14438781D01*
X10967971Y-14400686D01*
X10967971Y-14353067D01*
X10977495Y-14314971D01*
X10987019Y-14295924D01*
X10996543Y-14286400D01*
X11015590Y-14276876D01*
X11272733Y-14476876D02*
X11158448Y-14476876D01*
X11215590Y-14476876D02*
X11215590Y-14276876D01*
X11196543Y-14305448D01*
X11177495Y-14324495D01*
X11158448Y-14334019D01*
X11463209Y-14476876D02*
X11348924Y-14476876D01*
X11406067Y-14476876D02*
X11406067Y-14276876D01*
X11387019Y-14305448D01*
X11367971Y-14324495D01*
X11348924Y-14334019D01*
X11577495Y-14362590D02*
X11558448Y-14353067D01*
X11548924Y-14343543D01*
X11539400Y-14324495D01*
X11539400Y-14314971D01*
X11548924Y-14295924D01*
X11558448Y-14286400D01*
X11577495Y-14276876D01*
X11615590Y-14276876D01*
X11634638Y-14286400D01*
X11644162Y-14295924D01*
X11653686Y-14314971D01*
X11653686Y-14324495D01*
X11644162Y-14343543D01*
X11634638Y-14353067D01*
X11615590Y-14362590D01*
X11577495Y-14362590D01*
X11558448Y-14372114D01*
X11548924Y-14381638D01*
X11539400Y-14400686D01*
X11539400Y-14438781D01*
X11548924Y-14457828D01*
X11558448Y-14467352D01*
X11577495Y-14476876D01*
X11615590Y-14476876D01*
X11634638Y-14467352D01*
X11644162Y-14457828D01*
X11653686Y-14438781D01*
X11653686Y-14400686D01*
X11644162Y-14381638D01*
X11634638Y-14372114D01*
X11615590Y-14362590D01*
X11729876Y-14276876D02*
X11729876Y-14314971D01*
X11806067Y-14276876D02*
X11806067Y-14314971D01*
X12101305Y-14553067D02*
X12091781Y-14543543D01*
X12072733Y-14514971D01*
X12063209Y-14495924D01*
X12053686Y-14467352D01*
X12044162Y-14419733D01*
X12044162Y-14381638D01*
X12053686Y-14334019D01*
X12063209Y-14305448D01*
X12072733Y-14286400D01*
X12091781Y-14257828D01*
X12101305Y-14248305D01*
X12282257Y-14476876D02*
X12167971Y-14476876D01*
X12225114Y-14476876D02*
X12225114Y-14276876D01*
X12206067Y-14305448D01*
X12187019Y-14324495D01*
X12167971Y-14334019D01*
X12453686Y-14276876D02*
X12415590Y-14276876D01*
X12396543Y-14286400D01*
X12387019Y-14295924D01*
X12367971Y-14324495D01*
X12358448Y-14362590D01*
X12358448Y-14438781D01*
X12367971Y-14457828D01*
X12377495Y-14467352D01*
X12396543Y-14476876D01*
X12434638Y-14476876D01*
X12453686Y-14467352D01*
X12463209Y-14457828D01*
X12472733Y-14438781D01*
X12472733Y-14391162D01*
X12463209Y-14372114D01*
X12453686Y-14362590D01*
X12434638Y-14353067D01*
X12396543Y-14353067D01*
X12377495Y-14362590D01*
X12367971Y-14372114D01*
X12358448Y-14391162D01*
X12710828Y-14476876D02*
X12710828Y-14276876D01*
X12796543Y-14476876D02*
X12796543Y-14372114D01*
X12787019Y-14353067D01*
X12767971Y-14343543D01*
X12739400Y-14343543D01*
X12720352Y-14353067D01*
X12710828Y-14362590D01*
X12920352Y-14476876D02*
X12901305Y-14467352D01*
X12891781Y-14457828D01*
X12882257Y-14438781D01*
X12882257Y-14381638D01*
X12891781Y-14362590D01*
X12901305Y-14353067D01*
X12920352Y-14343543D01*
X12948924Y-14343543D01*
X12967971Y-14353067D01*
X12977495Y-14362590D01*
X12987019Y-14381638D01*
X12987019Y-14438781D01*
X12977495Y-14457828D01*
X12967971Y-14467352D01*
X12948924Y-14476876D01*
X12920352Y-14476876D01*
X13101305Y-14476876D02*
X13082257Y-14467352D01*
X13072733Y-14448305D01*
X13072733Y-14276876D01*
X13253686Y-14467352D02*
X13234638Y-14476876D01*
X13196543Y-14476876D01*
X13177495Y-14467352D01*
X13167971Y-14448305D01*
X13167971Y-14372114D01*
X13177495Y-14353067D01*
X13196543Y-14343543D01*
X13234638Y-14343543D01*
X13253686Y-14353067D01*
X13263209Y-14372114D01*
X13263209Y-14391162D01*
X13167971Y-14410209D01*
X13339400Y-14467352D02*
X13358448Y-14476876D01*
X13396543Y-14476876D01*
X13415590Y-14467352D01*
X13425114Y-14448305D01*
X13425114Y-14438781D01*
X13415590Y-14419733D01*
X13396543Y-14410209D01*
X13367971Y-14410209D01*
X13348924Y-14400686D01*
X13339400Y-14381638D01*
X13339400Y-14372114D01*
X13348924Y-14353067D01*
X13367971Y-14343543D01*
X13396543Y-14343543D01*
X13415590Y-14353067D01*
X13491781Y-14553067D02*
X13501305Y-14543543D01*
X13520352Y-14514971D01*
X13529876Y-14495924D01*
X13539400Y-14467352D01*
X13548924Y-14419733D01*
X13548924Y-14381638D01*
X13539400Y-14334019D01*
X13529876Y-14305448D01*
X13520352Y-14286400D01*
X13501305Y-14257828D01*
X13491781Y-14248305D01*
D13*
X8529400Y-14650400D02*
G75*
G03*
X8529400Y-14650400I-20000J0D01*
G01*
D11*
X8825114Y-14540876D02*
X8844162Y-14540876D01*
X8863210Y-14550400D01*
X8872733Y-14559924D01*
X8882257Y-14578971D01*
X8891781Y-14617067D01*
X8891781Y-14664686D01*
X8882257Y-14702781D01*
X8872733Y-14721828D01*
X8863210Y-14731352D01*
X8844162Y-14740876D01*
X8825114Y-14740876D01*
X8806067Y-14731352D01*
X8796543Y-14721828D01*
X8787019Y-14702781D01*
X8777495Y-14664686D01*
X8777495Y-14617067D01*
X8787019Y-14578971D01*
X8796543Y-14559924D01*
X8806067Y-14550400D01*
X8825114Y-14540876D01*
X8977495Y-14721828D02*
X8987019Y-14731352D01*
X8977495Y-14740876D01*
X8967971Y-14731352D01*
X8977495Y-14721828D01*
X8977495Y-14740876D01*
X9158448Y-14607543D02*
X9158448Y-14740876D01*
X9110829Y-14531352D02*
X9063210Y-14674209D01*
X9187019Y-14674209D01*
X9301305Y-14540876D02*
X9320352Y-14540876D01*
X9339400Y-14550400D01*
X9348924Y-14559924D01*
X9358448Y-14578971D01*
X9367971Y-14617067D01*
X9367971Y-14664686D01*
X9358448Y-14702781D01*
X9348924Y-14721828D01*
X9339400Y-14731352D01*
X9320352Y-14740876D01*
X9301305Y-14740876D01*
X9282257Y-14731352D01*
X9272733Y-14721828D01*
X9263210Y-14702781D01*
X9253686Y-14664686D01*
X9253686Y-14617067D01*
X9263210Y-14578971D01*
X9272733Y-14559924D01*
X9282257Y-14550400D01*
X9301305Y-14540876D01*
X9491781Y-14540876D02*
X9510829Y-14540876D01*
X9529876Y-14550400D01*
X9539400Y-14559924D01*
X9548924Y-14578971D01*
X9558448Y-14617067D01*
X9558448Y-14664686D01*
X9548924Y-14702781D01*
X9539400Y-14721828D01*
X9529876Y-14731352D01*
X9510829Y-14740876D01*
X9491781Y-14740876D01*
X9472733Y-14731352D01*
X9463210Y-14721828D01*
X9453686Y-14702781D01*
X9444162Y-14664686D01*
X9444162Y-14617067D01*
X9453686Y-14578971D01*
X9463210Y-14559924D01*
X9472733Y-14550400D01*
X9491781Y-14540876D01*
X9644162Y-14740876D02*
X9644162Y-14607543D01*
X9644162Y-14626590D02*
X9653686Y-14617067D01*
X9672733Y-14607543D01*
X9701305Y-14607543D01*
X9720352Y-14617067D01*
X9729876Y-14636114D01*
X9729876Y-14740876D01*
X9729876Y-14636114D02*
X9739400Y-14617067D01*
X9758448Y-14607543D01*
X9787019Y-14607543D01*
X9806067Y-14617067D01*
X9815590Y-14636114D01*
X9815590Y-14740876D01*
X9910829Y-14740876D02*
X9910829Y-14607543D01*
X9910829Y-14626590D02*
X9920352Y-14617067D01*
X9939400Y-14607543D01*
X9967971Y-14607543D01*
X9987019Y-14617067D01*
X9996543Y-14636114D01*
X9996543Y-14740876D01*
X9996543Y-14636114D02*
X10006067Y-14617067D01*
X10025114Y-14607543D01*
X10053686Y-14607543D01*
X10072733Y-14617067D01*
X10082257Y-14636114D01*
X10082257Y-14740876D01*
X10472733Y-14531352D02*
X10301305Y-14788495D01*
X10729876Y-14540876D02*
X10748924Y-14540876D01*
X10767971Y-14550400D01*
X10777495Y-14559924D01*
X10787019Y-14578971D01*
X10796543Y-14617067D01*
X10796543Y-14664686D01*
X10787019Y-14702781D01*
X10777495Y-14721828D01*
X10767971Y-14731352D01*
X10748924Y-14740876D01*
X10729876Y-14740876D01*
X10710829Y-14731352D01*
X10701305Y-14721828D01*
X10691781Y-14702781D01*
X10682257Y-14664686D01*
X10682257Y-14617067D01*
X10691781Y-14578971D01*
X10701305Y-14559924D01*
X10710829Y-14550400D01*
X10729876Y-14540876D01*
X10882257Y-14721828D02*
X10891781Y-14731352D01*
X10882257Y-14740876D01*
X10872733Y-14731352D01*
X10882257Y-14721828D01*
X10882257Y-14740876D01*
X11015590Y-14540876D02*
X11034638Y-14540876D01*
X11053686Y-14550400D01*
X11063210Y-14559924D01*
X11072733Y-14578971D01*
X11082257Y-14617067D01*
X11082257Y-14664686D01*
X11072733Y-14702781D01*
X11063210Y-14721828D01*
X11053686Y-14731352D01*
X11034638Y-14740876D01*
X11015590Y-14740876D01*
X10996543Y-14731352D01*
X10987019Y-14721828D01*
X10977495Y-14702781D01*
X10967971Y-14664686D01*
X10967971Y-14617067D01*
X10977495Y-14578971D01*
X10987019Y-14559924D01*
X10996543Y-14550400D01*
X11015590Y-14540876D01*
X11272733Y-14740876D02*
X11158448Y-14740876D01*
X11215590Y-14740876D02*
X11215590Y-14540876D01*
X11196543Y-14569448D01*
X11177495Y-14588495D01*
X11158448Y-14598019D01*
X11453686Y-14540876D02*
X11358448Y-14540876D01*
X11348924Y-14636114D01*
X11358448Y-14626590D01*
X11377495Y-14617067D01*
X11425114Y-14617067D01*
X11444162Y-14626590D01*
X11453686Y-14636114D01*
X11463209Y-14655162D01*
X11463209Y-14702781D01*
X11453686Y-14721828D01*
X11444162Y-14731352D01*
X11425114Y-14740876D01*
X11377495Y-14740876D01*
X11358448Y-14731352D01*
X11348924Y-14721828D01*
X11529876Y-14540876D02*
X11663209Y-14540876D01*
X11577495Y-14740876D01*
X11729876Y-14540876D02*
X11729876Y-14578971D01*
X11806067Y-14540876D02*
X11806067Y-14578971D01*
X12101305Y-14817067D02*
X12091781Y-14807543D01*
X12072733Y-14778971D01*
X12063209Y-14759924D01*
X12053686Y-14731352D01*
X12044162Y-14683733D01*
X12044162Y-14645638D01*
X12053686Y-14598019D01*
X12063209Y-14569448D01*
X12072733Y-14550400D01*
X12091781Y-14521828D01*
X12101305Y-14512305D01*
X12282257Y-14740876D02*
X12167971Y-14740876D01*
X12225114Y-14740876D02*
X12225114Y-14540876D01*
X12206067Y-14569448D01*
X12187019Y-14588495D01*
X12167971Y-14598019D01*
X12406067Y-14540876D02*
X12425114Y-14540876D01*
X12444162Y-14550400D01*
X12453686Y-14559924D01*
X12463209Y-14578971D01*
X12472733Y-14617067D01*
X12472733Y-14664686D01*
X12463209Y-14702781D01*
X12453686Y-14721828D01*
X12444162Y-14731352D01*
X12425114Y-14740876D01*
X12406067Y-14740876D01*
X12387019Y-14731352D01*
X12377495Y-14721828D01*
X12367971Y-14702781D01*
X12358448Y-14664686D01*
X12358448Y-14617067D01*
X12367971Y-14578971D01*
X12377495Y-14559924D01*
X12387019Y-14550400D01*
X12406067Y-14540876D01*
X12596543Y-14540876D02*
X12615590Y-14540876D01*
X12634638Y-14550400D01*
X12644162Y-14559924D01*
X12653686Y-14578971D01*
X12663209Y-14617067D01*
X12663209Y-14664686D01*
X12653686Y-14702781D01*
X12644162Y-14721828D01*
X12634638Y-14731352D01*
X12615590Y-14740876D01*
X12596543Y-14740876D01*
X12577495Y-14731352D01*
X12567971Y-14721828D01*
X12558448Y-14702781D01*
X12548924Y-14664686D01*
X12548924Y-14617067D01*
X12558448Y-14578971D01*
X12567971Y-14559924D01*
X12577495Y-14550400D01*
X12596543Y-14540876D01*
X12901305Y-14740876D02*
X12901305Y-14540876D01*
X12987019Y-14740876D02*
X12987019Y-14636114D01*
X12977495Y-14617067D01*
X12958448Y-14607543D01*
X12929876Y-14607543D01*
X12910828Y-14617067D01*
X12901305Y-14626590D01*
X13110828Y-14740876D02*
X13091781Y-14731352D01*
X13082257Y-14721828D01*
X13072733Y-14702781D01*
X13072733Y-14645638D01*
X13082257Y-14626590D01*
X13091781Y-14617067D01*
X13110828Y-14607543D01*
X13139400Y-14607543D01*
X13158448Y-14617067D01*
X13167971Y-14626590D01*
X13177495Y-14645638D01*
X13177495Y-14702781D01*
X13167971Y-14721828D01*
X13158448Y-14731352D01*
X13139400Y-14740876D01*
X13110828Y-14740876D01*
X13291781Y-14740876D02*
X13272733Y-14731352D01*
X13263209Y-14712305D01*
X13263209Y-14540876D01*
X13444162Y-14731352D02*
X13425114Y-14740876D01*
X13387019Y-14740876D01*
X13367971Y-14731352D01*
X13358448Y-14712305D01*
X13358448Y-14636114D01*
X13367971Y-14617067D01*
X13387019Y-14607543D01*
X13425114Y-14607543D01*
X13444162Y-14617067D01*
X13453686Y-14636114D01*
X13453686Y-14655162D01*
X13358448Y-14674209D01*
X13529876Y-14731352D02*
X13548924Y-14740876D01*
X13587019Y-14740876D01*
X13606067Y-14731352D01*
X13615590Y-14712305D01*
X13615590Y-14702781D01*
X13606067Y-14683733D01*
X13587019Y-14674209D01*
X13558448Y-14674209D01*
X13539400Y-14664686D01*
X13529876Y-14645638D01*
X13529876Y-14636114D01*
X13539400Y-14617067D01*
X13558448Y-14607543D01*
X13587019Y-14607543D01*
X13606067Y-14617067D01*
X13682257Y-14817067D02*
X13691781Y-14807543D01*
X13710828Y-14778971D01*
X13720352Y-14759924D01*
X13729876Y-14731352D01*
X13739400Y-14683733D01*
X13739400Y-14645638D01*
X13729876Y-14598019D01*
X13720352Y-14569448D01*
X13710828Y-14550400D01*
X13691781Y-14521828D01*
X13682257Y-14512305D01*
D14*
X8479400Y-14864400D02*
X8479400Y-14964400D01*
X8429400Y-14914400D02*
X8529400Y-14914400D01*
D11*
X8891781Y-15004876D02*
X8777495Y-15004876D01*
X8834638Y-15004876D02*
X8834638Y-14804876D01*
X8815590Y-14833448D01*
X8796543Y-14852495D01*
X8777495Y-14862019D01*
X8977495Y-14985828D02*
X8987019Y-14995352D01*
X8977495Y-15004876D01*
X8967971Y-14995352D01*
X8977495Y-14985828D01*
X8977495Y-15004876D01*
X9110829Y-14804876D02*
X9129876Y-14804876D01*
X9148924Y-14814400D01*
X9158448Y-14823924D01*
X9167971Y-14842971D01*
X9177495Y-14881067D01*
X9177495Y-14928686D01*
X9167971Y-14966781D01*
X9158448Y-14985828D01*
X9148924Y-14995352D01*
X9129876Y-15004876D01*
X9110829Y-15004876D01*
X9091781Y-14995352D01*
X9082257Y-14985828D01*
X9072733Y-14966781D01*
X9063210Y-14928686D01*
X9063210Y-14881067D01*
X9072733Y-14842971D01*
X9082257Y-14823924D01*
X9091781Y-14814400D01*
X9110829Y-14804876D01*
X9301305Y-14804876D02*
X9320352Y-14804876D01*
X9339400Y-14814400D01*
X9348924Y-14823924D01*
X9358448Y-14842971D01*
X9367971Y-14881067D01*
X9367971Y-14928686D01*
X9358448Y-14966781D01*
X9348924Y-14985828D01*
X9339400Y-14995352D01*
X9320352Y-15004876D01*
X9301305Y-15004876D01*
X9282257Y-14995352D01*
X9272733Y-14985828D01*
X9263210Y-14966781D01*
X9253686Y-14928686D01*
X9253686Y-14881067D01*
X9263210Y-14842971D01*
X9272733Y-14823924D01*
X9282257Y-14814400D01*
X9301305Y-14804876D01*
X9491781Y-14804876D02*
X9510829Y-14804876D01*
X9529876Y-14814400D01*
X9539400Y-14823924D01*
X9548924Y-14842971D01*
X9558448Y-14881067D01*
X9558448Y-14928686D01*
X9548924Y-14966781D01*
X9539400Y-14985828D01*
X9529876Y-14995352D01*
X9510829Y-15004876D01*
X9491781Y-15004876D01*
X9472733Y-14995352D01*
X9463210Y-14985828D01*
X9453686Y-14966781D01*
X9444162Y-14928686D01*
X9444162Y-14881067D01*
X9453686Y-14842971D01*
X9463210Y-14823924D01*
X9472733Y-14814400D01*
X9491781Y-14804876D01*
X9644162Y-15004876D02*
X9644162Y-14871543D01*
X9644162Y-14890590D02*
X9653686Y-14881067D01*
X9672733Y-14871543D01*
X9701305Y-14871543D01*
X9720352Y-14881067D01*
X9729876Y-14900114D01*
X9729876Y-15004876D01*
X9729876Y-14900114D02*
X9739400Y-14881067D01*
X9758448Y-14871543D01*
X9787019Y-14871543D01*
X9806067Y-14881067D01*
X9815590Y-14900114D01*
X9815590Y-15004876D01*
X9910829Y-15004876D02*
X9910829Y-14871543D01*
X9910829Y-14890590D02*
X9920352Y-14881067D01*
X9939400Y-14871543D01*
X9967971Y-14871543D01*
X9987019Y-14881067D01*
X9996543Y-14900114D01*
X9996543Y-15004876D01*
X9996543Y-14900114D02*
X10006067Y-14881067D01*
X10025114Y-14871543D01*
X10053686Y-14871543D01*
X10072733Y-14881067D01*
X10082257Y-14900114D01*
X10082257Y-15004876D01*
X10472733Y-14795352D02*
X10301305Y-15052495D01*
X10729876Y-14804876D02*
X10748924Y-14804876D01*
X10767971Y-14814400D01*
X10777495Y-14823924D01*
X10787019Y-14842971D01*
X10796543Y-14881067D01*
X10796543Y-14928686D01*
X10787019Y-14966781D01*
X10777495Y-14985828D01*
X10767971Y-14995352D01*
X10748924Y-15004876D01*
X10729876Y-15004876D01*
X10710829Y-14995352D01*
X10701305Y-14985828D01*
X10691781Y-14966781D01*
X10682257Y-14928686D01*
X10682257Y-14881067D01*
X10691781Y-14842971D01*
X10701305Y-14823924D01*
X10710829Y-14814400D01*
X10729876Y-14804876D01*
X10882257Y-14985828D02*
X10891781Y-14995352D01*
X10882257Y-15004876D01*
X10872733Y-14995352D01*
X10882257Y-14985828D01*
X10882257Y-15004876D01*
X11015590Y-14804876D02*
X11034638Y-14804876D01*
X11053686Y-14814400D01*
X11063210Y-14823924D01*
X11072733Y-14842971D01*
X11082257Y-14881067D01*
X11082257Y-14928686D01*
X11072733Y-14966781D01*
X11063210Y-14985828D01*
X11053686Y-14995352D01*
X11034638Y-15004876D01*
X11015590Y-15004876D01*
X10996543Y-14995352D01*
X10987019Y-14985828D01*
X10977495Y-14966781D01*
X10967971Y-14928686D01*
X10967971Y-14881067D01*
X10977495Y-14842971D01*
X10987019Y-14823924D01*
X10996543Y-14814400D01*
X11015590Y-14804876D01*
X11148924Y-14804876D02*
X11272733Y-14804876D01*
X11206067Y-14881067D01*
X11234638Y-14881067D01*
X11253686Y-14890590D01*
X11263209Y-14900114D01*
X11272733Y-14919162D01*
X11272733Y-14966781D01*
X11263209Y-14985828D01*
X11253686Y-14995352D01*
X11234638Y-15004876D01*
X11177495Y-15004876D01*
X11158448Y-14995352D01*
X11148924Y-14985828D01*
X11367971Y-15004876D02*
X11406067Y-15004876D01*
X11425114Y-14995352D01*
X11434638Y-14985828D01*
X11453686Y-14957257D01*
X11463209Y-14919162D01*
X11463209Y-14842971D01*
X11453686Y-14823924D01*
X11444162Y-14814400D01*
X11425114Y-14804876D01*
X11387019Y-14804876D01*
X11367971Y-14814400D01*
X11358448Y-14823924D01*
X11348924Y-14842971D01*
X11348924Y-14890590D01*
X11358448Y-14909638D01*
X11367971Y-14919162D01*
X11387019Y-14928686D01*
X11425114Y-14928686D01*
X11444162Y-14919162D01*
X11453686Y-14909638D01*
X11463209Y-14890590D01*
X11634638Y-14871543D02*
X11634638Y-15004876D01*
X11587019Y-14795352D02*
X11539400Y-14938209D01*
X11663209Y-14938209D01*
X11729876Y-14804876D02*
X11729876Y-14842971D01*
X11806067Y-14804876D02*
X11806067Y-14842971D01*
X12101305Y-15081067D02*
X12091781Y-15071543D01*
X12072733Y-15042971D01*
X12063209Y-15023924D01*
X12053686Y-14995352D01*
X12044162Y-14947733D01*
X12044162Y-14909638D01*
X12053686Y-14862019D01*
X12063209Y-14833448D01*
X12072733Y-14814400D01*
X12091781Y-14785828D01*
X12101305Y-14776305D01*
X12272733Y-14804876D02*
X12177495Y-14804876D01*
X12167971Y-14900114D01*
X12177495Y-14890590D01*
X12196543Y-14881067D01*
X12244162Y-14881067D01*
X12263209Y-14890590D01*
X12272733Y-14900114D01*
X12282257Y-14919162D01*
X12282257Y-14966781D01*
X12272733Y-14985828D01*
X12263209Y-14995352D01*
X12244162Y-15004876D01*
X12196543Y-15004876D01*
X12177495Y-14995352D01*
X12167971Y-14985828D01*
X12396543Y-14890590D02*
X12377495Y-14881067D01*
X12367971Y-14871543D01*
X12358448Y-14852495D01*
X12358448Y-14842971D01*
X12367971Y-14823924D01*
X12377495Y-14814400D01*
X12396543Y-14804876D01*
X12434638Y-14804876D01*
X12453686Y-14814400D01*
X12463209Y-14823924D01*
X12472733Y-14842971D01*
X12472733Y-14852495D01*
X12463209Y-14871543D01*
X12453686Y-14881067D01*
X12434638Y-14890590D01*
X12396543Y-14890590D01*
X12377495Y-14900114D01*
X12367971Y-14909638D01*
X12358448Y-14928686D01*
X12358448Y-14966781D01*
X12367971Y-14985828D01*
X12377495Y-14995352D01*
X12396543Y-15004876D01*
X12434638Y-15004876D01*
X12453686Y-14995352D01*
X12463209Y-14985828D01*
X12472733Y-14966781D01*
X12472733Y-14928686D01*
X12463209Y-14909638D01*
X12453686Y-14900114D01*
X12434638Y-14890590D01*
X12710828Y-15004876D02*
X12710828Y-14804876D01*
X12796543Y-15004876D02*
X12796543Y-14900114D01*
X12787019Y-14881067D01*
X12767971Y-14871543D01*
X12739400Y-14871543D01*
X12720352Y-14881067D01*
X12710828Y-14890590D01*
X12920352Y-15004876D02*
X12901305Y-14995352D01*
X12891781Y-14985828D01*
X12882257Y-14966781D01*
X12882257Y-14909638D01*
X12891781Y-14890590D01*
X12901305Y-14881067D01*
X12920352Y-14871543D01*
X12948924Y-14871543D01*
X12967971Y-14881067D01*
X12977495Y-14890590D01*
X12987019Y-14909638D01*
X12987019Y-14966781D01*
X12977495Y-14985828D01*
X12967971Y-14995352D01*
X12948924Y-15004876D01*
X12920352Y-15004876D01*
X13101305Y-15004876D02*
X13082257Y-14995352D01*
X13072733Y-14976305D01*
X13072733Y-14804876D01*
X13253686Y-14995352D02*
X13234638Y-15004876D01*
X13196543Y-15004876D01*
X13177495Y-14995352D01*
X13167971Y-14976305D01*
X13167971Y-14900114D01*
X13177495Y-14881067D01*
X13196543Y-14871543D01*
X13234638Y-14871543D01*
X13253686Y-14881067D01*
X13263209Y-14900114D01*
X13263209Y-14919162D01*
X13167971Y-14938209D01*
X13339400Y-14995352D02*
X13358448Y-15004876D01*
X13396543Y-15004876D01*
X13415590Y-14995352D01*
X13425114Y-14976305D01*
X13425114Y-14966781D01*
X13415590Y-14947733D01*
X13396543Y-14938209D01*
X13367971Y-14938209D01*
X13348924Y-14928686D01*
X13339400Y-14909638D01*
X13339400Y-14900114D01*
X13348924Y-14881067D01*
X13367971Y-14871543D01*
X13396543Y-14871543D01*
X13415590Y-14881067D01*
X13663209Y-14928686D02*
X13815590Y-14928686D01*
X13739400Y-15004876D02*
X13739400Y-14852495D01*
X14044162Y-14804876D02*
X14167971Y-14804876D01*
X14101305Y-14881067D01*
X14129876Y-14881067D01*
X14148924Y-14890590D01*
X14158448Y-14900114D01*
X14167971Y-14919162D01*
X14167971Y-14966781D01*
X14158448Y-14985828D01*
X14148924Y-14995352D01*
X14129876Y-15004876D01*
X14072733Y-15004876D01*
X14053686Y-14995352D01*
X14044162Y-14985828D01*
X14396543Y-14995352D02*
X14415590Y-15004876D01*
X14453686Y-15004876D01*
X14472733Y-14995352D01*
X14482257Y-14976305D01*
X14482257Y-14966781D01*
X14472733Y-14947733D01*
X14453686Y-14938209D01*
X14425114Y-14938209D01*
X14406067Y-14928686D01*
X14396543Y-14909638D01*
X14396543Y-14900114D01*
X14406067Y-14881067D01*
X14425114Y-14871543D01*
X14453686Y-14871543D01*
X14472733Y-14881067D01*
X14596543Y-15004876D02*
X14577495Y-14995352D01*
X14567971Y-14976305D01*
X14567971Y-14804876D01*
X14701305Y-15004876D02*
X14682257Y-14995352D01*
X14672733Y-14985828D01*
X14663209Y-14966781D01*
X14663209Y-14909638D01*
X14672733Y-14890590D01*
X14682257Y-14881067D01*
X14701305Y-14871543D01*
X14729876Y-14871543D01*
X14748924Y-14881067D01*
X14758448Y-14890590D01*
X14767971Y-14909638D01*
X14767971Y-14966781D01*
X14758448Y-14985828D01*
X14748924Y-14995352D01*
X14729876Y-15004876D01*
X14701305Y-15004876D01*
X14825114Y-14871543D02*
X14901305Y-14871543D01*
X14853686Y-14804876D02*
X14853686Y-14976305D01*
X14863209Y-14995352D01*
X14882257Y-15004876D01*
X14901305Y-15004876D01*
X14958448Y-14995352D02*
X14977495Y-15004876D01*
X15015590Y-15004876D01*
X15034638Y-14995352D01*
X15044162Y-14976305D01*
X15044162Y-14966781D01*
X15034638Y-14947733D01*
X15015590Y-14938209D01*
X14987019Y-14938209D01*
X14967971Y-14928686D01*
X14958448Y-14909638D01*
X14958448Y-14900114D01*
X14967971Y-14881067D01*
X14987019Y-14871543D01*
X15015590Y-14871543D01*
X15034638Y-14881067D01*
X15110828Y-15081067D02*
X15120352Y-15071543D01*
X15139400Y-15042971D01*
X15148924Y-15023924D01*
X15158448Y-14995352D01*
X15167971Y-14947733D01*
X15167971Y-14909638D01*
X15158448Y-14862019D01*
X15148924Y-14833448D01*
X15139400Y-14814400D01*
X15120352Y-14785828D01*
X15110828Y-14776305D01*
D15*
X8513291Y-15217291D02*
X8513291Y-15139509D01*
X8435509Y-15139509D01*
X8435509Y-15217291D01*
X8513291Y-15217291D01*
D11*
X8891781Y-15268876D02*
X8777495Y-15268876D01*
X8834638Y-15268876D02*
X8834638Y-15068876D01*
X8815590Y-15097448D01*
X8796543Y-15116495D01*
X8777495Y-15126019D01*
X8977495Y-15249828D02*
X8987019Y-15259352D01*
X8977495Y-15268876D01*
X8967971Y-15259352D01*
X8977495Y-15249828D01*
X8977495Y-15268876D01*
X9177495Y-15268876D02*
X9063210Y-15268876D01*
X9120352Y-15268876D02*
X9120352Y-15068876D01*
X9101305Y-15097448D01*
X9082257Y-15116495D01*
X9063210Y-15126019D01*
X9301305Y-15068876D02*
X9320352Y-15068876D01*
X9339400Y-15078400D01*
X9348924Y-15087924D01*
X9358448Y-15106971D01*
X9367971Y-15145067D01*
X9367971Y-15192686D01*
X9358448Y-15230781D01*
X9348924Y-15249828D01*
X9339400Y-15259352D01*
X9320352Y-15268876D01*
X9301305Y-15268876D01*
X9282257Y-15259352D01*
X9272733Y-15249828D01*
X9263210Y-15230781D01*
X9253686Y-15192686D01*
X9253686Y-15145067D01*
X9263210Y-15106971D01*
X9272733Y-15087924D01*
X9282257Y-15078400D01*
X9301305Y-15068876D01*
X9491781Y-15068876D02*
X9510829Y-15068876D01*
X9529876Y-15078400D01*
X9539400Y-15087924D01*
X9548924Y-15106971D01*
X9558448Y-15145067D01*
X9558448Y-15192686D01*
X9548924Y-15230781D01*
X9539400Y-15249828D01*
X9529876Y-15259352D01*
X9510829Y-15268876D01*
X9491781Y-15268876D01*
X9472733Y-15259352D01*
X9463210Y-15249828D01*
X9453686Y-15230781D01*
X9444162Y-15192686D01*
X9444162Y-15145067D01*
X9453686Y-15106971D01*
X9463210Y-15087924D01*
X9472733Y-15078400D01*
X9491781Y-15068876D01*
X9644162Y-15268876D02*
X9644162Y-15135543D01*
X9644162Y-15154590D02*
X9653686Y-15145067D01*
X9672733Y-15135543D01*
X9701305Y-15135543D01*
X9720352Y-15145067D01*
X9729876Y-15164114D01*
X9729876Y-15268876D01*
X9729876Y-15164114D02*
X9739400Y-15145067D01*
X9758448Y-15135543D01*
X9787019Y-15135543D01*
X9806067Y-15145067D01*
X9815590Y-15164114D01*
X9815590Y-15268876D01*
X9910829Y-15268876D02*
X9910829Y-15135543D01*
X9910829Y-15154590D02*
X9920352Y-15145067D01*
X9939400Y-15135543D01*
X9967971Y-15135543D01*
X9987019Y-15145067D01*
X9996543Y-15164114D01*
X9996543Y-15268876D01*
X9996543Y-15164114D02*
X10006067Y-15145067D01*
X10025114Y-15135543D01*
X10053686Y-15135543D01*
X10072733Y-15145067D01*
X10082257Y-15164114D01*
X10082257Y-15268876D01*
X10472733Y-15059352D02*
X10301305Y-15316495D01*
X10729876Y-15068876D02*
X10748924Y-15068876D01*
X10767971Y-15078400D01*
X10777495Y-15087924D01*
X10787019Y-15106971D01*
X10796543Y-15145067D01*
X10796543Y-15192686D01*
X10787019Y-15230781D01*
X10777495Y-15249828D01*
X10767971Y-15259352D01*
X10748924Y-15268876D01*
X10729876Y-15268876D01*
X10710829Y-15259352D01*
X10701305Y-15249828D01*
X10691781Y-15230781D01*
X10682257Y-15192686D01*
X10682257Y-15145067D01*
X10691781Y-15106971D01*
X10701305Y-15087924D01*
X10710829Y-15078400D01*
X10729876Y-15068876D01*
X10882257Y-15249828D02*
X10891781Y-15259352D01*
X10882257Y-15268876D01*
X10872733Y-15259352D01*
X10882257Y-15249828D01*
X10882257Y-15268876D01*
X11015590Y-15068876D02*
X11034638Y-15068876D01*
X11053686Y-15078400D01*
X11063210Y-15087924D01*
X11072733Y-15106971D01*
X11082257Y-15145067D01*
X11082257Y-15192686D01*
X11072733Y-15230781D01*
X11063210Y-15249828D01*
X11053686Y-15259352D01*
X11034638Y-15268876D01*
X11015590Y-15268876D01*
X10996543Y-15259352D01*
X10987019Y-15249828D01*
X10977495Y-15230781D01*
X10967971Y-15192686D01*
X10967971Y-15145067D01*
X10977495Y-15106971D01*
X10987019Y-15087924D01*
X10996543Y-15078400D01*
X11015590Y-15068876D01*
X11253686Y-15135543D02*
X11253686Y-15268876D01*
X11206067Y-15059352D02*
X11158448Y-15202209D01*
X11282257Y-15202209D01*
X11339400Y-15068876D02*
X11463209Y-15068876D01*
X11396543Y-15145067D01*
X11425114Y-15145067D01*
X11444162Y-15154590D01*
X11453686Y-15164114D01*
X11463209Y-15183162D01*
X11463209Y-15230781D01*
X11453686Y-15249828D01*
X11444162Y-15259352D01*
X11425114Y-15268876D01*
X11367971Y-15268876D01*
X11348924Y-15259352D01*
X11339400Y-15249828D01*
X11529876Y-15068876D02*
X11653686Y-15068876D01*
X11587019Y-15145067D01*
X11615590Y-15145067D01*
X11634638Y-15154590D01*
X11644162Y-15164114D01*
X11653686Y-15183162D01*
X11653686Y-15230781D01*
X11644162Y-15249828D01*
X11634638Y-15259352D01*
X11615590Y-15268876D01*
X11558448Y-15268876D01*
X11539400Y-15259352D01*
X11529876Y-15249828D01*
X11729876Y-15068876D02*
X11729876Y-15106971D01*
X11806067Y-15068876D02*
X11806067Y-15106971D01*
X12101305Y-15345067D02*
X12091781Y-15335543D01*
X12072733Y-15306971D01*
X12063209Y-15287924D01*
X12053686Y-15259352D01*
X12044162Y-15211733D01*
X12044162Y-15173638D01*
X12053686Y-15126019D01*
X12063209Y-15097448D01*
X12072733Y-15078400D01*
X12091781Y-15049828D01*
X12101305Y-15040305D01*
X12206067Y-15154590D02*
X12187019Y-15145067D01*
X12177495Y-15135543D01*
X12167971Y-15116495D01*
X12167971Y-15106971D01*
X12177495Y-15087924D01*
X12187019Y-15078400D01*
X12206067Y-15068876D01*
X12244162Y-15068876D01*
X12263209Y-15078400D01*
X12272733Y-15087924D01*
X12282257Y-15106971D01*
X12282257Y-15116495D01*
X12272733Y-15135543D01*
X12263209Y-15145067D01*
X12244162Y-15154590D01*
X12206067Y-15154590D01*
X12187019Y-15164114D01*
X12177495Y-15173638D01*
X12167971Y-15192686D01*
X12167971Y-15230781D01*
X12177495Y-15249828D01*
X12187019Y-15259352D01*
X12206067Y-15268876D01*
X12244162Y-15268876D01*
X12263209Y-15259352D01*
X12272733Y-15249828D01*
X12282257Y-15230781D01*
X12282257Y-15192686D01*
X12272733Y-15173638D01*
X12263209Y-15164114D01*
X12244162Y-15154590D01*
X12520352Y-15268876D02*
X12520352Y-15068876D01*
X12606067Y-15268876D02*
X12606067Y-15164114D01*
X12596543Y-15145067D01*
X12577495Y-15135543D01*
X12548924Y-15135543D01*
X12529876Y-15145067D01*
X12520352Y-15154590D01*
X12729876Y-15268876D02*
X12710828Y-15259352D01*
X12701305Y-15249828D01*
X12691781Y-15230781D01*
X12691781Y-15173638D01*
X12701305Y-15154590D01*
X12710828Y-15145067D01*
X12729876Y-15135543D01*
X12758448Y-15135543D01*
X12777495Y-15145067D01*
X12787019Y-15154590D01*
X12796543Y-15173638D01*
X12796543Y-15230781D01*
X12787019Y-15249828D01*
X12777495Y-15259352D01*
X12758448Y-15268876D01*
X12729876Y-15268876D01*
X12910828Y-15268876D02*
X12891781Y-15259352D01*
X12882257Y-15240305D01*
X12882257Y-15068876D01*
X13063209Y-15259352D02*
X13044162Y-15268876D01*
X13006067Y-15268876D01*
X12987019Y-15259352D01*
X12977495Y-15240305D01*
X12977495Y-15164114D01*
X12987019Y-15145067D01*
X13006067Y-15135543D01*
X13044162Y-15135543D01*
X13063209Y-15145067D01*
X13072733Y-15164114D01*
X13072733Y-15183162D01*
X12977495Y-15202209D01*
X13148924Y-15259352D02*
X13167971Y-15268876D01*
X13206067Y-15268876D01*
X13225114Y-15259352D01*
X13234638Y-15240305D01*
X13234638Y-15230781D01*
X13225114Y-15211733D01*
X13206067Y-15202209D01*
X13177495Y-15202209D01*
X13158448Y-15192686D01*
X13148924Y-15173638D01*
X13148924Y-15164114D01*
X13158448Y-15145067D01*
X13177495Y-15135543D01*
X13206067Y-15135543D01*
X13225114Y-15145067D01*
X13301305Y-15345067D02*
X13310828Y-15335543D01*
X13329876Y-15306971D01*
X13339400Y-15287924D01*
X13348924Y-15259352D01*
X13358448Y-15211733D01*
X13358448Y-15173638D01*
X13348924Y-15126019D01*
X13339400Y-15097448D01*
X13329876Y-15078400D01*
X13310828Y-15049828D01*
X13301305Y-15040305D01*
X8429400Y-15542400D02*
X8529400Y-15442400D01*
X8429400Y-15342400D01*
X8329400Y-15442400D01*
X8429400Y-15542400D01*
X8872733Y-15332876D02*
X8834638Y-15332876D01*
X8815590Y-15342400D01*
X8806067Y-15351924D01*
X8787019Y-15380495D01*
X8777495Y-15418590D01*
X8777495Y-15494781D01*
X8787019Y-15513828D01*
X8796543Y-15523352D01*
X8815590Y-15532876D01*
X8853686Y-15532876D01*
X8872733Y-15523352D01*
X8882257Y-15513828D01*
X8891781Y-15494781D01*
X8891781Y-15447162D01*
X8882257Y-15428114D01*
X8872733Y-15418590D01*
X8853686Y-15409067D01*
X8815590Y-15409067D01*
X8796543Y-15418590D01*
X8787019Y-15428114D01*
X8777495Y-15447162D01*
X8977495Y-15513828D02*
X8987019Y-15523352D01*
X8977495Y-15532876D01*
X8967971Y-15523352D01*
X8977495Y-15513828D01*
X8977495Y-15532876D01*
X9177495Y-15532876D02*
X9063210Y-15532876D01*
X9120352Y-15532876D02*
X9120352Y-15332876D01*
X9101305Y-15361448D01*
X9082257Y-15380495D01*
X9063210Y-15390019D01*
X9301305Y-15332876D02*
X9320352Y-15332876D01*
X9339400Y-15342400D01*
X9348924Y-15351924D01*
X9358448Y-15370971D01*
X9367971Y-15409067D01*
X9367971Y-15456686D01*
X9358448Y-15494781D01*
X9348924Y-15513828D01*
X9339400Y-15523352D01*
X9320352Y-15532876D01*
X9301305Y-15532876D01*
X9282257Y-15523352D01*
X9272733Y-15513828D01*
X9263210Y-15494781D01*
X9253686Y-15456686D01*
X9253686Y-15409067D01*
X9263210Y-15370971D01*
X9272733Y-15351924D01*
X9282257Y-15342400D01*
X9301305Y-15332876D01*
X9491781Y-15332876D02*
X9510829Y-15332876D01*
X9529876Y-15342400D01*
X9539400Y-15351924D01*
X9548924Y-15370971D01*
X9558448Y-15409067D01*
X9558448Y-15456686D01*
X9548924Y-15494781D01*
X9539400Y-15513828D01*
X9529876Y-15523352D01*
X9510829Y-15532876D01*
X9491781Y-15532876D01*
X9472733Y-15523352D01*
X9463210Y-15513828D01*
X9453686Y-15494781D01*
X9444162Y-15456686D01*
X9444162Y-15409067D01*
X9453686Y-15370971D01*
X9463210Y-15351924D01*
X9472733Y-15342400D01*
X9491781Y-15332876D01*
X9644162Y-15532876D02*
X9644162Y-15399543D01*
X9644162Y-15418590D02*
X9653686Y-15409067D01*
X9672733Y-15399543D01*
X9701305Y-15399543D01*
X9720352Y-15409067D01*
X9729876Y-15428114D01*
X9729876Y-15532876D01*
X9729876Y-15428114D02*
X9739400Y-15409067D01*
X9758448Y-15399543D01*
X9787019Y-15399543D01*
X9806067Y-15409067D01*
X9815590Y-15428114D01*
X9815590Y-15532876D01*
X9910829Y-15532876D02*
X9910829Y-15399543D01*
X9910829Y-15418590D02*
X9920352Y-15409067D01*
X9939400Y-15399543D01*
X9967971Y-15399543D01*
X9987019Y-15409067D01*
X9996543Y-15428114D01*
X9996543Y-15532876D01*
X9996543Y-15428114D02*
X10006067Y-15409067D01*
X10025114Y-15399543D01*
X10053686Y-15399543D01*
X10072733Y-15409067D01*
X10082257Y-15428114D01*
X10082257Y-15532876D01*
X10472733Y-15323352D02*
X10301305Y-15580495D01*
X10729876Y-15332876D02*
X10748924Y-15332876D01*
X10767971Y-15342400D01*
X10777495Y-15351924D01*
X10787019Y-15370971D01*
X10796543Y-15409067D01*
X10796543Y-15456686D01*
X10787019Y-15494781D01*
X10777495Y-15513828D01*
X10767971Y-15523352D01*
X10748924Y-15532876D01*
X10729876Y-15532876D01*
X10710829Y-15523352D01*
X10701305Y-15513828D01*
X10691781Y-15494781D01*
X10682257Y-15456686D01*
X10682257Y-15409067D01*
X10691781Y-15370971D01*
X10701305Y-15351924D01*
X10710829Y-15342400D01*
X10729876Y-15332876D01*
X10882257Y-15513828D02*
X10891781Y-15523352D01*
X10882257Y-15532876D01*
X10872733Y-15523352D01*
X10882257Y-15513828D01*
X10882257Y-15532876D01*
X10967971Y-15351924D02*
X10977495Y-15342400D01*
X10996543Y-15332876D01*
X11044162Y-15332876D01*
X11063210Y-15342400D01*
X11072733Y-15351924D01*
X11082257Y-15370971D01*
X11082257Y-15390019D01*
X11072733Y-15418590D01*
X10958448Y-15532876D01*
X11082257Y-15532876D01*
X11253686Y-15399543D02*
X11253686Y-15532876D01*
X11206067Y-15323352D02*
X11158448Y-15466209D01*
X11282257Y-15466209D01*
X11396543Y-15332876D02*
X11415590Y-15332876D01*
X11434638Y-15342400D01*
X11444162Y-15351924D01*
X11453686Y-15370971D01*
X11463209Y-15409067D01*
X11463209Y-15456686D01*
X11453686Y-15494781D01*
X11444162Y-15513828D01*
X11434638Y-15523352D01*
X11415590Y-15532876D01*
X11396543Y-15532876D01*
X11377495Y-15523352D01*
X11367971Y-15513828D01*
X11358448Y-15494781D01*
X11348924Y-15456686D01*
X11348924Y-15409067D01*
X11358448Y-15370971D01*
X11367971Y-15351924D01*
X11377495Y-15342400D01*
X11396543Y-15332876D01*
X11539400Y-15351924D02*
X11548924Y-15342400D01*
X11567971Y-15332876D01*
X11615590Y-15332876D01*
X11634638Y-15342400D01*
X11644162Y-15351924D01*
X11653686Y-15370971D01*
X11653686Y-15390019D01*
X11644162Y-15418590D01*
X11529876Y-15532876D01*
X11653686Y-15532876D01*
X11729876Y-15332876D02*
X11729876Y-15370971D01*
X11806067Y-15332876D02*
X11806067Y-15370971D01*
X12101305Y-15609067D02*
X12091781Y-15599543D01*
X12072733Y-15570971D01*
X12063209Y-15551924D01*
X12053686Y-15523352D01*
X12044162Y-15475733D01*
X12044162Y-15437638D01*
X12053686Y-15390019D01*
X12063209Y-15361448D01*
X12072733Y-15342400D01*
X12091781Y-15313828D01*
X12101305Y-15304305D01*
X12282257Y-15532876D02*
X12167971Y-15532876D01*
X12225114Y-15532876D02*
X12225114Y-15332876D01*
X12206067Y-15361448D01*
X12187019Y-15380495D01*
X12167971Y-15390019D01*
X12406067Y-15332876D02*
X12425114Y-15332876D01*
X12444162Y-15342400D01*
X12453686Y-15351924D01*
X12463209Y-15370971D01*
X12472733Y-15409067D01*
X12472733Y-15456686D01*
X12463209Y-15494781D01*
X12453686Y-15513828D01*
X12444162Y-15523352D01*
X12425114Y-15532876D01*
X12406067Y-15532876D01*
X12387019Y-15523352D01*
X12377495Y-15513828D01*
X12367971Y-15494781D01*
X12358448Y-15456686D01*
X12358448Y-15409067D01*
X12367971Y-15370971D01*
X12377495Y-15351924D01*
X12387019Y-15342400D01*
X12406067Y-15332876D01*
X12710828Y-15532876D02*
X12710828Y-15332876D01*
X12796543Y-15532876D02*
X12796543Y-15428114D01*
X12787019Y-15409067D01*
X12767971Y-15399543D01*
X12739400Y-15399543D01*
X12720352Y-15409067D01*
X12710828Y-15418590D01*
X12920352Y-15532876D02*
X12901305Y-15523352D01*
X12891781Y-15513828D01*
X12882257Y-15494781D01*
X12882257Y-15437638D01*
X12891781Y-15418590D01*
X12901305Y-15409067D01*
X12920352Y-15399543D01*
X12948924Y-15399543D01*
X12967971Y-15409067D01*
X12977495Y-15418590D01*
X12987019Y-15437638D01*
X12987019Y-15494781D01*
X12977495Y-15513828D01*
X12967971Y-15523352D01*
X12948924Y-15532876D01*
X12920352Y-15532876D01*
X13101305Y-15532876D02*
X13082257Y-15523352D01*
X13072733Y-15504305D01*
X13072733Y-15332876D01*
X13253686Y-15523352D02*
X13234638Y-15532876D01*
X13196543Y-15532876D01*
X13177495Y-15523352D01*
X13167971Y-15504305D01*
X13167971Y-15428114D01*
X13177495Y-15409067D01*
X13196543Y-15399543D01*
X13234638Y-15399543D01*
X13253686Y-15409067D01*
X13263209Y-15428114D01*
X13263209Y-15447162D01*
X13167971Y-15466209D01*
X13339400Y-15523352D02*
X13358448Y-15532876D01*
X13396543Y-15532876D01*
X13415590Y-15523352D01*
X13425114Y-15504305D01*
X13425114Y-15494781D01*
X13415590Y-15475733D01*
X13396543Y-15466209D01*
X13367971Y-15466209D01*
X13348924Y-15456686D01*
X13339400Y-15437638D01*
X13339400Y-15428114D01*
X13348924Y-15409067D01*
X13367971Y-15399543D01*
X13396543Y-15399543D01*
X13415590Y-15409067D01*
X13491781Y-15609067D02*
X13501305Y-15599543D01*
X13520352Y-15570971D01*
X13529876Y-15551924D01*
X13539400Y-15523352D01*
X13548924Y-15475733D01*
X13548924Y-15437638D01*
X13539400Y-15390019D01*
X13529876Y-15361448D01*
X13520352Y-15342400D01*
X13501305Y-15313828D01*
X13491781Y-15304305D01*
M02*
