G04 #@! TF.GenerationSoftware,KiCad,Pcbnew,6.0.2+dfsg-1*
G04 #@! TF.CreationDate,2023-02-25T17:51:14+02:00*
G04 #@! TF.ProjectId,pina,70696e61-2e6b-4696-9361-645f70636258,rev?*
G04 #@! TF.SameCoordinates,Original*
G04 #@! TF.FileFunction,Soldermask,Top*
G04 #@! TF.FilePolarity,Negative*
%FSLAX46Y46*%
G04 Gerber Fmt 4.6, Leading zero omitted, Abs format (unit mm)*
G04 Created by KiCad (PCBNEW 6.0.2+dfsg-1) date 2023-02-25 17:51:14*
%MOMM*%
%LPD*%
G01*
G04 APERTURE LIST*
G04 Aperture macros list*
%AMRoundRect*
0 Rectangle with rounded corners*
0 $1 Rounding radius*
0 $2 $3 $4 $5 $6 $7 $8 $9 X,Y pos of 4 corners*
0 Add a 4 corners polygon primitive as box body*
4,1,4,$2,$3,$4,$5,$6,$7,$8,$9,$2,$3,0*
0 Add four circle primitives for the rounded corners*
1,1,$1+$1,$2,$3*
1,1,$1+$1,$4,$5*
1,1,$1+$1,$6,$7*
1,1,$1+$1,$8,$9*
0 Add four rect primitives between the rounded corners*
20,1,$1+$1,$2,$3,$4,$5,0*
20,1,$1+$1,$4,$5,$6,$7,0*
20,1,$1+$1,$6,$7,$8,$9,0*
20,1,$1+$1,$8,$9,$2,$3,0*%
G04 Aperture macros list end*
%ADD10RoundRect,0.237500X-0.287500X-0.237500X0.287500X-0.237500X0.287500X0.237500X-0.287500X0.237500X0*%
%ADD11C,10.160000*%
%ADD12RoundRect,0.237500X0.250000X0.237500X-0.250000X0.237500X-0.250000X-0.237500X0.250000X-0.237500X0*%
%ADD13C,1.600000*%
%ADD14RoundRect,0.200000X0.600000X-0.600000X0.600000X0.600000X-0.600000X0.600000X-0.600000X-0.600000X0*%
%ADD15R,1.700000X1.700000*%
%ADD16O,1.700000X1.700000*%
%ADD17R,2.000000X4.600000*%
%ADD18O,2.000000X4.200000*%
%ADD19O,4.200000X2.000000*%
%ADD20C,2.200000*%
G04 APERTURE END LIST*
D10*
X221629000Y-87884000D03*
X223379000Y-87884000D03*
D11*
X222504000Y-127254000D03*
D12*
X112926500Y-87884000D03*
X111101500Y-87884000D03*
D11*
X171704000Y-127254000D03*
X146304000Y-127254000D03*
D12*
X163726500Y-87884000D03*
X161901500Y-87884000D03*
D11*
X95504000Y-127254000D03*
X197104000Y-101854000D03*
D13*
X89154000Y-62484000D03*
X91694000Y-62484000D03*
D14*
X94234000Y-62484000D03*
D13*
X96774000Y-62484000D03*
X99314000Y-62484000D03*
X101854000Y-62484000D03*
X104394000Y-62484000D03*
D14*
X106934000Y-62484000D03*
D13*
X109474000Y-62484000D03*
X112014000Y-62484000D03*
X114554000Y-62484000D03*
X117094000Y-62484000D03*
D14*
X119634000Y-62484000D03*
D13*
X122174000Y-62484000D03*
X124714000Y-62484000D03*
X127254000Y-62442119D03*
X129794000Y-62484000D03*
D14*
X132334000Y-62484000D03*
D13*
X134874000Y-62484000D03*
X137414000Y-62484000D03*
X137414000Y-44704000D03*
X134874000Y-44704000D03*
D14*
X132334000Y-44704000D03*
D13*
X129794000Y-44704000D03*
X127254000Y-44704000D03*
X124714000Y-44704000D03*
X122174000Y-44704000D03*
D14*
X119634000Y-44704000D03*
D13*
X117094000Y-44704000D03*
X114554000Y-44704000D03*
X112014000Y-44704000D03*
X109474000Y-44704000D03*
D14*
X106934000Y-44704000D03*
D13*
X104394000Y-44704000D03*
X101854000Y-44704000D03*
X99314000Y-44704000D03*
X96774000Y-44704000D03*
D14*
X94234000Y-44704000D03*
D13*
X91694000Y-44704000D03*
X89154000Y-44704000D03*
D10*
X107329000Y-87884000D03*
X109079000Y-87884000D03*
D11*
X197104000Y-127254000D03*
D12*
X202159000Y-87884000D03*
X200334000Y-87884000D03*
D11*
X108204000Y-101854000D03*
D15*
X90424000Y-71374000D03*
D16*
X92964000Y-71374000D03*
X90424000Y-73914000D03*
X92964000Y-73914000D03*
X90424000Y-76454000D03*
X92964000Y-76454000D03*
X90424000Y-78994000D03*
X92964000Y-78994000D03*
X90424000Y-81534000D03*
X92964000Y-81534000D03*
X90424000Y-84074000D03*
X92964000Y-84074000D03*
X90424000Y-86614000D03*
X92964000Y-86614000D03*
X90424000Y-89154000D03*
X92964000Y-89154000D03*
X90424000Y-91694000D03*
X92964000Y-91694000D03*
D11*
X120904000Y-127254000D03*
D17*
X218702000Y-49272000D03*
D18*
X225002000Y-49272000D03*
D19*
X221602000Y-44472000D03*
D10*
X158129000Y-87884000D03*
X159879000Y-87884000D03*
D11*
X159004000Y-101854000D03*
D10*
X196229000Y-87884000D03*
X197979000Y-87884000D03*
D11*
X222504000Y-101854000D03*
D12*
X227584000Y-87884000D03*
X225759000Y-87884000D03*
D20*
X184404000Y-96774000D03*
X184404000Y-106934000D03*
X184404000Y-114554000D03*
X176784000Y-96774000D03*
X133604000Y-96774000D03*
X133604000Y-106934000D03*
X133604000Y-114554000D03*
X125984000Y-96774000D03*
M02*
