G04 #@! TF.GenerationSoftware,KiCad,Pcbnew,6.0.2+dfsg-1*
G04 #@! TF.CreationDate,2023-02-25T17:51:13+02:00*
G04 #@! TF.ProjectId,pina,70696e61-2e6b-4696-9361-645f70636258,rev?*
G04 #@! TF.SameCoordinates,Original*
G04 #@! TF.FileFunction,Legend,Top*
G04 #@! TF.FilePolarity,Positive*
%FSLAX46Y46*%
G04 Gerber Fmt 4.6, Leading zero omitted, Abs format (unit mm)*
G04 Created by KiCad (PCBNEW 6.0.2+dfsg-1) date 2023-02-25 17:51:13*
%MOMM*%
%LPD*%
G01*
G04 APERTURE LIST*
G04 Aperture macros list*
%AMRoundRect*
0 Rectangle with rounded corners*
0 $1 Rounding radius*
0 $2 $3 $4 $5 $6 $7 $8 $9 X,Y pos of 4 corners*
0 Add a 4 corners polygon primitive as box body*
4,1,4,$2,$3,$4,$5,$6,$7,$8,$9,$2,$3,0*
0 Add four circle primitives for the rounded corners*
1,1,$1+$1,$2,$3*
1,1,$1+$1,$4,$5*
1,1,$1+$1,$6,$7*
1,1,$1+$1,$8,$9*
0 Add four rect primitives between the rounded corners*
20,1,$1+$1,$2,$3,$4,$5,0*
20,1,$1+$1,$4,$5,$6,$7,0*
20,1,$1+$1,$6,$7,$8,$9,0*
20,1,$1+$1,$8,$9,$2,$3,0*%
G04 Aperture macros list end*
%ADD10C,0.304800*%
%ADD11C,0.508000*%
%ADD12C,0.300000*%
%ADD13C,0.150000*%
%ADD14C,0.120000*%
%ADD15C,0.127000*%
%ADD16RoundRect,0.237500X-0.287500X-0.237500X0.287500X-0.237500X0.287500X0.237500X-0.287500X0.237500X0*%
%ADD17C,10.160000*%
%ADD18RoundRect,0.237500X0.250000X0.237500X-0.250000X0.237500X-0.250000X-0.237500X0.250000X-0.237500X0*%
%ADD19C,1.600000*%
%ADD20RoundRect,0.200000X0.600000X-0.600000X0.600000X0.600000X-0.600000X0.600000X-0.600000X-0.600000X0*%
%ADD21R,1.700000X1.700000*%
%ADD22O,1.700000X1.700000*%
%ADD23R,2.000000X4.600000*%
%ADD24O,2.000000X4.200000*%
%ADD25O,4.200000X2.000000*%
%ADD26C,2.200000*%
G04 APERTURE END LIST*
D10*
X95020190Y-72063428D02*
X95020190Y-70539428D01*
X95624952Y-70539428D01*
X95987809Y-70612000D01*
X96229714Y-70757142D01*
X96350666Y-70902285D01*
X96471619Y-71192571D01*
X96471619Y-71410285D01*
X96350666Y-71700571D01*
X96229714Y-71845714D01*
X95987809Y-71990857D01*
X95624952Y-72063428D01*
X95020190Y-72063428D01*
X97560190Y-72063428D02*
X97560190Y-71047428D01*
X97560190Y-70539428D02*
X97439238Y-70612000D01*
X97560190Y-70684571D01*
X97681142Y-70612000D01*
X97560190Y-70539428D01*
X97560190Y-70684571D01*
X99858285Y-71047428D02*
X99858285Y-72281142D01*
X99737333Y-72426285D01*
X99616380Y-72498857D01*
X99374476Y-72571428D01*
X99011619Y-72571428D01*
X98769714Y-72498857D01*
X99858285Y-71990857D02*
X99616380Y-72063428D01*
X99132571Y-72063428D01*
X98890666Y-71990857D01*
X98769714Y-71918285D01*
X98648761Y-71773142D01*
X98648761Y-71337714D01*
X98769714Y-71192571D01*
X98890666Y-71120000D01*
X99132571Y-71047428D01*
X99616380Y-71047428D01*
X99858285Y-71120000D01*
X101067809Y-72063428D02*
X101067809Y-71047428D01*
X101067809Y-70539428D02*
X100946857Y-70612000D01*
X101067809Y-70684571D01*
X101188761Y-70612000D01*
X101067809Y-70539428D01*
X101067809Y-70684571D01*
X101914476Y-71047428D02*
X102882095Y-71047428D01*
X102277333Y-70539428D02*
X102277333Y-71845714D01*
X102398285Y-71990857D01*
X102640190Y-72063428D01*
X102882095Y-72063428D01*
X104817333Y-72063428D02*
X104817333Y-71265142D01*
X104696380Y-71120000D01*
X104454476Y-71047428D01*
X103970666Y-71047428D01*
X103728761Y-71120000D01*
X104817333Y-71990857D02*
X104575428Y-72063428D01*
X103970666Y-72063428D01*
X103728761Y-71990857D01*
X103607809Y-71845714D01*
X103607809Y-71700571D01*
X103728761Y-71555428D01*
X103970666Y-71482857D01*
X104575428Y-71482857D01*
X104817333Y-71410285D01*
X106389714Y-72063428D02*
X106147809Y-71990857D01*
X106026857Y-71845714D01*
X106026857Y-70539428D01*
D11*
X101219000Y-115703047D02*
X101219000Y-113163047D01*
X102150333Y-114977333D01*
X103081666Y-113163047D01*
X103081666Y-115703047D01*
X104412142Y-114372571D02*
X105343476Y-114372571D01*
X105742619Y-115703047D02*
X104412142Y-115703047D01*
X104412142Y-113163047D01*
X105742619Y-113163047D01*
X106807000Y-114977333D02*
X108137476Y-114977333D01*
X106540904Y-115703047D02*
X107472238Y-113163047D01*
X108403571Y-115703047D01*
X109201857Y-115582095D02*
X109601000Y-115703047D01*
X110266238Y-115703047D01*
X110532333Y-115582095D01*
X110665380Y-115461142D01*
X110798428Y-115219238D01*
X110798428Y-114977333D01*
X110665380Y-114735428D01*
X110532333Y-114614476D01*
X110266238Y-114493523D01*
X109734047Y-114372571D01*
X109467952Y-114251619D01*
X109334904Y-114130666D01*
X109201857Y-113888761D01*
X109201857Y-113646857D01*
X109334904Y-113404952D01*
X109467952Y-113284000D01*
X109734047Y-113163047D01*
X110399285Y-113163047D01*
X110798428Y-113284000D01*
X113991571Y-114977333D02*
X115322047Y-114977333D01*
X113725476Y-115703047D02*
X114656809Y-113163047D01*
X115588142Y-115703047D01*
X151819428Y-115703047D02*
X151819428Y-113163047D01*
X152750761Y-114977333D01*
X153682095Y-113163047D01*
X153682095Y-115703047D01*
X155012571Y-114372571D02*
X155943904Y-114372571D01*
X156343047Y-115703047D02*
X155012571Y-115703047D01*
X155012571Y-113163047D01*
X156343047Y-113163047D01*
X157407428Y-114977333D02*
X158737904Y-114977333D01*
X157141333Y-115703047D02*
X158072666Y-113163047D01*
X159004000Y-115703047D01*
X159802285Y-115582095D02*
X160201428Y-115703047D01*
X160866666Y-115703047D01*
X161132761Y-115582095D01*
X161265809Y-115461142D01*
X161398857Y-115219238D01*
X161398857Y-114977333D01*
X161265809Y-114735428D01*
X161132761Y-114614476D01*
X160866666Y-114493523D01*
X160334476Y-114372571D01*
X160068380Y-114251619D01*
X159935333Y-114130666D01*
X159802285Y-113888761D01*
X159802285Y-113646857D01*
X159935333Y-113404952D01*
X160068380Y-113284000D01*
X160334476Y-113163047D01*
X160999714Y-113163047D01*
X161398857Y-113284000D01*
X165656380Y-114372571D02*
X166055523Y-114493523D01*
X166188571Y-114614476D01*
X166321619Y-114856380D01*
X166321619Y-115219238D01*
X166188571Y-115461142D01*
X166055523Y-115582095D01*
X165789428Y-115703047D01*
X164725047Y-115703047D01*
X164725047Y-113163047D01*
X165656380Y-113163047D01*
X165922476Y-113284000D01*
X166055523Y-113404952D01*
X166188571Y-113646857D01*
X166188571Y-113888761D01*
X166055523Y-114130666D01*
X165922476Y-114251619D01*
X165656380Y-114372571D01*
X164725047Y-114372571D01*
X192507809Y-113163047D02*
X192991619Y-113163047D01*
X193233523Y-113284000D01*
X193475428Y-113525904D01*
X193596380Y-114009714D01*
X193596380Y-114856380D01*
X193475428Y-115340190D01*
X193233523Y-115582095D01*
X192991619Y-115703047D01*
X192507809Y-115703047D01*
X192265904Y-115582095D01*
X192024000Y-115340190D01*
X191903047Y-114856380D01*
X191903047Y-114009714D01*
X192024000Y-113525904D01*
X192265904Y-113284000D01*
X192507809Y-113163047D01*
X194684952Y-113163047D02*
X194684952Y-115219238D01*
X194805904Y-115461142D01*
X194926857Y-115582095D01*
X195168761Y-115703047D01*
X195652571Y-115703047D01*
X195894476Y-115582095D01*
X196015428Y-115461142D01*
X196136380Y-115219238D01*
X196136380Y-113163047D01*
X196983047Y-113163047D02*
X198434476Y-113163047D01*
X197708761Y-115703047D02*
X197708761Y-113163047D01*
X201095428Y-114977333D02*
X202304952Y-114977333D01*
X200853523Y-115703047D02*
X201700190Y-113163047D01*
X202546857Y-115703047D01*
X217726380Y-113163047D02*
X218210190Y-113163047D01*
X218452095Y-113284000D01*
X218694000Y-113525904D01*
X218814952Y-114009714D01*
X218814952Y-114856380D01*
X218694000Y-115340190D01*
X218452095Y-115582095D01*
X218210190Y-115703047D01*
X217726380Y-115703047D01*
X217484476Y-115582095D01*
X217242571Y-115340190D01*
X217121619Y-114856380D01*
X217121619Y-114009714D01*
X217242571Y-113525904D01*
X217484476Y-113284000D01*
X217726380Y-113163047D01*
X219903523Y-113163047D02*
X219903523Y-115219238D01*
X220024476Y-115461142D01*
X220145428Y-115582095D01*
X220387333Y-115703047D01*
X220871142Y-115703047D01*
X221113047Y-115582095D01*
X221234000Y-115461142D01*
X221354952Y-115219238D01*
X221354952Y-113163047D01*
X222201619Y-113163047D02*
X223653047Y-113163047D01*
X222927333Y-115703047D02*
X222927333Y-113163047D01*
X227281619Y-114372571D02*
X227644476Y-114493523D01*
X227765428Y-114614476D01*
X227886380Y-114856380D01*
X227886380Y-115219238D01*
X227765428Y-115461142D01*
X227644476Y-115582095D01*
X227402571Y-115703047D01*
X226434952Y-115703047D01*
X226434952Y-113163047D01*
X227281619Y-113163047D01*
X227523523Y-113284000D01*
X227644476Y-113404952D01*
X227765428Y-113646857D01*
X227765428Y-113888761D01*
X227644476Y-114130666D01*
X227523523Y-114251619D01*
X227281619Y-114372571D01*
X226434952Y-114372571D01*
D12*
X149205428Y-73385071D02*
X149205428Y-71885071D01*
X149776857Y-71885071D01*
X149919714Y-71956500D01*
X149991142Y-72027928D01*
X150062571Y-72170785D01*
X150062571Y-72385071D01*
X149991142Y-72527928D01*
X149919714Y-72599357D01*
X149776857Y-72670785D01*
X149205428Y-72670785D01*
X150705428Y-73385071D02*
X150705428Y-71885071D01*
X151419714Y-73385071D02*
X151419714Y-71885071D01*
X152276857Y-73385071D01*
X152276857Y-71885071D01*
X152919714Y-72956500D02*
X153634000Y-72956500D01*
X152776857Y-73385071D02*
X153276857Y-71885071D01*
X153776857Y-73385071D01*
X149098285Y-74300071D02*
X149598285Y-75800071D01*
X150098285Y-74300071D01*
X151384000Y-75800071D02*
X150526857Y-75800071D01*
X150955428Y-75800071D02*
X150955428Y-74300071D01*
X150812571Y-74514357D01*
X150669714Y-74657214D01*
X150526857Y-74728642D01*
X152026857Y-75657214D02*
X152098285Y-75728642D01*
X152026857Y-75800071D01*
X151955428Y-75728642D01*
X152026857Y-75657214D01*
X152026857Y-75800071D01*
X153026857Y-74300071D02*
X153169714Y-74300071D01*
X153312571Y-74371500D01*
X153384000Y-74442928D01*
X153455428Y-74585785D01*
X153526857Y-74871500D01*
X153526857Y-75228642D01*
X153455428Y-75514357D01*
X153384000Y-75657214D01*
X153312571Y-75728642D01*
X153169714Y-75800071D01*
X153026857Y-75800071D01*
X152884000Y-75728642D01*
X152812571Y-75657214D01*
X152741142Y-75514357D01*
X152669714Y-75228642D01*
X152669714Y-74871500D01*
X152741142Y-74585785D01*
X152812571Y-74442928D01*
X152884000Y-74371500D01*
X153026857Y-74300071D01*
D13*
X221765904Y-86906380D02*
X221765904Y-85906380D01*
X222004000Y-85906380D01*
X222146857Y-85954000D01*
X222242095Y-86049238D01*
X222289714Y-86144476D01*
X222337333Y-86334952D01*
X222337333Y-86477809D01*
X222289714Y-86668285D01*
X222242095Y-86763523D01*
X222146857Y-86858761D01*
X222004000Y-86906380D01*
X221765904Y-86906380D01*
X222908761Y-86334952D02*
X222813523Y-86287333D01*
X222765904Y-86239714D01*
X222718285Y-86144476D01*
X222718285Y-86096857D01*
X222765904Y-86001619D01*
X222813523Y-85954000D01*
X222908761Y-85906380D01*
X223099238Y-85906380D01*
X223194476Y-85954000D01*
X223242095Y-86001619D01*
X223289714Y-86096857D01*
X223289714Y-86144476D01*
X223242095Y-86239714D01*
X223194476Y-86287333D01*
X223099238Y-86334952D01*
X222908761Y-86334952D01*
X222813523Y-86382571D01*
X222765904Y-86430190D01*
X222718285Y-86525428D01*
X222718285Y-86715904D01*
X222765904Y-86811142D01*
X222813523Y-86858761D01*
X222908761Y-86906380D01*
X223099238Y-86906380D01*
X223194476Y-86858761D01*
X223242095Y-86811142D01*
X223289714Y-86715904D01*
X223289714Y-86525428D01*
X223242095Y-86430190D01*
X223194476Y-86382571D01*
X223099238Y-86334952D01*
X229456380Y-128015904D02*
X228456380Y-128015904D01*
X228932571Y-128015904D02*
X228932571Y-127444476D01*
X229456380Y-127444476D02*
X228456380Y-127444476D01*
X228884952Y-126825428D02*
X228837333Y-126920666D01*
X228789714Y-126968285D01*
X228694476Y-127015904D01*
X228646857Y-127015904D01*
X228551619Y-126968285D01*
X228504000Y-126920666D01*
X228456380Y-126825428D01*
X228456380Y-126634952D01*
X228504000Y-126539714D01*
X228551619Y-126492095D01*
X228646857Y-126444476D01*
X228694476Y-126444476D01*
X228789714Y-126492095D01*
X228837333Y-126539714D01*
X228884952Y-126634952D01*
X228884952Y-126825428D01*
X228932571Y-126920666D01*
X228980190Y-126968285D01*
X229075428Y-127015904D01*
X229265904Y-127015904D01*
X229361142Y-126968285D01*
X229408761Y-126920666D01*
X229456380Y-126825428D01*
X229456380Y-126634952D01*
X229408761Y-126539714D01*
X229361142Y-126492095D01*
X229265904Y-126444476D01*
X229075428Y-126444476D01*
X228980190Y-126492095D01*
X228932571Y-126539714D01*
X228884952Y-126634952D01*
X111371142Y-86812380D02*
X111037809Y-86336190D01*
X110799714Y-86812380D02*
X110799714Y-85812380D01*
X111180666Y-85812380D01*
X111275904Y-85860000D01*
X111323523Y-85907619D01*
X111371142Y-86002857D01*
X111371142Y-86145714D01*
X111323523Y-86240952D01*
X111275904Y-86288571D01*
X111180666Y-86336190D01*
X110799714Y-86336190D01*
X112323523Y-86812380D02*
X111752095Y-86812380D01*
X112037809Y-86812380D02*
X112037809Y-85812380D01*
X111942571Y-85955238D01*
X111847333Y-86050476D01*
X111752095Y-86098095D01*
X113228285Y-85812380D02*
X112752095Y-85812380D01*
X112704476Y-86288571D01*
X112752095Y-86240952D01*
X112847333Y-86193333D01*
X113085428Y-86193333D01*
X113180666Y-86240952D01*
X113228285Y-86288571D01*
X113275904Y-86383809D01*
X113275904Y-86621904D01*
X113228285Y-86717142D01*
X113180666Y-86764761D01*
X113085428Y-86812380D01*
X112847333Y-86812380D01*
X112752095Y-86764761D01*
X112704476Y-86717142D01*
X178656380Y-128015904D02*
X177656380Y-128015904D01*
X178132571Y-128015904D02*
X178132571Y-127444476D01*
X178656380Y-127444476D02*
X177656380Y-127444476D01*
X177751619Y-127015904D02*
X177704000Y-126968285D01*
X177656380Y-126873047D01*
X177656380Y-126634952D01*
X177704000Y-126539714D01*
X177751619Y-126492095D01*
X177846857Y-126444476D01*
X177942095Y-126444476D01*
X178084952Y-126492095D01*
X178656380Y-127063523D01*
X178656380Y-126444476D01*
X153256380Y-128015904D02*
X152256380Y-128015904D01*
X152732571Y-128015904D02*
X152732571Y-127444476D01*
X153256380Y-127444476D02*
X152256380Y-127444476D01*
X152256380Y-127063523D02*
X152256380Y-126444476D01*
X152637333Y-126777809D01*
X152637333Y-126634952D01*
X152684952Y-126539714D01*
X152732571Y-126492095D01*
X152827809Y-126444476D01*
X153065904Y-126444476D01*
X153161142Y-126492095D01*
X153208761Y-126539714D01*
X153256380Y-126634952D01*
X153256380Y-126920666D01*
X153208761Y-127015904D01*
X153161142Y-127063523D01*
X162171142Y-86812380D02*
X161837809Y-86336190D01*
X161599714Y-86812380D02*
X161599714Y-85812380D01*
X161980666Y-85812380D01*
X162075904Y-85860000D01*
X162123523Y-85907619D01*
X162171142Y-86002857D01*
X162171142Y-86145714D01*
X162123523Y-86240952D01*
X162075904Y-86288571D01*
X161980666Y-86336190D01*
X161599714Y-86336190D01*
X163123523Y-86812380D02*
X162552095Y-86812380D01*
X162837809Y-86812380D02*
X162837809Y-85812380D01*
X162742571Y-85955238D01*
X162647333Y-86050476D01*
X162552095Y-86098095D01*
X163980666Y-85812380D02*
X163790190Y-85812380D01*
X163694952Y-85860000D01*
X163647333Y-85907619D01*
X163552095Y-86050476D01*
X163504476Y-86240952D01*
X163504476Y-86621904D01*
X163552095Y-86717142D01*
X163599714Y-86764761D01*
X163694952Y-86812380D01*
X163885428Y-86812380D01*
X163980666Y-86764761D01*
X164028285Y-86717142D01*
X164075904Y-86621904D01*
X164075904Y-86383809D01*
X164028285Y-86288571D01*
X163980666Y-86240952D01*
X163885428Y-86193333D01*
X163694952Y-86193333D01*
X163599714Y-86240952D01*
X163552095Y-86288571D01*
X163504476Y-86383809D01*
X102456380Y-128015904D02*
X101456380Y-128015904D01*
X101932571Y-128015904D02*
X101932571Y-127444476D01*
X102456380Y-127444476D02*
X101456380Y-127444476D01*
X101456380Y-126539714D02*
X101456380Y-126730190D01*
X101504000Y-126825428D01*
X101551619Y-126873047D01*
X101694476Y-126968285D01*
X101884952Y-127015904D01*
X102265904Y-127015904D01*
X102361142Y-126968285D01*
X102408761Y-126920666D01*
X102456380Y-126825428D01*
X102456380Y-126634952D01*
X102408761Y-126539714D01*
X102361142Y-126492095D01*
X102265904Y-126444476D01*
X102027809Y-126444476D01*
X101932571Y-126492095D01*
X101884952Y-126539714D01*
X101837333Y-126634952D01*
X101837333Y-126825428D01*
X101884952Y-126920666D01*
X101932571Y-126968285D01*
X102027809Y-127015904D01*
X204056380Y-102615904D02*
X203056380Y-102615904D01*
X203532571Y-102615904D02*
X203532571Y-102044476D01*
X204056380Y-102044476D02*
X203056380Y-102044476D01*
X204056380Y-101520666D02*
X204056380Y-101330190D01*
X204008761Y-101234952D01*
X203961142Y-101187333D01*
X203818285Y-101092095D01*
X203627809Y-101044476D01*
X203246857Y-101044476D01*
X203151619Y-101092095D01*
X203104000Y-101139714D01*
X203056380Y-101234952D01*
X203056380Y-101425428D01*
X203104000Y-101520666D01*
X203151619Y-101568285D01*
X203246857Y-101615904D01*
X203484952Y-101615904D01*
X203580190Y-101568285D01*
X203627809Y-101520666D01*
X203675428Y-101425428D01*
X203675428Y-101234952D01*
X203627809Y-101139714D01*
X203580190Y-101092095D01*
X203484952Y-101044476D01*
X141017714Y-44870666D02*
X141493904Y-44870666D01*
X140922476Y-45156380D02*
X141255809Y-44156380D01*
X141589142Y-45156380D01*
X142446285Y-45156380D02*
X141874857Y-45156380D01*
X142160571Y-45156380D02*
X142160571Y-44156380D01*
X142065333Y-44299238D01*
X141970095Y-44394476D01*
X141874857Y-44442095D01*
X107465904Y-86906380D02*
X107465904Y-85906380D01*
X107704000Y-85906380D01*
X107846857Y-85954000D01*
X107942095Y-86049238D01*
X107989714Y-86144476D01*
X108037333Y-86334952D01*
X108037333Y-86477809D01*
X107989714Y-86668285D01*
X107942095Y-86763523D01*
X107846857Y-86858761D01*
X107704000Y-86906380D01*
X107465904Y-86906380D01*
X108942095Y-85906380D02*
X108465904Y-85906380D01*
X108418285Y-86382571D01*
X108465904Y-86334952D01*
X108561142Y-86287333D01*
X108799238Y-86287333D01*
X108894476Y-86334952D01*
X108942095Y-86382571D01*
X108989714Y-86477809D01*
X108989714Y-86715904D01*
X108942095Y-86811142D01*
X108894476Y-86858761D01*
X108799238Y-86906380D01*
X108561142Y-86906380D01*
X108465904Y-86858761D01*
X108418285Y-86811142D01*
X204056380Y-128492095D02*
X203056380Y-128492095D01*
X203532571Y-128492095D02*
X203532571Y-127920666D01*
X204056380Y-127920666D02*
X203056380Y-127920666D01*
X204056380Y-126920666D02*
X204056380Y-127492095D01*
X204056380Y-127206380D02*
X203056380Y-127206380D01*
X203199238Y-127301619D01*
X203294476Y-127396857D01*
X203342095Y-127492095D01*
X203056380Y-126301619D02*
X203056380Y-126206380D01*
X203104000Y-126111142D01*
X203151619Y-126063523D01*
X203246857Y-126015904D01*
X203437333Y-125968285D01*
X203675428Y-125968285D01*
X203865904Y-126015904D01*
X203961142Y-126063523D01*
X204008761Y-126111142D01*
X204056380Y-126206380D01*
X204056380Y-126301619D01*
X204008761Y-126396857D01*
X203961142Y-126444476D01*
X203865904Y-126492095D01*
X203675428Y-126539714D01*
X203437333Y-126539714D01*
X203246857Y-126492095D01*
X203151619Y-126444476D01*
X203104000Y-126396857D01*
X203056380Y-126301619D01*
X200603642Y-86812380D02*
X200270309Y-86336190D01*
X200032214Y-86812380D02*
X200032214Y-85812380D01*
X200413166Y-85812380D01*
X200508404Y-85860000D01*
X200556023Y-85907619D01*
X200603642Y-86002857D01*
X200603642Y-86145714D01*
X200556023Y-86240952D01*
X200508404Y-86288571D01*
X200413166Y-86336190D01*
X200032214Y-86336190D01*
X201556023Y-86812380D02*
X200984595Y-86812380D01*
X201270309Y-86812380D02*
X201270309Y-85812380D01*
X201175071Y-85955238D01*
X201079833Y-86050476D01*
X200984595Y-86098095D01*
X201889357Y-85812380D02*
X202556023Y-85812380D01*
X202127452Y-86812380D01*
X115156380Y-102615904D02*
X114156380Y-102615904D01*
X114632571Y-102615904D02*
X114632571Y-102044476D01*
X115156380Y-102044476D02*
X114156380Y-102044476D01*
X114489714Y-101139714D02*
X115156380Y-101139714D01*
X114108761Y-101377809D02*
X114823047Y-101615904D01*
X114823047Y-100996857D01*
X91360666Y-68496380D02*
X91360666Y-69210666D01*
X91313047Y-69353523D01*
X91217809Y-69448761D01*
X91074952Y-69496380D01*
X90979714Y-69496380D01*
X91789238Y-68591619D02*
X91836857Y-68544000D01*
X91932095Y-68496380D01*
X92170190Y-68496380D01*
X92265428Y-68544000D01*
X92313047Y-68591619D01*
X92360666Y-68686857D01*
X92360666Y-68782095D01*
X92313047Y-68924952D01*
X91741619Y-69496380D01*
X92360666Y-69496380D01*
X127856380Y-128015904D02*
X126856380Y-128015904D01*
X127332571Y-128015904D02*
X127332571Y-127444476D01*
X127856380Y-127444476D02*
X126856380Y-127444476D01*
X126856380Y-126492095D02*
X126856380Y-126968285D01*
X127332571Y-127015904D01*
X127284952Y-126968285D01*
X127237333Y-126873047D01*
X127237333Y-126634952D01*
X127284952Y-126539714D01*
X127332571Y-126492095D01*
X127427809Y-126444476D01*
X127665904Y-126444476D01*
X127761142Y-126492095D01*
X127808761Y-126539714D01*
X127856380Y-126634952D01*
X127856380Y-126873047D01*
X127808761Y-126968285D01*
X127761142Y-127015904D01*
X215654380Y-49605333D02*
X216368666Y-49605333D01*
X216511523Y-49652952D01*
X216606761Y-49748190D01*
X216654380Y-49891047D01*
X216654380Y-49986285D01*
X216654380Y-48605333D02*
X216654380Y-49176761D01*
X216654380Y-48891047D02*
X215654380Y-48891047D01*
X215797238Y-48986285D01*
X215892476Y-49081523D01*
X215940095Y-49176761D01*
X158265904Y-86906380D02*
X158265904Y-85906380D01*
X158504000Y-85906380D01*
X158646857Y-85954000D01*
X158742095Y-86049238D01*
X158789714Y-86144476D01*
X158837333Y-86334952D01*
X158837333Y-86477809D01*
X158789714Y-86668285D01*
X158742095Y-86763523D01*
X158646857Y-86858761D01*
X158504000Y-86906380D01*
X158265904Y-86906380D01*
X159694476Y-85906380D02*
X159504000Y-85906380D01*
X159408761Y-85954000D01*
X159361142Y-86001619D01*
X159265904Y-86144476D01*
X159218285Y-86334952D01*
X159218285Y-86715904D01*
X159265904Y-86811142D01*
X159313523Y-86858761D01*
X159408761Y-86906380D01*
X159599238Y-86906380D01*
X159694476Y-86858761D01*
X159742095Y-86811142D01*
X159789714Y-86715904D01*
X159789714Y-86477809D01*
X159742095Y-86382571D01*
X159694476Y-86334952D01*
X159599238Y-86287333D01*
X159408761Y-86287333D01*
X159313523Y-86334952D01*
X159265904Y-86382571D01*
X159218285Y-86477809D01*
X165956380Y-102615904D02*
X164956380Y-102615904D01*
X165432571Y-102615904D02*
X165432571Y-102044476D01*
X165956380Y-102044476D02*
X164956380Y-102044476D01*
X165956380Y-101044476D02*
X165956380Y-101615904D01*
X165956380Y-101330190D02*
X164956380Y-101330190D01*
X165099238Y-101425428D01*
X165194476Y-101520666D01*
X165242095Y-101615904D01*
X196365904Y-86906380D02*
X196365904Y-85906380D01*
X196604000Y-85906380D01*
X196746857Y-85954000D01*
X196842095Y-86049238D01*
X196889714Y-86144476D01*
X196937333Y-86334952D01*
X196937333Y-86477809D01*
X196889714Y-86668285D01*
X196842095Y-86763523D01*
X196746857Y-86858761D01*
X196604000Y-86906380D01*
X196365904Y-86906380D01*
X197270666Y-85906380D02*
X197937333Y-85906380D01*
X197508761Y-86906380D01*
X229456380Y-102615904D02*
X228456380Y-102615904D01*
X228932571Y-102615904D02*
X228932571Y-102044476D01*
X229456380Y-102044476D02*
X228456380Y-102044476D01*
X228456380Y-101663523D02*
X228456380Y-100996857D01*
X229456380Y-101425428D01*
X226028642Y-86812380D02*
X225695309Y-86336190D01*
X225457214Y-86812380D02*
X225457214Y-85812380D01*
X225838166Y-85812380D01*
X225933404Y-85860000D01*
X225981023Y-85907619D01*
X226028642Y-86002857D01*
X226028642Y-86145714D01*
X225981023Y-86240952D01*
X225933404Y-86288571D01*
X225838166Y-86336190D01*
X225457214Y-86336190D01*
X226981023Y-86812380D02*
X226409595Y-86812380D01*
X226695309Y-86812380D02*
X226695309Y-85812380D01*
X226600071Y-85955238D01*
X226504833Y-86050476D01*
X226409595Y-86098095D01*
X227552452Y-86240952D02*
X227457214Y-86193333D01*
X227409595Y-86145714D01*
X227361976Y-86050476D01*
X227361976Y-86002857D01*
X227409595Y-85907619D01*
X227457214Y-85860000D01*
X227552452Y-85812380D01*
X227742928Y-85812380D01*
X227838166Y-85860000D01*
X227885785Y-85907619D01*
X227933404Y-86002857D01*
X227933404Y-86050476D01*
X227885785Y-86145714D01*
X227838166Y-86193333D01*
X227742928Y-86240952D01*
X227552452Y-86240952D01*
X227457214Y-86288571D01*
X227409595Y-86336190D01*
X227361976Y-86431428D01*
X227361976Y-86621904D01*
X227409595Y-86717142D01*
X227457214Y-86764761D01*
X227552452Y-86812380D01*
X227742928Y-86812380D01*
X227838166Y-86764761D01*
X227885785Y-86717142D01*
X227933404Y-86621904D01*
X227933404Y-86431428D01*
X227885785Y-86336190D01*
X227838166Y-86288571D01*
X227742928Y-86240952D01*
D14*
X220844000Y-88619000D02*
X223304000Y-88619000D01*
X220844000Y-87149000D02*
X220844000Y-88619000D01*
X223304000Y-87149000D02*
X220844000Y-87149000D01*
X228004000Y-127254000D02*
G75*
G03*
X228004000Y-127254000I-5500000J0D01*
G01*
X112268724Y-88406500D02*
X111759276Y-88406500D01*
X112268724Y-87361500D02*
X111759276Y-87361500D01*
X177204000Y-127254000D02*
G75*
G03*
X177204000Y-127254000I-5500000J0D01*
G01*
X151804000Y-127254000D02*
G75*
G03*
X151804000Y-127254000I-5500000J0D01*
G01*
X163068724Y-87361500D02*
X162559276Y-87361500D01*
X163068724Y-88406500D02*
X162559276Y-88406500D01*
X101004000Y-127254000D02*
G75*
G03*
X101004000Y-127254000I-5500000J0D01*
G01*
X202604000Y-101854000D02*
G75*
G03*
X202604000Y-101854000I-5500000J0D01*
G01*
D15*
X138784000Y-64094000D02*
X138534000Y-64094000D01*
X88034000Y-64094000D02*
X87784000Y-64094000D01*
X87784000Y-43094000D02*
X88034000Y-43094000D01*
X138784000Y-57254000D02*
X138784000Y-64094000D01*
X86484000Y-57594000D02*
X86484000Y-49594000D01*
X87784000Y-64094000D02*
X87784000Y-57594000D01*
X86484000Y-49594000D02*
X87784000Y-49594000D01*
X87784000Y-57594000D02*
X86484000Y-57594000D01*
X138784000Y-43094000D02*
X138784000Y-49934000D01*
X138784000Y-43094000D02*
X138534000Y-43094000D01*
X87784000Y-49594000D02*
X87784000Y-43094000D01*
D12*
X89304000Y-65784000D02*
G75*
G03*
X89304000Y-65784000I-150000J0D01*
G01*
D14*
X109004000Y-87149000D02*
X106544000Y-87149000D01*
X106544000Y-88619000D02*
X109004000Y-88619000D01*
X106544000Y-87149000D02*
X106544000Y-88619000D01*
X202604000Y-127254000D02*
G75*
G03*
X202604000Y-127254000I-5500000J0D01*
G01*
X201501224Y-88406500D02*
X200991776Y-88406500D01*
X201501224Y-87361500D02*
X200991776Y-87361500D01*
X113704000Y-101854000D02*
G75*
G03*
X113704000Y-101854000I-5500000J0D01*
G01*
X94294000Y-70044000D02*
X94294000Y-93024000D01*
X89094000Y-72644000D02*
X91694000Y-72644000D01*
X89094000Y-70044000D02*
X90424000Y-70044000D01*
X91694000Y-72644000D02*
X91694000Y-70044000D01*
X89094000Y-71374000D02*
X89094000Y-70044000D01*
X89094000Y-93024000D02*
X94294000Y-93024000D01*
X91694000Y-70044000D02*
X94294000Y-70044000D01*
X89094000Y-72644000D02*
X89094000Y-93024000D01*
X126404000Y-127254000D02*
G75*
G03*
X126404000Y-127254000I-5500000J0D01*
G01*
X218002000Y-46672000D02*
X218002000Y-44672000D01*
X232502000Y-53872000D02*
X218002000Y-53872000D01*
X218002000Y-44672000D02*
X219302000Y-44672000D01*
X217702000Y-52472000D02*
X217702000Y-54172000D01*
X232502000Y-44672000D02*
X232502000Y-53872000D01*
X223902000Y-44672000D02*
X232502000Y-44672000D01*
X217702000Y-54172000D02*
X219002000Y-54172000D01*
X218002000Y-53872000D02*
X218002000Y-51872000D01*
X159804000Y-87149000D02*
X157344000Y-87149000D01*
X157344000Y-88619000D02*
X159804000Y-88619000D01*
X157344000Y-87149000D02*
X157344000Y-88619000D01*
X164504000Y-101854000D02*
G75*
G03*
X164504000Y-101854000I-5500000J0D01*
G01*
X197904000Y-87149000D02*
X195444000Y-87149000D01*
X195444000Y-87149000D02*
X195444000Y-88619000D01*
X195444000Y-88619000D02*
X197904000Y-88619000D01*
X228004000Y-101854000D02*
G75*
G03*
X228004000Y-101854000I-5500000J0D01*
G01*
X226926224Y-88406500D02*
X226416776Y-88406500D01*
X226926224Y-87361500D02*
X226416776Y-87361500D01*
%LPC*%
D16*
X221629000Y-87884000D03*
X223379000Y-87884000D03*
D17*
X222504000Y-127254000D03*
D18*
X112926500Y-87884000D03*
X111101500Y-87884000D03*
D17*
X171704000Y-127254000D03*
X146304000Y-127254000D03*
D18*
X163726500Y-87884000D03*
X161901500Y-87884000D03*
D17*
X95504000Y-127254000D03*
X197104000Y-101854000D03*
D19*
X89154000Y-62484000D03*
X91694000Y-62484000D03*
D20*
X94234000Y-62484000D03*
D19*
X96774000Y-62484000D03*
X99314000Y-62484000D03*
X101854000Y-62484000D03*
X104394000Y-62484000D03*
D20*
X106934000Y-62484000D03*
D19*
X109474000Y-62484000D03*
X112014000Y-62484000D03*
X114554000Y-62484000D03*
X117094000Y-62484000D03*
D20*
X119634000Y-62484000D03*
D19*
X122174000Y-62484000D03*
X124714000Y-62484000D03*
X127254000Y-62442119D03*
X129794000Y-62484000D03*
D20*
X132334000Y-62484000D03*
D19*
X134874000Y-62484000D03*
X137414000Y-62484000D03*
X137414000Y-44704000D03*
X134874000Y-44704000D03*
D20*
X132334000Y-44704000D03*
D19*
X129794000Y-44704000D03*
X127254000Y-44704000D03*
X124714000Y-44704000D03*
X122174000Y-44704000D03*
D20*
X119634000Y-44704000D03*
D19*
X117094000Y-44704000D03*
X114554000Y-44704000D03*
X112014000Y-44704000D03*
X109474000Y-44704000D03*
D20*
X106934000Y-44704000D03*
D19*
X104394000Y-44704000D03*
X101854000Y-44704000D03*
X99314000Y-44704000D03*
X96774000Y-44704000D03*
D20*
X94234000Y-44704000D03*
D19*
X91694000Y-44704000D03*
X89154000Y-44704000D03*
D16*
X107329000Y-87884000D03*
X109079000Y-87884000D03*
D17*
X197104000Y-127254000D03*
D18*
X202159000Y-87884000D03*
X200334000Y-87884000D03*
D17*
X108204000Y-101854000D03*
D21*
X90424000Y-71374000D03*
D22*
X92964000Y-71374000D03*
X90424000Y-73914000D03*
X92964000Y-73914000D03*
X90424000Y-76454000D03*
X92964000Y-76454000D03*
X90424000Y-78994000D03*
X92964000Y-78994000D03*
X90424000Y-81534000D03*
X92964000Y-81534000D03*
X90424000Y-84074000D03*
X92964000Y-84074000D03*
X90424000Y-86614000D03*
X92964000Y-86614000D03*
X90424000Y-89154000D03*
X92964000Y-89154000D03*
X90424000Y-91694000D03*
X92964000Y-91694000D03*
D17*
X120904000Y-127254000D03*
D23*
X218702000Y-49272000D03*
D24*
X225002000Y-49272000D03*
D25*
X221602000Y-44472000D03*
D16*
X158129000Y-87884000D03*
X159879000Y-87884000D03*
D17*
X159004000Y-101854000D03*
D16*
X196229000Y-87884000D03*
X197979000Y-87884000D03*
D17*
X222504000Y-101854000D03*
D18*
X227584000Y-87884000D03*
X225759000Y-87884000D03*
D26*
X184404000Y-96774000D03*
X184404000Y-106934000D03*
X184404000Y-114554000D03*
X176784000Y-96774000D03*
X133604000Y-96774000D03*
X133604000Y-106934000D03*
X133604000Y-114554000D03*
X125984000Y-96774000D03*
M02*
